<?xml version="1.0" encoding="UTF-8"?>
<svg id="Layer_1" data-name="Layer 1" xmlns="http://www.w3.org/2000/svg" viewBox="0 0 2000 2000">
  <defs>
    <style>
      .cls-1 {
        fill: #fff;
      }
    </style>
  </defs>
  <rect width="2000" height="2000"/>
  <g>
    <path class="cls-1" d="M751.49,700.01c45.07,30.37,89.83,60.54,135.08,91.03-116.64,202.48-233.03,404.52-349.12,606.04h15.95c17.83,0,35.67,0,53.5,0,14.04,0,28.09-.27,42.12.07,9.18.23,18.34,1.76,27.52,1.97,26.34.61,46.45-10.87,60.36-32.94,8.4-13.33,16.17-27.06,23.92-40.78,10.85-19.19,21.35-38.57,32.14-57.8,8.4-14.98,17.04-29.83,25.52-44.76,10.1-17.77,20.08-35.6,30.23-53.34,11.22-19.61,22.64-39.12,33.85-58.73,6.9-12.07,13.5-24.31,20.39-36.38,10.06-17.62,20.32-35.13,30.4-52.75,9.33-16.31,18.4-32.77,27.8-49.04,6.46-11.18,13.46-22.05,19.89-33.26,11.21-19.56,22.08-39.32,33.26-58.9,4.78-8.37,10.07-16.44,14.95-24.76,14.38-24.53,28.81-49.04,42.94-73.72,10.36-18.09,9.15-36.13-1.57-53.71-11.07-18.14-22.34-36.15-33.31-54.34-15.32-25.41-30.54-50.89-45.63-76.44-12.73-21.54-25.12-43.28-37.84-64.82-12.74-21.58-25.72-43.02-38.53-64.56-5.18-8.71-10.01-17.63-15.43-26.18-1.58-2.49-.84-4.09.23-5.9,12.06-20.46,29.47-35.19,50.45-45.65,16.21-8.08,33.55-11.56,51.81-10.31,25.12,1.71,47.21,10.4,66.58,26.66,14.24,11.95,25.16,26.43,34.35,42.28,15.37,26.49,30.39,53.18,45.4,79.87,12.08,21.48,23.81,43.16,35.9,64.63,13.02,23.11,26.31,46.07,39.41,69.14,11.31,19.92,22.51,39.89,33.75,59.85,4.34,7.7,9.52,15.07,12.79,23.2,6.7,16.61,2.55,32.14-6.57,46.9-7.74,12.54-15.04,25.35-22.53,38.04-12.95,21.95-25.97,43.86-38.82,65.87-10.44,17.87-20.58,35.92-31.01,53.8-15.15,25.95-30.52,51.78-45.66,77.73-17.67,30.27-35.17,60.62-52.79,90.91-12.26,21.08-24.61,42.11-36.89,63.18-12.75,21.87-25.45,43.76-38.19,65.63-13.02,22.34-26.15,44.61-39.1,67-14.56,25.17-28.89,50.48-43.45,75.65-14.86,25.69-29.9,51.26-44.8,76.92-11.78,20.28-23.29,40.72-35.26,60.89-5.29,8.92-9.66,18.67-18.77,24.79-6.5,4.37-13.58,7.17-21.42,7.17-114.33.06-228.66.22-342.99-.12-19.5-.06-38.69-3.62-57.1-10.84-13.83-5.42-26.03-13.32-36.48-23.54-13.62-13.32-21.39-29.99-24.82-48.75-4.19-22.97.28-44.77,7.95-66.34,6.63-18.64,17.93-34.76,27.22-51.95,9.98-18.46,20.86-36.44,31.39-54.61,10.68-18.41,21.52-36.73,32.11-55.2,11.81-20.6,23.33-41.37,35.15-61.96,10.19-17.77,20.7-35.36,30.93-53.12,8.21-14.25,16.15-28.65,24.32-42.93,10.57-18.47,21.29-36.86,31.85-55.33,10.86-18.99,21.55-38.08,32.43-57.06,11-19.2,22.14-38.32,33.2-57.49,12.08-20.95,24.06-41.97,36.24-62.87,5.02-8.62,10.5-16.98,15.67-25.52,16.76-27.67,33.55-55.31,50.16-83.06,9.69-16.18,19.08-32.54,28.97-49.44Z"/>
    <path class="cls-1" d="M994.43,1560.18c125.81-217.34,251.24-434.05,377.18-651.62,5.73,9.72,10.95,18.37,15.97,27.14,9.28,16.21,18.52,32.45,27.62,48.77,7.57,13.57,14.82,27.33,22.38,40.9,8.03,14.42,16.29,28.72,24.42,43.09,9.62,17.01,19.19,34.05,28.81,51.06,11.37,20.13,22.82,40.22,34.14,60.37,6.69,11.91,13.12,23.97,19.8,35.88,11.13,19.84,22.43,39.6,33.56,59.44,8.34,14.88,16.48,29.87,24.77,44.77,9.74,17.51,19.87,34.8,29.22,52.51,10.85,20.55,24.68,39.6,31.07,62.44,6.39,22.82,6.04,45.19-3.09,67.19-10.48,25.24-28.64,42.06-54.48,51.42-12.76,4.62-25.51,7.35-38.87,6.48-10.77-.7-20.28-5.51-26.49-14.24-7.22-10.16-13.17-21.26-19.42-32.09-9.89-17.13-19.52-34.42-29.38-51.58-9.64-16.78-19.37-33.52-29.18-50.21-6.81-11.59-13.91-23-20.71-34.6-8.44-14.4-16.66-28.94-25.07-43.37-9.28-15.91-18.52-31.84-28.05-47.59-6.43-10.62-13.33-20.95-20.06-31.38-1.82-2.81-3.2-2.43-5.02.38-16.94,26.06-31.29,53.61-46.59,80.61-14.3,25.23-28.81,50.33-43.12,75.55-11.12,19.6-21.91,39.4-33.16,58.92-14.03,24.35-28.28,48.58-42.73,72.68-2.59,4.32-6.37,8.01-9.98,11.61-4.76,4.75-11.36,3.39-17.22,4.38-2.43.41-4.99.06-7.49.07-54.43.32-108.87.65-163.3.98-1.6,0-3.2,0-5.52,0Z"/>
  </g>
</svg>