<?xml version="1.0" encoding="UTF-8"?>
<svg id="Layer_1" data-name="Layer 1" xmlns="http://www.w3.org/2000/svg" xmlns:xlink="http://www.w3.org/1999/xlink" viewBox="0 0 500 500">
  <defs>
    <style>
      .cls-1 {
        fill: none;
      }

      .cls-2 {
        fill: #fff;
      }

      .cls-3 {
        clip-path: url(#clippath);
      }
    </style>
    <clipPath id="clippath">
      <path class="cls-1" d="M364.46,714.54c0,70.49-48.9,113.68-119.98,113.68h-104.8v-227.36h104.8c71.07,0,119.98,43.21,119.98,113.68Z"/>
    </clipPath>
  </defs>
  <g>
    <path class="cls-2" d="M381.75,143.25l-3.85,3.13c23.26,28.44,37.21,64.78,37.21,104.29s-15.23,79.05-40.35,108.01l3.81,3.19c25.83-29.83,41.49-68.72,41.49-111.21s-14.36-78.12-38.33-107.42ZM121.47,147.12l-3.66-3.38c-23.69,29.24-37.9,66.46-37.9,106.93,0,42.73,15.85,81.84,41.96,111.73l3.85-3.13c-25.43-29.03-40.84-67.05-40.84-108.6,0-39.17,13.71-75.2,36.59-103.55Z"/>
    <g>
      <path class="cls-2" d="M202.25,222.21l-.34-.1s-.07-.03-.07-.03l-.17-.07-.21-.21-.24-.24-3.81-3.78-2.68-2.68c-.86-.82-.34-2.27.86-2.37l3.78-.31,5.63-.45.45-.03h.17l.21-.03.27.14h.07l.41.21,15.66,7.14c-10.78-8.1-19.4-15.28-21.46-16.93-3.95-3.19-5.12-1.82-8.14,4.22-4.05,9.68-8.24,20.43-7.9,32.31-.03,3.33,2.75,1.89,4.98,1.82,2.23-.14,40.38,2.85,54.6-.72.45-.1.86-.21,1.2-.31l-43.27-17.58ZM202.25,222.21l-.34-.1s-.07-.03-.07-.03l-.17-.07-.21-.21-.24-.24-3.81-3.78-2.68-2.68c-.86-.82-.34-2.27.86-2.37l3.78-.31,5.63-.45.45-.03h.17l.21-.03.27.14h.07l.41.21,15.66,7.14c-10.78-8.1-19.4-15.28-21.46-16.93-3.95-3.19-5.12-1.82-8.14,4.22-4.05,9.68-8.24,20.43-7.9,32.31-.03,3.33,2.75,1.89,4.98,1.82,2.23-.14,40.38,2.85,54.6-.72.45-.1.86-.21,1.2-.31l-43.27-17.58ZM247.54,241.23c-.93.1-2.2.41-3.74.76-22.35,4.7-49.41,6.9-53.71,7.31-5.08.48-4.98,2.27-2.88,8.69,3.88,9.75,8.41,20.36,16.96,28.64,2.34,2.4,3.33-.58,4.84-2.23,1.51-1.61,30.84-26.2,38.53-38.7.24-.41.48-.79.65-1.13l.1-2.23c-.27-.34-.55-.72-.76-1.1ZM249.74,230.03c-4.74-22.35-7-49.45-7.42-53.74-.48-5.05-2.27-4.94-8.69-2.85-9.75,3.91-20.36,8.45-28.57,17.03-2.44,2.34.55,3.3,2.2,4.81,1.24,1.17,16.14,18.82,28.64,30.36l14.29,6.52c-.14-.62-.27-1.34-.45-2.13ZM254.31,290.23l-1.41,1.27-1.34,1.27c-.55.48-1.34.45-1.85-.1l-1.24-1.34-1.37-1.51-.52-.58-.38-.38.03-.55.03-.76,1.79-39.46c-12.6,18.85-29.91,39.01-32.62,42.27-3.26,3.88-1.96,5.08,4.05,8.21,9.61,4.19,20.29,8.55,32.18,8.41,3.37.07,1.99-2.71,1.89-4.94,0-.76.38-5.39.76-11.81ZM285.93,179.35c-9.62-4.22-20.29-8.58-32.18-8.41-3.37-.07-1.99,2.75-1.89,4.98.07,2.2-3.47,40.31-.14,54.6.1.41.21.79.31,1.13.1-.03.24-.03.34-.03.27-.03.55-.07.82-.07.96,0,1.89.21,2.75.62.31-.48.65-1.03,1.03-1.61,12.6-19.09,30.29-39.73,33.03-43.03,3.26-3.91,1.92-5.08-4.09-8.17ZM297.64,283.26c-1.58-1.55-25.82-31.18-38.22-38.97-.79-.52-1.44-.86-1.99-1.13l-.51,11.71c3.54,20.74,5.08,43.03,5.39,46.91.45,5.05,2.23,4.98,8.65,2.95,9.82-3.74,20.5-8.14,28.85-16.62,2.44-2.3-.52-3.3-2.16-4.84ZM318.38,220.21c-3.85-9.79-8.34-20.4-16.86-28.67-2.33-2.44-3.33.52-4.84,2.16-1.51,1.61-30.32,25.58-38.43,38.15l38.53-7.07.45-.07.65-.14.96.52,6.94,3.74.93.51c.34.17.72.24,1.13.21,3.78-.34,6.52-.55,7.66-.65,5.05-.48,4.94-2.27,2.88-8.69ZM315.84,238.93c-.14,0-.45,0-.93-.07-.38,0-.89-.03-1.48-.1-1.34-.1-3.23-.24-5.46-.41-.38-.03-.76-.07-1.13-.1-1.1-.07-2.34-.17-3.61-.27h-.1c-.24-.03-.51-.03-.76-.07l-.34.38c-.1.07-.21.17-.27.24l-.41.41-.31.31-.03.03-.48.45-.65.07h-.03l-.45.03-39.18,2.88c.27.21.58.41.89.62,18.92,12.84,39.32,30.8,42.58,33.58,3.88,3.3,5.08,2.03,8.24-3.95,4.33-9.58,8.86-20.19,8.83-32.07.14-3.37-2.68-1.99-4.91-1.96ZM315.84,238.93c-.14,0-.45,0-.93-.07-.38,0-.89-.03-1.48-.1-1.34-.1-3.23-.24-5.46-.41-.38-.03-.76-.07-1.13-.1-1.1-.07-2.34-.17-3.61-.27h-.1c-.24-.03-.51-.03-.76-.07l-.34.38c-.1.07-.21.17-.27.24l-.41.41-.31.31-.03.03-.48.45-.65.07h-.03l-.45.03-39.18,2.88c.27.21.58.41.89.62,18.92,12.84,39.32,30.8,42.58,33.58,3.88,3.3,5.08,2.03,8.24-3.95,4.33-9.58,8.86-20.19,8.83-32.07.14-3.37-2.68-1.99-4.91-1.96ZM318.38,220.21c-3.85-9.79-8.34-20.4-16.86-28.67-2.33-2.44-3.33.52-4.84,2.16-1.51,1.61-30.32,25.58-38.43,38.15l38.53-7.07.45-.07.65-.14.96.52,6.94,3.74.93.51c.34.17.72.24,1.13.21,3.78-.34,6.52-.55,7.66-.65,5.05-.48,4.94-2.27,2.88-8.69ZM297.64,283.26c-1.58-1.55-25.82-31.18-38.22-38.97-.79-.52-1.44-.86-1.99-1.13l-.51,11.71c3.54,20.74,5.08,43.03,5.39,46.91.45,5.05,2.23,4.98,8.65,2.95,9.82-3.74,20.5-8.14,28.85-16.62,2.44-2.3-.52-3.3-2.16-4.84ZM285.93,179.35c-9.62-4.22-20.29-8.58-32.18-8.41-3.37-.07-1.99,2.75-1.89,4.98.07,2.2-3.47,40.31-.14,54.6.1.41.21.79.31,1.13.1-.03.24-.03.34-.03.27-.03.55-.07.82-.07.96,0,1.89.21,2.75.62.31-.48.65-1.03,1.03-1.61,12.6-19.09,30.29-39.73,33.03-43.03,3.26-3.91,1.92-5.08-4.09-8.17ZM254.31,290.23l-1.41,1.27-1.34,1.27c-.55.48-1.34.45-1.85-.1l-1.24-1.34-1.37-1.51-.52-.58-.38-.38.03-.55.03-.76,1.79-39.46c-12.6,18.85-29.91,39.01-32.62,42.27-3.26,3.88-1.96,5.08,4.05,8.21,9.61,4.19,20.29,8.55,32.18,8.41,3.37.07,1.99-2.71,1.89-4.94,0-.76.38-5.39.76-11.81ZM249.74,230.03c-4.74-22.35-7-49.45-7.42-53.74-.48-5.05-2.27-4.94-8.69-2.85-9.75,3.91-20.36,8.45-28.57,17.03-2.44,2.34.55,3.3,2.2,4.81,1.24,1.17,16.14,18.82,28.64,30.36l14.29,6.52c-.14-.62-.27-1.34-.45-2.13ZM247.54,241.23c-.93.1-2.2.41-3.74.76-22.35,4.7-49.41,6.9-53.71,7.31-5.08.48-4.98,2.27-2.88,8.69,3.88,9.75,8.41,20.36,16.96,28.64,2.34,2.4,3.33-.58,4.84-2.23,1.51-1.61,30.84-26.2,38.53-38.7.24-.41.48-.79.65-1.13l.1-2.23c-.27-.34-.55-.72-.76-1.1ZM202.25,222.21l-.34-.1s-.07-.03-.07-.03l-.17-.07-.21-.21-.24-.24-3.81-3.78-2.68-2.68c-.86-.82-.34-2.27.86-2.37l3.78-.31,5.63-.45.45-.03h.17l.21-.03.27.14h.07l.41.21,15.66,7.14c-10.78-8.1-19.4-15.28-21.46-16.93-3.95-3.19-5.12-1.82-8.14,4.22-4.05,9.68-8.24,20.43-7.9,32.31-.03,3.33,2.75,1.89,4.98,1.82,2.23-.14,40.38,2.85,54.6-.72.45-.1.86-.21,1.2-.31l-43.27-17.58ZM202.25,222.21l-.34-.1s-.07-.03-.07-.03l-.17-.07-.21-.21-.24-.24-3.81-3.78-2.68-2.68c-.86-.82-.34-2.27.86-2.37l3.78-.31,5.63-.45.45-.03h.17l.21-.03.27.14h.07l.41.21,15.66,7.14c-10.78-8.1-19.4-15.28-21.46-16.93-3.95-3.19-5.12-1.82-8.14,4.22-4.05,9.68-8.24,20.43-7.9,32.31-.03,3.33,2.75,1.89,4.98,1.82,2.23-.14,40.38,2.85,54.6-.72.45-.1.86-.21,1.2-.31l-43.27-17.58ZM247.54,241.23c-.93.1-2.2.41-3.74.76-22.35,4.7-49.41,6.9-53.71,7.31-5.08.48-4.98,2.27-2.88,8.69,3.88,9.75,8.41,20.36,16.96,28.64,2.34,2.4,3.33-.58,4.84-2.23,1.51-1.61,30.84-26.2,38.53-38.7.24-.41.48-.79.65-1.13l.1-2.23c-.27-.34-.55-.72-.76-1.1ZM249.74,230.03c-4.74-22.35-7-49.45-7.42-53.74-.48-5.05-2.27-4.94-8.69-2.85-9.75,3.91-20.36,8.45-28.57,17.03-2.44,2.34.55,3.3,2.2,4.81,1.24,1.17,16.14,18.82,28.64,30.36l14.29,6.52c-.14-.62-.27-1.34-.45-2.13ZM254.31,290.23l-1.41,1.27-1.34,1.27c-.55.48-1.34.45-1.85-.1l-1.24-1.34-1.37-1.51-.52-.58-.38-.38.03-.55.03-.76,1.79-39.46c-12.6,18.85-29.91,39.01-32.62,42.27-3.26,3.88-1.96,5.08,4.05,8.21,9.61,4.19,20.29,8.55,32.18,8.41,3.37.07,1.99-2.71,1.89-4.94,0-.76.38-5.39.76-11.81ZM285.93,179.35c-9.62-4.22-20.29-8.58-32.18-8.41-3.37-.07-1.99,2.75-1.89,4.98.07,2.2-3.47,40.31-.14,54.6.1.41.21.79.31,1.13.1-.03.24-.03.34-.03.27-.03.55-.07.82-.07.96,0,1.89.21,2.75.62.31-.48.65-1.03,1.03-1.61,12.6-19.09,30.29-39.73,33.03-43.03,3.26-3.91,1.92-5.08-4.09-8.17ZM297.64,283.26c-1.58-1.55-25.82-31.18-38.22-38.97-.79-.52-1.44-.86-1.99-1.13l-.51,11.71c3.54,20.74,5.08,43.03,5.39,46.91.45,5.05,2.23,4.98,8.65,2.95,9.82-3.74,20.5-8.14,28.85-16.62,2.44-2.3-.52-3.3-2.16-4.84ZM318.38,220.21c-3.85-9.79-8.34-20.4-16.86-28.67-2.33-2.44-3.33.52-4.84,2.16-1.51,1.61-30.32,25.58-38.43,38.15l38.53-7.07.45-.07.65-.14.96.52,6.94,3.74.93.51c.34.17.72.24,1.13.21,3.78-.34,6.52-.55,7.66-.65,5.05-.48,4.94-2.27,2.88-8.69ZM315.84,238.93c-.14,0-.45,0-.93-.07-.38,0-.89-.03-1.48-.1-1.34-.1-3.23-.24-5.46-.41-.38-.03-.76-.07-1.13-.1-1.1-.07-2.34-.17-3.61-.27h-.1c-.24-.03-.51-.03-.76-.07l-.34.38c-.1.07-.21.17-.27.24l-.41.41-.31.31-.03.03-.48.45-.65.07h-.03l-.45.03-39.18,2.88c.27.21.58.41.89.62,18.92,12.84,39.32,30.8,42.58,33.58,3.88,3.3,5.08,2.03,8.24-3.95,4.33-9.58,8.86-20.19,8.83-32.07.14-3.37-2.68-1.99-4.91-1.96ZM315.84,238.93c-.14,0-.45,0-.93-.07-.38,0-.89-.03-1.48-.1-1.34-.1-3.23-.24-5.46-.41-.38-.03-.76-.07-1.13-.1-1.1-.07-2.34-.17-3.61-.27h-.1c-.24-.03-.51-.03-.76-.07l-.34.38c-.1.07-.21.17-.27.24l-.41.41-.31.31-.03.03-.48.45-.65.07h-.03l-.45.03-39.18,2.88c.27.21.58.41.89.62,18.92,12.84,39.32,30.8,42.58,33.58,3.88,3.3,5.08,2.03,8.24-3.95,4.33-9.58,8.86-20.19,8.83-32.07.14-3.37-2.68-1.99-4.91-1.96ZM318.38,220.21c-3.85-9.79-8.34-20.4-16.86-28.67-2.33-2.44-3.33.52-4.84,2.16-1.51,1.61-30.32,25.58-38.43,38.15l38.53-7.07.45-.07.65-.14.96.52,6.94,3.74.93.51c.34.17.72.24,1.13.21,3.78-.34,6.52-.55,7.66-.65,5.05-.48,4.94-2.27,2.88-8.69ZM297.64,283.26c-1.58-1.55-25.82-31.18-38.22-38.97-.79-.52-1.44-.86-1.99-1.13l-.51,11.71c3.54,20.74,5.08,43.03,5.39,46.91.45,5.05,2.23,4.98,8.65,2.95,9.82-3.74,20.5-8.14,28.85-16.62,2.44-2.3-.52-3.3-2.16-4.84ZM285.93,179.35c-9.62-4.22-20.29-8.58-32.18-8.41-3.37-.07-1.99,2.75-1.89,4.98.07,2.2-3.47,40.31-.14,54.6.1.41.21.79.31,1.13.1-.03.24-.03.34-.03.27-.03.55-.07.82-.07.96,0,1.89.21,2.75.62.31-.48.65-1.03,1.03-1.61,12.6-19.09,30.29-39.73,33.03-43.03,3.26-3.91,1.92-5.08-4.09-8.17ZM254.31,290.23l-1.41,1.27-1.34,1.27c-.55.48-1.34.45-1.85-.1l-1.24-1.34-1.37-1.51-.52-.58-.38-.38.03-.55.03-.76,1.79-39.46c-12.6,18.85-29.91,39.01-32.62,42.27-3.26,3.88-1.96,5.08,4.05,8.21,9.61,4.19,20.29,8.55,32.18,8.41,3.37.07,1.99-2.71,1.89-4.94,0-.76.38-5.39.76-11.81ZM249.74,230.03c-4.74-22.35-7-49.45-7.42-53.74-.48-5.05-2.27-4.94-8.69-2.85-9.75,3.91-20.36,8.45-28.57,17.03-2.44,2.34.55,3.3,2.2,4.81,1.24,1.17,16.14,18.82,28.64,30.36l14.29,6.52c-.14-.62-.27-1.34-.45-2.13ZM247.54,241.23c-.93.1-2.2.41-3.74.76-22.35,4.7-49.41,6.9-53.71,7.31-5.08.48-4.98,2.27-2.88,8.69,3.88,9.75,8.41,20.36,16.96,28.64,2.34,2.4,3.33-.58,4.84-2.23,1.51-1.61,30.84-26.2,38.53-38.7.24-.41.48-.79.65-1.13l.1-2.23c-.27-.34-.55-.72-.76-1.1ZM202.25,222.21l-.34-.1s-.07-.03-.07-.03l-.17-.07-.21-.21-.24-.24-3.81-3.78-2.68-2.68c-.86-.82-.34-2.27.86-2.37l3.78-.31,5.63-.45.45-.03h.17l.21-.03.27.14h.07l.41.21,15.66,7.14c-10.78-8.1-19.4-15.28-21.46-16.93-3.95-3.19-5.12-1.82-8.14,4.22-4.05,9.68-8.24,20.43-7.9,32.31-.03,3.33,2.75,1.89,4.98,1.82,2.23-.14,40.38,2.85,54.6-.72.45-.1.86-.21,1.2-.31l-43.27-17.58ZM202.25,222.21l-.34-.1s-.07-.03-.07-.03c-.14-.07-.27-.17-.38-.27l-.24-.24-3.81-3.78-2.68-2.68c-.86-.82-.34-2.27.86-2.37l3.78-.31,5.63-.45.45-.03h.17c.17,0,.34.03.48.1h.07l.41.21,15.66,7.14c-10.78-8.1-19.4-15.28-21.46-16.93-3.95-3.19-5.12-1.82-8.14,4.22-4.05,9.68-8.24,20.43-7.9,32.31-.03,3.33,2.75,1.89,4.98,1.82,2.23-.14,40.38,2.85,54.6-.72.45-.1.86-.21,1.2-.31l-43.27-17.58ZM247.54,241.23c-.93.1-2.2.41-3.74.76-22.35,4.7-49.41,6.9-53.71,7.31-5.08.48-4.98,2.27-2.88,8.69,3.88,9.75,8.41,20.36,16.96,28.64,2.34,2.4,3.33-.58,4.84-2.23,1.51-1.61,30.84-26.2,38.53-38.7.24-.41.48-.79.65-1.13l.1-2.23c-.27-.34-.55-.72-.76-1.1ZM249.74,230.03c-4.74-22.35-7-49.45-7.42-53.74-.48-5.05-2.27-4.94-8.69-2.85-9.75,3.91-20.36,8.45-28.57,17.03-2.44,2.34.55,3.3,2.2,4.81,1.24,1.17,16.14,18.82,28.64,30.36l14.29,6.52c-.14-.62-.27-1.34-.45-2.13ZM254.31,290.23l-1.41,1.27-1.34,1.27c-.55.48-1.34.45-1.85-.1l-1.24-1.34-1.37-1.51-.52-.58c-.24-.24-.34-.58-.34-.93l.03-.76,1.79-39.46c-12.6,18.85-29.91,39.01-32.62,42.27-3.26,3.88-1.96,5.08,4.05,8.21,9.61,4.19,20.29,8.55,32.18,8.41,3.37.07,1.99-2.71,1.89-4.94,0-.76.38-5.39.76-11.81ZM285.93,179.35c-9.62-4.22-20.29-8.58-32.18-8.41-3.37-.07-1.99,2.75-1.89,4.98.07,2.2-3.47,40.31-.14,54.6.1.41.21.79.31,1.13.1-.03.24-.03.34-.03.27-.03.55-.07.82-.07.96,0,1.89.21,2.75.62.31-.48.65-1.03,1.03-1.61,12.6-19.09,30.29-39.73,33.03-43.03,3.26-3.91,1.92-5.08-4.09-8.17ZM297.64,283.26c-1.58-1.55-25.82-31.18-38.22-38.97-.79-.52-1.44-.86-1.99-1.13l-.51,11.71c3.54,20.74,5.08,43.03,5.39,46.91.45,5.05,2.23,4.98,8.65,2.95,9.82-3.74,20.5-8.14,28.85-16.62,2.44-2.3-.52-3.3-2.16-4.84ZM318.38,220.21c-3.85-9.79-8.34-20.4-16.86-28.67-2.33-2.44-3.33.52-4.84,2.16-1.51,1.61-30.32,25.58-38.43,38.15l38.53-7.07.45-.07c.41-.07.86,0,1.24.21l.38.17,6.94,3.74.93.51c.34.17.72.24,1.13.21,3.78-.34,6.52-.55,7.66-.65,5.05-.48,4.94-2.27,2.88-8.69ZM315.84,238.93c-.14,0-.45,0-.93-.07-.38,0-.89-.03-1.48-.1-1.34-.1-3.23-.24-5.46-.41-.38-.03-.76-.07-1.13-.1-1.1-.07-2.34-.17-3.61-.27h-.1c-.24-.03-.51-.03-.76-.07l-.34.38c-.1.07-.21.17-.27.24l-.41.41-.31.31-.03.03c-.31.27-.72.48-1.13.52h-.03l-.45.03-39.18,2.88c.27.21.58.41.89.62,18.92,12.84,39.32,30.8,42.58,33.58,3.88,3.3,5.08,2.03,8.24-3.95,4.33-9.58,8.86-20.19,8.83-32.07.14-3.37-2.68-1.99-4.91-1.96ZM315.84,238.93c-.14,0-.45,0-.93-.07-.38,0-.89-.03-1.48-.1-1.34-.1-3.23-.24-5.46-.41-.38-.03-.76-.07-1.13-.1-1.1-.07-2.34-.17-3.61-.27h-.1c-.24-.03-.51-.03-.76-.07l-.34.38c-.1.07-.21.17-.27.24l-.41.41-.31.31-.03.03c-.31.27-.72.48-1.13.52h-.03l-.45.03-39.18,2.88c.27.21.58.41.89.62,18.92,12.84,39.32,30.8,42.58,33.58,3.88,3.3,5.08,2.03,8.24-3.95,4.33-9.58,8.86-20.19,8.83-32.07.14-3.37-2.68-1.99-4.91-1.96ZM258.26,231.86l38.53-7.07.45-.07c.41-.07.86,0,1.24.21l.38.17,6.94,3.74.93.51c.34.17.72.24,1.13.21,3.78-.34,6.52-.55,7.66-.65,5.05-.48,4.94-2.27,2.88-8.69-3.85-9.79-8.34-20.4-16.86-28.67-2.33-2.44-3.33.52-4.84,2.16-1.51,1.61-30.32,25.58-38.43,38.15ZM297.64,283.26c-1.58-1.55-25.82-31.18-38.22-38.97-.79-.52-1.44-.86-1.99-1.13l-.51,11.71c3.54,20.74,5.08,43.03,5.39,46.91.45,5.05,2.23,4.98,8.65,2.95,9.82-3.74,20.5-8.14,28.85-16.62,2.44-2.3-.52-3.3-2.16-4.84ZM290.02,187.52c3.26-3.91,1.92-5.08-4.09-8.17-9.62-4.22-20.29-8.58-32.18-8.41-3.37-.07-1.99,2.75-1.89,4.98.07,2.2-3.47,40.31-.14,54.6.1.41.21.79.31,1.13.1-.03.24-.03.34-.03.27-.03.55-.07.82-.07.96,0,1.89.21,2.75.62.31-.48.65-1.03,1.03-1.61,12.6-19.09,30.29-39.73,33.03-43.03ZM252.9,291.5l-1.34,1.27c-.55.48-1.34.45-1.85-.1l-1.24-1.34-1.37-1.51-.52-.58c-.24-.24-.34-.58-.34-.93l.03-.76,1.79-39.46c-12.6,18.85-29.91,39.01-32.62,42.27-3.26,3.88-1.96,5.08,4.05,8.21,9.61,4.19,20.29,8.55,32.18,8.41,3.37.07,1.99-2.71,1.89-4.94,0-.76.38-5.39.76-11.81l-1.41,1.27ZM207.26,195.28c1.24,1.17,16.14,18.82,28.64,30.36l14.29,6.52c-.14-.62-.27-1.34-.45-2.13-4.74-22.35-7-49.45-7.42-53.74-.48-5.05-2.27-4.94-8.69-2.85-9.75,3.91-20.36,8.45-28.57,17.03-2.44,2.34.55,3.3,2.2,4.81ZM247.54,245.69c.24-.41.48-.79.65-1.13l.1-2.23c-.27-.34-.55-.72-.76-1.1-.93.1-2.2.41-3.74.76-22.35,4.7-49.41,6.9-53.71,7.31-5.08.48-4.98,2.27-2.88,8.69,3.88,9.75,8.41,20.36,16.96,28.64,2.34,2.4,3.33-.58,4.84-2.23,1.51-1.61,30.84-26.2,38.53-38.7ZM189.72,240.82c2.23-.14,40.38,2.85,54.6-.72.45-.1.86-.21,1.2-.31l-43.27-17.58-.34-.1s-.07-.03-.07-.03c-.14-.07-.27-.17-.38-.27l-.24-.24-3.81-3.78-2.68-2.68c-.86-.82-.34-2.27.86-2.37l3.78-.31,5.63-.45.45-.03h.17c.17,0,.34.03.48.1h.07l.41.21,15.66,7.14c-10.78-8.1-19.4-15.28-21.46-16.93-3.95-3.19-5.12-1.82-8.14,4.22-4.05,9.68-8.24,20.43-7.9,32.31-.03,3.33,2.75,1.89,4.98,1.82ZM348.57,213.28c-7.55-16.86-17.2-28.19-23.69-34.55,2.09-1.2,3.57-3.09,4.12-5.43.86-3.98-.72-9.96-13.32-15.9-10.1-4.74-21.12-6.22-28.74-6.59.86-2.34,1-4.84.24-7.21-.89-2.88-4.46-9.51-18.13-9.51-2.61,0-5.53.24-8.62.72-14.22,2.23-26.78,9.27-34.92,14.9-.41-2.64-1.37-5.12-2.85-7.25-3.12-4.57-8.14-7.07-14.11-7.07-5.32,0-13.87,2.06-24.45,11.85-23.25,21.56-30.73,51.34-20.67,81.86-.03.41-.1.79-.14,1.2-6.52-6.01-15.04-10.89-25.38-10.89-7.93,0-15.9,2.95-23.69,8.83-7.55,5.63-12.09,12.5-12.12,18.3-.03,3.33,1.34,6.28,3.92,8.28,3.37,2.64,8.58,3.06,15.21,3.57,7.38.58,16.59,1.3,23.93,5.49,5.97,3.37,10.65,10.95,16.04,19.75,2.58,4.19,5.22,8.52,8.31,12.84,6.25,8.83,13.7,16.59,21.91,23.04-3.74-1.2-6.87-1.79-9.48-1.79-5.08,0-7.69,2.23-8.96,4.12-2.34,3.37-2.27,8.1.17,14.46,2.99,7.76,10.78,13.84,20.77,18.17.27.07.52.17.76.31.07.03.17.07.24.1.69.31,1.41.58,2.13.86h-.07c-.1,0-.21,0-.31.03,1.65.76,3.5,1.41,5.43,2.03-.17-.17-.38-.34-.58-.52,3.61,1.17,7.35,2.09,11.23,2.85-.1.03-.17.03-.27.07,8.96,1.58,17,1.96,17,1.96,1.85.07,3.71.14,5.53.14,5.53,0,10.89-.41,15.97-1.24,27.95-4.4,48.38-16.17,65.62-38.01.14,1.3.34,2.64.62,4.09,2.75,14.04,15.04,23.83,24.31,23.83,4.53,0,8.31-2.09,10.58-5.91,1.37-2.37,1.68-5.15,1.06-7.73-1.55-5.87-7.25-6.97-13.36-8.31-6.11-1.34-8.58-6.11-8.58-9.58,11.26-.41,22.25-17.92,22.25-17.92,1.82-3.78,3.23-8,4.05-12.57,2.68-14.8,5.08-44.3-8.93-75.68ZM312.31,161.87c15.49,7.31,11.81,12.64,5.91,12.26-5.91-.34-14.7-8.72-23.38-13.5-8.41-4.67-12.16-4.74-12.4-4.74.52-.03,14.7-1.17,29.88,5.98ZM259.84,141.17c23.32-3.64,24.42,6.66,17.79,11.3-6.63,4.6-23.8,1.03-37.57,2.13-11.92.96-16.41,3.57-17.41,4.26,1.79-1.75,15.49-14.29,37.19-17.68ZM266.81,167.3c21.12,4.02,40.31,17.17,51.3,37.6,19.4,35.99,5.97,80.9-30.05,100.31-1.48.79-2.99,1.51-4.5,2.23l-2.03.38c-9.79,4.22-20.53,6.39-31.52,6.08l-.55.1c-2.47-.14-4.95-.41-7.42-.76-.07-.03-.14-.03-.21-.03-.86-.14-1.75-.27-2.61-.45-2.78-.48-5.56-1.13-8.31-1.96-1.65-.48-3.23-1.06-4.77-1.65l-.55-.34c-9.89-3.91-19.02-9.99-26.54-17.96l-1.65-1.13c-16.89-18.58-23.93-45.29-16.21-71.12,11.09-36.98,48.49-58.86,85.61-51.3ZM185.8,155.11c23.69-22.94,37.43-6.18,30.08,10.06-24.93,13.22-42.37,38.63-44.5,68.27l-.1-.24c-10.13-25.82-9.34-54.98,14.53-78.09ZM315.47,315.51c-10.54,16.86-33.96,34.44-62.22,38.91-28.26,4.46-64.52-2.61-72.04-19.61-7.49-17,7.83-11.16,26.2-1.99,18.37,9.2,43.71,13.19,72.32,1.89,28.36-11.19,38.36-34.51,38.49-34.89-.38.41-25.1,26.89-53.43,33.55-28.54,6.76-66.86-8.28-90.11-41.04-9.86-13.94-14.25-28.09-25.89-34.17-13.77-7.25-34.3-5.43-38.15-10.3-2.85-3.61.48-9.24,8.45-15.21,23.83-17.89,43.27,2.34,52.95,19.09,5.94,40.66,40.93,71.87,83.24,71.87,39.01,0,71.84-26.58,81.32-62.63-2.68,24.48-14.18,43.37-21.12,54.53ZM336.1,332.4c3.54.93,6.87.82,9.2,2.47,1.79,1.3,3.06,4.36,1.61,6.8-5.15,8.62-20.81-.86-23.69-15.52-2.75-13.91,3.12-21.63,3.74-22.39-.17.58-1.85,6.56-1.2,13.6.69,7.49,4.02,13.43,10.34,15.04ZM352.38,286.9c-3.37,18.51-17.17,31.49-22.29,25.34-5.15-6.18,14.73-34.51,14.66-69.95-.07-34.41-27.27-63.49-28.85-65.18,1.31,1.06,16.79,14.01,27.75,38.46,11.4,25.51,12.05,52.81,8.72,71.32ZM315.84,238.93c-.14,0-.45,0-.93-.07-.38,0-.89-.03-1.48-.1-1.34-.1-3.23-.24-5.46-.41-.38-.03-.76-.07-1.13-.1-1.1-.07-2.34-.17-3.61-.27h-.1c-.24-.03-.51-.03-.76-.07l-.34.38c-.1.07-.21.17-.27.24l-.41.41-.31.31-.03.03c-.31.27-.72.48-1.13.52h-.03l-.45.03-39.18,2.88c.27.21.58.41.89.62,18.92,12.84,39.32,30.8,42.58,33.58,3.88,3.3,5.08,2.03,8.24-3.95,4.33-9.58,8.86-20.19,8.83-32.07.14-3.37-2.68-1.99-4.91-1.96ZM258.26,231.86l38.53-7.07.45-.07c.41-.07.86,0,1.24.21l.38.17,6.94,3.74.93.51c.34.17.72.24,1.13.21,3.78-.34,6.52-.55,7.66-.65,5.05-.48,4.94-2.27,2.88-8.69-3.85-9.79-8.34-20.4-16.86-28.67-2.33-2.44-3.33.52-4.84,2.16-1.51,1.61-30.32,25.58-38.43,38.15ZM297.64,283.26c-1.58-1.55-25.82-31.18-38.22-38.97-.79-.52-1.44-.86-1.99-1.13l-.51,11.71c3.54,20.74,5.08,43.03,5.39,46.91.45,5.05,2.23,4.98,8.65,2.95,9.82-3.74,20.5-8.14,28.85-16.62,2.44-2.3-.52-3.3-2.16-4.84ZM251.73,230.52c.1.41.21.79.31,1.13.1-.03.24-.03.34-.03.27-.03.55-.07.82-.07.96,0,1.89.21,2.75.62.31-.48.65-1.03,1.03-1.61,12.6-19.09,30.29-39.73,33.03-43.03,3.26-3.91,1.92-5.08-4.09-8.17-9.62-4.22-20.29-8.58-32.18-8.41-3.37-.07-1.99,2.75-1.89,4.98.07,2.2-3.47,40.31-.14,54.6ZM251.56,292.77c-.55.48-1.34.45-1.85-.1l-1.24-1.34-1.37-1.51-.52-.58c-.24-.24-.34-.58-.34-.93l.03-.76,1.79-39.46c-12.6,18.85-29.91,39.01-32.62,42.27-3.26,3.88-1.96,5.08,4.05,8.21,9.61,4.19,20.29,8.55,32.18,8.41,3.37.07,1.99-2.71,1.89-4.94,0-.76.38-5.39.76-11.81l-1.41,1.27-1.34,1.27ZM207.26,195.28c1.24,1.17,16.14,18.82,28.64,30.36l14.29,6.52c-.14-.62-.27-1.34-.45-2.13-4.74-22.35-7-49.45-7.42-53.74-.48-5.05-2.27-4.94-8.69-2.85-9.75,3.91-20.36,8.45-28.57,17.03-2.44,2.34.55,3.3,2.2,4.81ZM247.54,245.69c.24-.41.48-.79.65-1.13l.1-2.23c-.27-.34-.55-.72-.76-1.1-.93.1-2.2.41-3.74.76-22.35,4.7-49.41,6.9-53.71,7.31-5.08.48-4.98,2.27-2.88,8.69,3.88,9.75,8.41,20.36,16.96,28.64,2.34,2.4,3.33-.58,4.84-2.23,1.51-1.61,30.84-26.2,38.53-38.7ZM192.64,206.68c-4.05,9.68-8.24,20.43-7.9,32.31-.03,3.33,2.75,1.89,4.98,1.82,2.23-.14,40.38,2.85,54.6-.72.45-.1.86-.21,1.2-.31l-43.27-17.58-.34-.1s-.07-.03-.07-.03c-.14-.07-.27-.17-.38-.27l-.24-.24-3.81-3.78-2.68-2.68c-.86-.82-.34-2.27.86-2.37l3.78-.31,5.63-.45.45-.03h.17c.17,0,.34.03.48.1h.07l.41.21,15.66,7.14c-10.78-8.1-19.4-15.28-21.46-16.93-3.95-3.19-5.12-1.82-8.14,4.22ZM202.25,222.21l-.34-.1s-.07-.03-.07-.03c-.14-.07-.27-.17-.38-.27l-.24-.24-3.81-3.78-2.68-2.68c-.86-.82-.34-2.27.86-2.37l3.78-.31,5.63-.45.45-.03h.17c.17,0,.34.03.48.1h.07l.41.21,15.66,7.14c-10.78-8.1-19.4-15.28-21.46-16.93-3.95-3.19-5.12-1.82-8.14,4.22-4.05,9.68-8.24,20.43-7.9,32.31-.03,3.33,2.75,1.89,4.98,1.82,2.23-.14,40.38,2.85,54.6-.72.45-.1.86-.21,1.2-.31l-43.27-17.58ZM247.54,241.23c-.93.1-2.2.41-3.74.76-22.35,4.7-49.41,6.9-53.71,7.31-5.08.48-4.98,2.27-2.88,8.69,3.88,9.75,8.41,20.36,16.96,28.64,2.34,2.4,3.33-.58,4.84-2.23,1.51-1.61,30.84-26.2,38.53-38.7.24-.41.48-.79.65-1.13l.1-2.23c-.27-.34-.55-.72-.76-1.1ZM249.74,230.03c-4.74-22.35-7-49.45-7.42-53.74-.48-5.05-2.27-4.94-8.69-2.85-9.75,3.91-20.36,8.45-28.57,17.03-2.44,2.34.55,3.3,2.2,4.81,1.24,1.17,16.14,18.82,28.64,30.36l14.29,6.52c-.14-.62-.27-1.34-.45-2.13ZM254.31,290.23l-1.41,1.27-1.34,1.27c-.55.48-1.34.45-1.85-.1l-1.24-1.34-1.37-1.51-.52-.58c-.24-.24-.34-.58-.34-.93l.03-.76,1.79-39.46c-12.6,18.85-29.91,39.01-32.62,42.27-3.26,3.88-1.96,5.08,4.05,8.21,9.61,4.19,20.29,8.55,32.18,8.41,3.37.07,1.99-2.71,1.89-4.94,0-.76.38-5.39.76-11.81ZM285.93,179.35c-9.62-4.22-20.29-8.58-32.18-8.41-3.37-.07-1.99,2.75-1.89,4.98.07,2.2-3.47,40.31-.14,54.6.1.41.21.79.31,1.13.1-.03.24-.03.34-.03.27-.03.55-.07.82-.07.96,0,1.89.21,2.75.62.31-.48.65-1.03,1.03-1.61,12.6-19.09,30.29-39.73,33.03-43.03,3.26-3.91,1.92-5.08-4.09-8.17ZM297.64,283.26c-1.58-1.55-25.82-31.18-38.22-38.97-.79-.52-1.44-.86-1.99-1.13l-.51,11.71c3.54,20.74,5.08,43.03,5.39,46.91.45,5.05,2.23,4.98,8.65,2.95,9.82-3.74,20.5-8.14,28.85-16.62,2.44-2.3-.52-3.3-2.16-4.84ZM318.38,220.21c-3.85-9.79-8.34-20.4-16.86-28.67-2.33-2.44-3.33.52-4.84,2.16-1.51,1.61-30.32,25.58-38.43,38.15l38.53-7.07.45-.07c.41-.07.86,0,1.24.21l.38.17,6.94,3.74.93.51c.34.17.72.24,1.13.21,3.78-.34,6.52-.55,7.66-.65,5.05-.48,4.94-2.27,2.88-8.69ZM315.84,238.93c-.14,0-.45,0-.93-.07-.38,0-.89-.03-1.48-.1-1.34-.1-3.23-.24-5.46-.41-.38-.03-.76-.07-1.13-.1-1.1-.07-2.34-.17-3.61-.27h-.1c-.24-.03-.51-.03-.76-.07l-.34.38c-.1.07-.21.17-.27.24l-.41.41-.31.31-.03.03c-.31.27-.72.48-1.13.52h-.03l-.45.03-39.18,2.88c.27.21.58.41.89.62,18.92,12.84,39.32,30.8,42.58,33.58,3.88,3.3,5.08,2.03,8.24-3.95,4.33-9.58,8.86-20.19,8.83-32.07.14-3.37-2.68-1.99-4.91-1.96ZM315.84,238.93c-.14,0-.45,0-.93-.07-.38,0-.89-.03-1.48-.1-1.34-.1-3.23-.24-5.46-.41-.38-.03-.76-.07-1.13-.1-1.1-.07-2.34-.17-3.61-.27h-.1c-.24-.03-.51-.03-.76-.07l-.34.38c-.1.07-.21.17-.27.24l-.41.41-.31.31-.03.03-.48.45-.65.07h-.03l-.45.03-39.18,2.88c.27.21.58.41.89.62,18.92,12.84,39.32,30.8,42.58,33.58,3.88,3.3,5.08,2.03,8.24-3.95,4.33-9.58,8.86-20.19,8.83-32.07.14-3.37-2.68-1.99-4.91-1.96ZM318.38,220.21c-3.85-9.79-8.34-20.4-16.86-28.67-2.33-2.44-3.33.52-4.84,2.16-1.51,1.61-30.32,25.58-38.43,38.15l38.53-7.07.45-.07.65-.14.96.52,6.94,3.74.93.51c.34.17.72.24,1.13.21,3.78-.34,6.52-.55,7.66-.65,5.05-.48,4.94-2.27,2.88-8.69ZM297.64,283.26c-1.58-1.55-25.82-31.18-38.22-38.97-.79-.52-1.44-.86-1.99-1.13l-.51,11.71c3.54,20.74,5.08,43.03,5.39,46.91.45,5.05,2.23,4.98,8.65,2.95,9.82-3.74,20.5-8.14,28.85-16.62,2.44-2.3-.52-3.3-2.16-4.84ZM285.93,179.35c-9.62-4.22-20.29-8.58-32.18-8.41-3.37-.07-1.99,2.75-1.89,4.98.07,2.2-3.47,40.31-.14,54.6.1.41.21.79.31,1.13.1-.03.24-.03.34-.03.27-.03.55-.07.82-.07.96,0,1.89.21,2.75.62.31-.48.65-1.03,1.03-1.61,12.6-19.09,30.29-39.73,33.03-43.03,3.26-3.91,1.92-5.08-4.09-8.17ZM254.31,290.23l-1.41,1.27-1.34,1.27c-.55.48-1.34.45-1.85-.1l-1.24-1.34-1.37-1.51-.52-.58-.38-.38.03-.55.03-.76,1.79-39.46c-12.6,18.85-29.91,39.01-32.62,42.27-3.26,3.88-1.96,5.08,4.05,8.21,9.61,4.19,20.29,8.55,32.18,8.41,3.37.07,1.99-2.71,1.89-4.94,0-.76.38-5.39.76-11.81ZM249.74,230.03c-4.74-22.35-7-49.45-7.42-53.74-.48-5.05-2.27-4.94-8.69-2.85-9.75,3.91-20.36,8.45-28.57,17.03-2.44,2.34.55,3.3,2.2,4.81,1.24,1.17,16.14,18.82,28.64,30.36l14.29,6.52c-.14-.62-.27-1.34-.45-2.13ZM247.54,241.23c-.93.1-2.2.41-3.74.76-22.35,4.7-49.41,6.9-53.71,7.31-5.08.48-4.98,2.27-2.88,8.69,3.88,9.75,8.41,20.36,16.96,28.64,2.34,2.4,3.33-.58,4.84-2.23,1.51-1.61,30.84-26.2,38.53-38.7.24-.41.48-.79.65-1.13l.1-2.23c-.27-.34-.55-.72-.76-1.1ZM202.25,222.21l-.34-.1s-.07-.03-.07-.03l-.17-.07-.21-.21-.24-.24-3.81-3.78-2.68-2.68c-.86-.82-.34-2.27.86-2.37l3.78-.31,5.63-.45.45-.03h.17l.21-.03.27.14h.07l.41.21,15.66,7.14c-10.78-8.1-19.4-15.28-21.46-16.93-3.95-3.19-5.12-1.82-8.14,4.22-4.05,9.68-8.24,20.43-7.9,32.31-.03,3.33,2.75,1.89,4.98,1.82,2.23-.14,40.38,2.85,54.6-.72.45-.1.86-.21,1.2-.31l-43.27-17.58ZM202.25,222.21l-.34-.1s-.07-.03-.07-.03l-.17-.07-.21-.21-.24-.24-3.81-3.78-2.68-2.68c-.86-.82-.34-2.27.86-2.37l3.78-.31,5.63-.45.45-.03h.17l.21-.03.27.14h.07l.41.21,15.66,7.14c-10.78-8.1-19.4-15.28-21.46-16.93-3.95-3.19-5.12-1.82-8.14,4.22-4.05,9.68-8.24,20.43-7.9,32.31-.03,3.33,2.75,1.89,4.98,1.82,2.23-.14,40.38,2.85,54.6-.72.45-.1.86-.21,1.2-.31l-43.27-17.58ZM247.54,241.23c-.93.1-2.2.41-3.74.76-22.35,4.7-49.41,6.9-53.71,7.31-5.08.48-4.98,2.27-2.88,8.69,3.88,9.75,8.41,20.36,16.96,28.64,2.34,2.4,3.33-.58,4.84-2.23,1.51-1.61,30.84-26.2,38.53-38.7.24-.41.48-.79.65-1.13l.1-2.23c-.27-.34-.55-.72-.76-1.1ZM249.74,230.03c-4.74-22.35-7-49.45-7.42-53.74-.48-5.05-2.27-4.94-8.69-2.85-9.75,3.91-20.36,8.45-28.57,17.03-2.44,2.34.55,3.3,2.2,4.81,1.24,1.17,16.14,18.82,28.64,30.36l14.29,6.52c-.14-.62-.27-1.34-.45-2.13ZM254.31,290.23l-1.41,1.27-1.34,1.27c-.55.48-1.34.45-1.85-.1l-1.24-1.34-1.37-1.51-.52-.58-.38-.38.03-.55.03-.76,1.79-39.46c-12.6,18.85-29.91,39.01-32.62,42.27-3.26,3.88-1.96,5.08,4.05,8.21,9.61,4.19,20.29,8.55,32.18,8.41,3.37.07,1.99-2.71,1.89-4.94,0-.76.38-5.39.76-11.81ZM285.93,179.35c-9.62-4.22-20.29-8.58-32.18-8.41-3.37-.07-1.99,2.75-1.89,4.98.07,2.2-3.47,40.31-.14,54.6.1.41.21.79.31,1.13.1-.03.24-.03.34-.03.27-.03.55-.07.82-.07.96,0,1.89.21,2.75.62.31-.48.65-1.03,1.03-1.61,12.6-19.09,30.29-39.73,33.03-43.03,3.26-3.91,1.92-5.08-4.09-8.17ZM297.64,283.26c-1.58-1.55-25.82-31.18-38.22-38.97-.79-.52-1.44-.86-1.99-1.13l-.51,11.71c3.54,20.74,5.08,43.03,5.39,46.91.45,5.05,2.23,4.98,8.65,2.95,9.82-3.74,20.5-8.14,28.85-16.62,2.44-2.3-.52-3.3-2.16-4.84ZM318.38,220.21c-3.85-9.79-8.34-20.4-16.86-28.67-2.33-2.44-3.33.52-4.84,2.16-1.51,1.61-30.32,25.58-38.43,38.15l38.53-7.07.45-.07.65-.14.96.52,6.94,3.74.93.51c.34.17.72.24,1.13.21,3.78-.34,6.52-.55,7.66-.65,5.05-.48,4.94-2.27,2.88-8.69ZM315.84,238.93c-.14,0-.45,0-.93-.07-.38,0-.89-.03-1.48-.1-1.34-.1-3.23-.24-5.46-.41-.38-.03-.76-.07-1.13-.1-1.1-.07-2.34-.17-3.61-.27h-.1c-.24-.03-.51-.03-.76-.07l-.34.38c-.1.07-.21.17-.27.24l-.41.41-.31.31-.03.03-.48.45-.65.07h-.03l-.45.03-39.18,2.88c.27.21.58.41.89.62,18.92,12.84,39.32,30.8,42.58,33.58,3.88,3.3,5.08,2.03,8.24-3.95,4.33-9.58,8.86-20.19,8.83-32.07.14-3.37-2.68-1.99-4.91-1.96ZM315.84,238.93c-.14,0-.45,0-.93-.07-.38,0-.89-.03-1.48-.1-1.34-.1-3.23-.24-5.46-.41-.38-.03-.76-.07-1.13-.1-1.1-.07-2.34-.17-3.61-.27h-.1c-.24-.03-.51-.03-.76-.07l-.34.38c-.1.07-.21.17-.27.24l-.41.41-.31.31-.03.03-.48.45-.65.07h-.03l-.45.03-39.18,2.88c.27.21.58.41.89.62,18.92,12.84,39.32,30.8,42.58,33.58,3.88,3.3,5.08,2.03,8.24-3.95,4.33-9.58,8.86-20.19,8.83-32.07.14-3.37-2.68-1.99-4.91-1.96ZM318.38,220.21c-3.85-9.79-8.34-20.4-16.86-28.67-2.33-2.44-3.33.52-4.84,2.16-1.51,1.61-30.32,25.58-38.43,38.15l38.53-7.07.45-.07.65-.14.96.52,6.94,3.74.93.51c.34.17.72.24,1.13.21,3.78-.34,6.52-.55,7.66-.65,5.05-.48,4.94-2.27,2.88-8.69ZM297.64,283.26c-1.58-1.55-25.82-31.18-38.22-38.97-.79-.52-1.44-.86-1.99-1.13l-.51,11.71c3.54,20.74,5.08,43.03,5.39,46.91.45,5.05,2.23,4.98,8.65,2.95,9.82-3.74,20.5-8.14,28.85-16.62,2.44-2.3-.52-3.3-2.16-4.84ZM285.93,179.35c-9.62-4.22-20.29-8.58-32.18-8.41-3.37-.07-1.99,2.75-1.89,4.98.07,2.2-3.47,40.31-.14,54.6.1.41.21.79.31,1.13.1-.03.24-.03.34-.03.27-.03.55-.07.82-.07.96,0,1.89.21,2.75.62.31-.48.65-1.03,1.03-1.61,12.6-19.09,30.29-39.73,33.03-43.03,3.26-3.91,1.92-5.08-4.09-8.17ZM254.31,290.23l-1.41,1.27-1.34,1.27c-.55.48-1.34.45-1.85-.1l-1.24-1.34-1.37-1.51-.52-.58-.38-.38.03-.55.03-.76,1.79-39.46c-12.6,18.85-29.91,39.01-32.62,42.27-3.26,3.88-1.96,5.08,4.05,8.21,9.61,4.19,20.29,8.55,32.18,8.41,3.37.07,1.99-2.71,1.89-4.94,0-.76.38-5.39.76-11.81ZM249.74,230.03c-4.74-22.35-7-49.45-7.42-53.74-.48-5.05-2.27-4.94-8.69-2.85-9.75,3.91-20.36,8.45-28.57,17.03-2.44,2.34.55,3.3,2.2,4.81,1.24,1.17,16.14,18.82,28.64,30.36l14.29,6.52c-.14-.62-.27-1.34-.45-2.13ZM247.54,241.23c-.93.1-2.2.41-3.74.76-22.35,4.7-49.41,6.9-53.71,7.31-5.08.48-4.98,2.27-2.88,8.69,3.88,9.75,8.41,20.36,16.96,28.64,2.34,2.4,3.33-.58,4.84-2.23,1.51-1.61,30.84-26.2,38.53-38.7.24-.41.48-.79.65-1.13l.1-2.23c-.27-.34-.55-.72-.76-1.1ZM202.25,222.21l-.34-.1s-.07-.03-.07-.03l-.17-.07-.21-.21-.24-.24-3.81-3.78-2.68-2.68c-.86-.82-.34-2.27.86-2.37l3.78-.31,5.63-.45.45-.03h.17l.21-.03.27.14h.07l.41.21,15.66,7.14c-10.78-8.1-19.4-15.28-21.46-16.93-3.95-3.19-5.12-1.82-8.14,4.22-4.05,9.68-8.24,20.43-7.9,32.31-.03,3.33,2.75,1.89,4.98,1.82,2.23-.14,40.38,2.85,54.6-.72.45-.1.86-.21,1.2-.31l-43.27-17.58ZM202.25,222.21l-.34-.1s-.07-.03-.07-.03c-.14-.07-.27-.17-.38-.27l-.24-.24-3.81-3.78-2.68-2.68c-.86-.82-.34-2.27.86-2.37l3.78-.31,5.63-.45.45-.03h.17c.17,0,.34.03.48.1h.07l.41.21,15.66,7.14c-10.78-8.1-19.4-15.28-21.46-16.93-3.95-3.19-5.12-1.82-8.14,4.22-4.05,9.68-8.24,20.43-7.9,32.31-.03,3.33,2.75,1.89,4.98,1.82,2.23-.14,40.38,2.85,54.6-.72.45-.1.86-.21,1.2-.31l-43.27-17.58ZM247.54,241.23c-.93.1-2.2.41-3.74.76-22.35,4.7-49.41,6.9-53.71,7.31-5.08.48-4.98,2.27-2.88,8.69,3.88,9.75,8.41,20.36,16.96,28.64,2.34,2.4,3.33-.58,4.84-2.23,1.51-1.61,30.84-26.2,38.53-38.7.24-.41.48-.79.65-1.13l.1-2.23c-.27-.34-.55-.72-.76-1.1ZM249.74,230.03c-4.74-22.35-7-49.45-7.42-53.74-.48-5.05-2.27-4.94-8.69-2.85-9.75,3.91-20.36,8.45-28.57,17.03-2.44,2.34.55,3.3,2.2,4.81,1.24,1.17,16.14,18.82,28.64,30.36l14.29,6.52c-.14-.62-.27-1.34-.45-2.13ZM254.31,290.23l-1.41,1.27-1.34,1.27c-.55.48-1.34.45-1.85-.1l-1.24-1.34-1.37-1.51-.52-.58-.38-.38.03-.55.03-.76,1.79-39.46c-12.6,18.85-29.91,39.01-32.62,42.27-3.26,3.88-1.96,5.08,4.05,8.21,9.61,4.19,20.29,8.55,32.18,8.41,3.37.07,1.99-2.71,1.89-4.94,0-.76.38-5.39.76-11.81ZM285.93,179.35c-9.62-4.22-20.29-8.58-32.18-8.41-3.37-.07-1.99,2.75-1.89,4.98.07,2.2-3.47,40.31-.14,54.6.1.41.21.79.31,1.13.1-.03.24-.03.34-.03.27-.03.55-.07.82-.07.96,0,1.89.21,2.75.62.31-.48.65-1.03,1.03-1.61,12.6-19.09,30.29-39.73,33.03-43.03,3.26-3.91,1.92-5.08-4.09-8.17ZM297.64,283.26c-1.58-1.55-25.82-31.18-38.22-38.97-.79-.52-1.44-.86-1.99-1.13l-.51,11.71c3.54,20.74,5.08,43.03,5.39,46.91.45,5.05,2.23,4.98,8.65,2.95,9.82-3.74,20.5-8.14,28.85-16.62,2.44-2.3-.52-3.3-2.16-4.84ZM318.38,220.21c-3.85-9.79-8.34-20.4-16.86-28.67-2.33-2.44-3.33.52-4.84,2.16-1.51,1.61-30.32,25.58-38.43,38.15l38.53-7.07.45-.07.65-.14.96.52,6.94,3.74.93.51c.34.17.72.24,1.13.21,3.78-.34,6.52-.55,7.66-.65,5.05-.48,4.94-2.27,2.88-8.69ZM315.84,238.93c-.14,0-.45,0-.93-.07-.38,0-.89-.03-1.48-.1-1.34-.1-3.23-.24-5.46-.41-.38-.03-.76-.07-1.13-.1-1.1-.07-2.34-.17-3.61-.27h-.1c-.24-.03-.51-.03-.76-.07l-.34.38c-.1.07-.21.17-.27.24l-.41.41-.31.31-.03.03-.48.45-.65.07h-.03l-.45.03-39.18,2.88c.27.21.58.41.89.62,18.92,12.84,39.32,30.8,42.58,33.58,3.88,3.3,5.08,2.03,8.24-3.95,4.33-9.58,8.86-20.19,8.83-32.07.14-3.37-2.68-1.99-4.91-1.96ZM318.38,220.21c-3.85-9.79-8.34-20.4-16.86-28.67-2.33-2.44-3.33.52-4.84,2.16-1.51,1.61-30.32,25.58-38.43,38.15l38.53-7.07.45-.07c.41-.07.86,0,1.24.21l.38.17,6.94,3.74.93.51c.34.17.72.24,1.13.21,3.78-.34,6.52-.55,7.66-.65,5.05-.48,4.94-2.27,2.88-8.69ZM285.93,179.35c-9.62-4.22-20.29-8.58-32.18-8.41-3.37-.07-1.99,2.75-1.89,4.98.07,2.2-3.47,40.31-.14,54.6.1.41.21.79.31,1.13.1-.03.24-.03.34-.03.27-.03.55-.07.82-.07.96,0,1.89.21,2.75.62.31-.48.65-1.03,1.03-1.61,12.6-19.09,30.29-39.73,33.03-43.03,3.26-3.91,1.92-5.08-4.09-8.17ZM249.74,230.03c-4.74-22.35-7-49.45-7.42-53.74-.48-5.05-2.27-4.94-8.69-2.85-9.75,3.91-20.36,8.45-28.57,17.03-2.44,2.34.55,3.3,2.2,4.81,1.24,1.17,16.14,18.82,28.64,30.36l14.29,6.52c-.14-.62-.27-1.34-.45-2.13ZM247.54,241.23c-.93.1-2.2.41-3.74.76-22.35,4.7-49.41,6.9-53.71,7.31-5.08.48-4.98,2.27-2.88,8.69,3.88,9.75,8.41,20.36,16.96,28.64,2.34,2.4,3.33-.58,4.84-2.23,1.51-1.61,30.84-26.2,38.53-38.7.24-.41.48-.79.65-1.13l.1-2.23c-.27-.34-.55-.72-.76-1.1ZM254.31,290.23l-1.41,1.27-1.34,1.27c-.55.48-1.34.45-1.85-.1l-1.24-1.34-1.37-1.51-.52-.58c-.24-.24-.34-.58-.34-.93l.03-.76,1.79-39.46c-12.6,18.85-29.91,39.01-32.62,42.27-3.26,3.88-1.96,5.08,4.05,8.21,9.61,4.19,20.29,8.55,32.18,8.41,3.37.07,1.99-2.71,1.89-4.94,0-.76.38-5.39.76-11.81ZM315.84,238.93c-.14,0-.45,0-.93-.07-.38,0-.89-.03-1.48-.1-1.34-.1-3.23-.24-5.46-.41-.38-.03-.76-.07-1.13-.1-1.1-.07-2.34-.17-3.61-.27h-.1c-.38,0-.76.1-1.1.31-.1.07-.21.17-.27.24l-.41.41-.31.31-.03.03c-.31.27-.72.48-1.13.52h-.03l-.45.03-39.18,2.88c.27.21.58.41.89.62,18.92,12.84,39.32,30.8,42.58,33.58,3.88,3.3,5.08,2.03,8.24-3.95,4.33-9.58,8.86-20.19,8.83-32.07.14-3.37-2.68-1.99-4.91-1.96ZM297.64,283.26c-1.58-1.55-25.82-31.18-38.22-38.97-.79-.52-1.44-.86-1.99-1.13l-.51,11.71c3.54,20.74,5.08,43.03,5.39,46.91.45,5.05,2.23,4.98,8.65,2.95,9.82-3.74,20.5-8.14,28.85-16.62,2.44-2.3-.52-3.3-2.16-4.84Z"/>
      <path class="cls-2" d="M304.28,231.59l-5.13,5.1-43.14,3.19c-.39.6-.96,1.05-1.62,1.31l-2.09,46.63-1.51,1.38-1.38-1.51,2.09-46.74c-.86-.51-1.48-1.39-1.63-2.44-.07-.13-.11-.27-.13-.41l-46.32-18.79-3.79-3.76,5.64-.47,45.43,20.75s.07-.1.12-.15c.54-.55,1.23-.88,1.98-.98.14-.02.28-.03.42-.03.84,0,1.64.32,2.26.89l41.9-7.7,6.92,3.72Z"/>
    </g>
    <g>
      <g>
        <path class="cls-2" d="M178.72,113.83l-3.86,2.34c-.44.26-.84.37-1.23.33-.39-.04-.75-.18-1.08-.41l-3.54-2.98-8.17,4.95,1.01,4.52c.06.34.02.71-.13,1.1-.15.39-.42.71-.84.96l-3.89,2.37-4.72-26.54,5.11-3.1,21.36,16.45ZM165.81,110.42l-5.56-4.68c-.38-.28-.8-.63-1.27-1.04-.47-.4-.98-.85-1.5-1.34.22.69.4,1.34.54,1.95.15.61.25,1.15.33,1.61l1.57,7.06,5.89-3.57Z"/>
        <path class="cls-2" d="M185.12,89.61c-.05.32-.13.58-.25.78-.12.2-.31.36-.59.48-.25.11-.54.14-.89.11-.34-.03-.73-.07-1.17-.11s-.91-.04-1.44,0c-.52.04-1.07.18-1.65.43-1,.43-1.66.97-1.97,1.61-.31.64-.3,1.32,0,2.05.2.47.51.79.94.97.42.18.93.28,1.5.29.58.02,1.21-.02,1.91-.09.7-.08,1.42-.15,2.16-.19.74-.05,1.49-.05,2.24-.01.74.04,1.47.2,2.15.47.68.27,1.32.68,1.91,1.24.59.55,1.09,1.31,1.5,2.28.45,1.07.7,2.15.73,3.23.03,1.09-.16,2.13-.57,3.12s-1.04,1.91-1.9,2.75c-.87.84-1.95,1.54-3.26,2.1-.71.31-1.48.55-2.29.72-.81.17-1.62.27-2.43.3-.81.03-1.61,0-2.37-.12-.78-.11-1.48-.29-2.13-.55l.51-3.19c.05-.23.15-.45.3-.66.16-.21.35-.37.6-.47.31-.14.68-.17,1.08-.11.41.06.87.13,1.38.19.51.07,1.07.09,1.69.07.61-.03,1.28-.19,2-.5.98-.42,1.64-.95,1.99-1.61.36-.66.33-1.46-.06-2.39-.23-.54-.57-.91-1.01-1.12-.44-.21-.94-.32-1.52-.34-.58-.02-1.21.02-1.9.12s-1.4.17-2.13.24c-.73.07-1.47.09-2.22.05-.74-.04-1.46-.2-2.15-.48s-1.34-.73-1.95-1.34c-.61-.61-1.15-1.45-1.61-2.53-.37-.87-.56-1.79-.56-2.76,0-.98.19-1.93.59-2.86.4-.94,1.01-1.81,1.83-2.61s1.86-1.48,3.13-2.03c.71-.3,1.42-.54,2.14-.72.72-.18,1.43-.28,2.13-.32.69-.05,1.37-.02,2.02.05.65.07,1.27.22,1.84.42l-.27,3.06Z"/>
        <path class="cls-2" d="M197.53,84.89l1.61,5.64,7.6-2.17,1.18,4.15-7.6,2.17,1.64,5.76,9.92-2.83,1.23,4.31-15.56,4.44-6.9-24.17,15.56-4.44,1.23,4.32-9.92,2.83Z"/>
        <path class="cls-2" d="M218.87,80.04l.88,5.8,7.81-1.18.64,4.26-7.81,1.18.9,5.92,10.21-1.54.67,4.43-16,2.42-3.76-24.86,16-2.42.67,4.43-10.2,1.54Z"/>
        <path class="cls-2" d="M255.91,98.38l-5.28.07c-.98,0-1.68-.35-2.12-1.08l-4.27-7.24c-.2-.31-.42-.53-.67-.67s-.59-.21-1.04-.2l-1.48.02.12,9.3-5.83.08-.33-25.14,8.18-.11c1.82-.02,3.37.15,4.66.5,1.29.35,2.34.86,3.16,1.52.82.65,1.42,1.44,1.8,2.34.38.9.58,1.89.59,2.96.01.82-.08,1.59-.3,2.32-.21.73-.52,1.4-.94,2.02-.42.62-.94,1.18-1.56,1.67-.62.49-1.34.9-2.15,1.22.38.19.74.43,1.08.72.34.29.64.63.91,1.03l5.46,8.68ZM243.35,85.22c.79,0,1.47-.12,2.02-.33.55-.21,1.01-.49,1.36-.85.35-.36.61-.78.76-1.26.16-.47.22-.99.22-1.54-.02-1.1-.39-1.96-1.11-2.57-.73-.61-1.84-.91-3.35-.89l-2.34.03.09,7.45,2.35-.03Z"/>
        <path class="cls-2" d="M285.82,82.31l-6.97-1.22-3.53,20.21-5.74-1,3.53-20.21-6.97-1.22.79-4.55,19.68,3.44-.79,4.55Z"/>
        <path class="cls-2" d="M290.56,105.08l-5.65-1.6,6.85-24.19,5.64,1.6-6.84,24.19Z"/>
        <path class="cls-2" d="M330.99,94.3l-10.18,22.98-4.7-2.09,5.86-13.21c.13-.31.28-.64.46-.98.18-.35.36-.7.57-1.05l-11.34,9.11c-.35.28-.73.45-1.13.49-.41.05-.82-.02-1.22-.2l-.73-.32c-.41-.18-.73-.44-.97-.77-.24-.33-.37-.72-.39-1.18l-.86-14.55c-.13.39-.27.78-.41,1.15s-.28.71-.41,1.01l-5.86,13.22-4.7-2.08,10.18-22.99,4.07,1.8c.23.1.43.2.6.28s.31.19.42.3.2.25.26.41c.06.16.1.36.12.61l.75,14.28c.03.49.05,1,.05,1.51,0,.52,0,1.04-.03,1.57.39-.38.78-.75,1.16-1.11s.79-.68,1.18-.98l11.04-9c.19-.15.37-.26.53-.32.16-.06.31-.09.48-.08.16,0,.33.04.51.11.18.06.38.15.61.25l4.07,1.8Z"/>
        <path class="cls-2" d="M340.57,105.88l-3.25,4.88,6.58,4.38-2.39,3.59-6.58-4.38-3.32,4.98,8.59,5.72-2.49,3.73-13.46-8.98,13.94-20.92,13.47,8.97-2.49,3.73-8.59-5.72Z"/>
      </g>
      <circle class="cls-2" cx="368.03" cy="131.83" r="5.28"/>
      <circle class="cls-2" cx="134.5" cy="131.83" r="5.28"/>
    </g>
    <circle class="cls-2" cx="364.13" cy="372.36" r="5.28"/>
    <circle class="cls-2" cx="136.61" cy="372.36" r="5.28"/>
    <g>
      <g>
        <path class="cls-2" d="M194.02,410.48c-.24-.22-.55-.42-.91-.56-.37-.14-.74-.18-1.08-.16-.34.02-.69.1-1,.25s-.6.35-.83.63c-.26.24-.45.54-.59.91-.1.37-.18.71-.16,1.08.02.34.13.69.28,1,.14.31.35.6.59.83.27.26.58.45.91.56.37.14.74.21,1.08.19.34-.05.69-.13,1-.28.32-.15.6-.35.86-.59.23-.27.42-.58.56-.94.13-.34.18-.71.16-1.05-.02-.37-.1-.69-.25-1-.18-.32-.35-.6-.62-.86Z"/>
        <path class="cls-2" d="M200,412.65c-.27-.26-.58-.45-.91-.56-.37-.14-.74-.21-1.08-.16-.34.02-.69.1-1,.25-.31.15-.6.35-.83.59-.26.27-.45.58-.59.94-.1.34-.18.71-.16,1.05.02.37.13.69.28,1,.14.35.35.6.59.86.27.26.58.42.91.56.37.14.74.18,1.08.16.37-.02.69-.1,1-.25.32-.15.6-.35.86-.63.22-.24.42-.55.56-.91.14-.37.18-.71.16-1.08-.02-.34-.1-.69-.25-1-.14-.31-.35-.6-.63-.83Z"/>
        <path class="cls-2" d="M225.75,391.54c.21.29.45.51.75.71.3.2.64.33,1.01.4.37.07.74.05,1.09-.03.34-.08.66-.23.94-.44s.51-.45.71-.75c.19-.27.33-.61.4-.98.07-.4.05-.74-.03-1.09-.08-.34-.23-.66-.44-.94-.18-.28-.45-.54-.72-.74-.3-.2-.64-.33-1.01-.37-.37-.07-.74-.09-1.09.03-.34.05-.66.2-.94.41-.29.21-.54.45-.74.75-.2.3-.3.64-.37,1.01-.07.37-.05.74.03,1.09.08.34.23.66.4.94Z"/>
        <path class="cls-2" d="M236.45,389.51c-.18-.28-.45-.54-.72-.74-.3-.2-.64-.33-1.01-.37-.37-.07-.74-.05-1.09.03-.34.08-.66.2-.94.41s-.54.45-.74.75-.3.64-.37,1.01c-.07.37-.05.74.03,1.09.08.34.23.66.41.94.21.29.45.51.75.71.3.2.64.33,1.01.4.37.07.74.05,1.09-.03.34-.08.66-.23.94-.44.28-.18.51-.45.7-.72.2-.3.33-.64.4-1.01.07-.4.05-.74-.03-1.09s-.23-.66-.44-.94Z"/>
        <path class="cls-2" d="M224.46,410.36l-5.34-.91c-.15-.04-.28-.04-.4-.04-.18-.1-.43-.17-.71-.24l-1.02-.28c-.4-.11-.77-.24-1.04-.44-.27-.19-.48-.45-.6-.76-.15-.28-.2-.69-.18-1.15s.09-1.05.3-1.73l5.66-21.51-5.32-1.41-5.97,22.62c-.28,1.02-.4,1.97-.37,2.87.03.93.23,1.74.58,2.47.38.73.92,1.36,1.65,1.91.73.55,1.68.95,2.82,1.27l2.31.6c.21.07.43.11.62.14,0,0,.03.03.06.03.21.1.49.14.83.21l10.77,1.88,2.98-17.13-5.43-.94-2.19,12.53Z"/>
        <path class="cls-2" d="M281.16,419.71c-.3-.2-.61-.36-.95-.43-.34-.1-.68-.15-1.08-.1-.37.05-.72.16-1,.34-.32.21-.57.42-.77.69-.23.3-.39.61-.46.95-.1.34-.15.71-.1,1.08.05.37.16.72.37,1,.18.32.42.57.69.8.27.19.58.36.92.46.34.1.71.12,1.08.06.37-.05.72-.16,1-.34.32-.21.57-.42.8-.72.19-.27.36-.58.46-.92.1-.34.11-.68.06-1.08-.05-.37-.16-.72-.34-1-.21-.32-.42-.57-.69-.8Z"/>
        <path class="cls-2" d="M274.84,420.57c-.27-.23-.58-.39-.92-.46-.34-.1-.71-.12-1.08-.06-.37.05-.72.16-1.03.34-.28.18-.54.42-.77.69-.19.27-.36.58-.46.92-.1.34-.12.71-.06,1.08.05.37.16.72.34,1.03.18.28.42.54.69.77.27.23.58.36.95.46.34.1.68.11,1.05.06.4-.05.72-.16,1.03-.34.32-.18.57-.42.77-.69.23-.27.39-.58.46-.92.1-.37.15-.71.1-1.08-.05-.4-.16-.72-.37-1.04-.18-.32-.42-.57-.69-.77Z"/>
        <path class="cls-2" d="M348.35,385.25l-5.14,3.14c-.6.39-1.22.63-1.87.71-.62.11-1.24.1-1.83-.03-.62-.2-1.17-.45-1.69-.83-.52-.38-.92-.88-1.31-1.51-.42-.66-.69-1.28-.71-1.87-.05-.56-.01-1.09.21-1.58.16-.46.42-.89.76-1.26.32-.34.69-.61,1.1-.85.34-.24.72-.42,1.13-.63.41-.18.78-.3,1.19-.45.37-.15.75-.27,1.09-.39.34-.09.62-.18.84-.23l-2.04-4.41c-.28.06-.65.14-1.06.29-.44.18-.87.36-1.31.54-.44.18-.84.39-1.25.6-.41.21-.78.42-1.03.6-1.19.69-2.1,1.58-2.87,2.59-.7,1.04-1.21,2.12-1.45,3.29-.27,1.14-.29,2.32-.09,3.53.17,1.21.61,2.34,1.28,3.4.15.25.36.53.61.85.21.28.49.57.76.85.27.28.55.57.86.82.31.28.61.57.89.76,0,0-.03.03-.09.06-.03.03-.06.03-.09.06-.06.06-.16.12-.25.18l-.44.05-.03.03c-2.37,1.02-8.78,3.8-10.34,4.58l-1.07-3.12c-.5-1.47-1.16-2.78-1.95-3.91-.82-1.16-1.7-2.07-2.78-2.74-1.07-.7-2.28-1.09-3.61-1.24-1.3-.15-2.76.08-4.32.61-1.34.44-2.53,1.11-3.6,1.96-1.01.85-1.95,1.8-2.68,2.87-.79,1.07-1.43,2.21-1.98,3.44-.52,1.23-.94,2.5-1.3,3.73-.3,1.24-.57,2.41-.71,3.59-.17,1.18-.25,2.23-.3,3.19,0,0-.03,0-.06.03-.72.21-1.53.41-2.4.52-.9.17-1.8.13-2.67-.04-.09-.37-.21-.72-.32-1.09l-2.01-5.83-5.21,1.78,1.78,5.15c.21.56.29,1.03.35,1.43.02.43-.01.78-.11,1.05v.03c-3.67.75-7.74,1.21-11.43.87,0-.25-.02-.47-.05-.71.04-.25,0-.5-.05-.78l-1.35-10.29-5.47.75,1.27,9.54c.05.59.08,1.09.04,1.49-.04.4-.14.74-.29.99-.22.28-.44.46-.75.61-.31.15-.72.27-1.18.29l-2.36.33c-.25.03-.44.09-.59.15-.18-.03-.37-.04-.59-.04l-4.25.15-.38-12.75-5.52.16.44,14.62c.01.99-.03,1.86-.14,2.6-.17.74-.39,1.42-.81,1.97-.41.55-.98,1.01-1.73,1.4-.75.42-1.72.72-2.99,1.04l.88,4.67c1.56-.28,2.96-.7,4.08-1.14,1.19-.51,2.16-1.08,3.01-1.81.82-.7,1.45-1.56,1.97-2.57.48-1.02.81-2.16,1.02-3.52l4.56-.14c.34-.03.62-.05.81-.08l.03-.03h.06c.22,0,.47-.02.78-.02l4.23-.58c1.03-.17,1.9-.43,2.62-.83.69-.42,1.22-.91,1.64-1.52.83.45,1.76.71,2.81.91.46.07.96.11,1.52.15,0,0,2.02,0,4.5-.21,3.33-.38,7.56-1.24,8.9-3.45.06-.06.1-.15.13-.25.1-.22.16-.4.23-.59,1.14.42,2.41.57,3.84.43.87-.14,1.74-.28,2.61-.48,11.36-2.26,23.67-7.62,33.11-12.42,5.32-2.7,9.76-5.21,12.68-6.96,1-.6,1.85-1.12,2.51-1.51l.94-.57c.19-.15.31-.21.31-.21l-2.42-3.95ZM304.92,404.79c.02-1.36.14-2.76.47-4.12.3-1.33.69-2.59,1.24-3.73.51-1.08,1.15-2.06,1.88-2.88.79-.79,1.6-1.37,2.48-1.7.65-.18,1.31-.32,1.96-.31.68.04,1.3.21,1.91.56.61.35,1.16.92,1.71,1.67.55.72,1.03,1.72,1.47,3l.92,2.65-14.04,4.86Z"/>
      </g>
      <path class="cls-2" d="M201.31,390.82l-4.32,11.99c-2.63-.57-4.72-1.29-6.32-2.06-2.34-1.03-3.72-2.14-4.42-2.77-.09-.09-.18-.19-.24-.25-.21-.22-.3-.35-.3-.35.69-.64,1.23-1.44,1.68-2.3.32-.52.55-1.11.74-1.79.2-.68.33-1.42.38-2.16.07-.74.02-1.52-.12-2.3-.11-.81-.38-1.56-.77-2.34-.33-.72-.84-1.44-1.49-2.1-.61-.69-1.41-1.26-2.39-1.78-.4-.25-.92-.45-1.48-.61-.59-.16-1.17-.3-1.85-.34-.68-.04-1.43,0-2.27.15-.81.14-1.68.41-2.59.83-.91.39-1.85.99-2.88,1.69-1,.73-2.11,1.64-3.18,2.77-.5-.04-1.05-.08-1.67-.09s-1.24.04-1.89.09c-.65.08-1.34.26-2.02.46-.72.24-1.41.57-2.06.99-.69.45-1.32,1.03-2.01,1.7-.6.73-1.21,1.59-1.78,2.61-.32.65-.71,1.45-1.03,2.43-.39,1.02-.72,2.1-1.05,3.27-.33,1.17-.63,2.38-.9,3.58-.3,1.24-.51,2.41-.68,3.49l5.32.99c.14-1.18.32-2.29.52-3.4.27-1.08.5-2.13.79-3.09.26-.99.59-1.88.91-2.68.29-.83.65-1.54,1-2.19.48-.92,1.05-1.66,1.59-2.11.57-.52,1.16-.85,1.75-1.03.62-.18,1.21-.26,1.8-.22.59.07,1.14.2,1.61.37.21.47.48.97.81,1.53.3.56.7,1.1,1.15,1.63.49.53.97,1.1,1.59,1.61.61.51,1.26.95,1.99,1.37,1.35.7,2.62,1.16,3.83,1.27,1.21.11,2.33.04,3.32-.29.09.25.18.5.33.72.06.16.15.28.24.44,1.21,1.97,3.79,3.47,6.25,4.54h.03c2.52,1.1,4.93,1.69,5.49,1.83.09.03.12.03.12.03l5.77,2.08,5.91-16.34-5.21-1.88ZM183.34,391.33c-.1.56-.27,1.05-.52,1.45-.38.74-.76,1.26-1.2,1.59-.44.36-.91.54-1.37.6-.5.08-1.02.01-1.58-.18-.56-.16-1.08-.42-1.69-.74-.43-.22-.83-.51-1.26-.83-.43-.32-.83-.66-1.13-1.04-.37-.38-.67-.72-.91-1.04-.27-.35-.42-.66-.51-.91.63-.7,1.26-1.38,1.95-1.98.75-.61,1.44-1.12,2.16-1.48.75-.39,1.44-.63,2.15-.71.75-.08,1.4.02,2.01.41.65.32,1.1.76,1.41,1.29.3.56.48,1.12.56,1.78.08.59.04,1.18-.06,1.8Z"/>
    </g>
  </g>
  <g class="cls-3">
    <rect class="cls-2" x="218.63" y="413.35" width="92.51" height="251.74" rx="7.15" ry="7.15" transform="translate(458.87 -29.37) rotate(45)"/>
  </g>
</svg>