<?xml version="1.0" encoding="UTF-8"?>
<svg id="Layer_1" data-name="Layer 1" xmlns="http://www.w3.org/2000/svg" viewBox="0 0 500 500">
  <defs>
    <style>
      .cls-1 {
        fill: #d5b883;
        fill-rule: evenodd;
      }
    </style>
  </defs>
  <path class="cls-1" d="M331.92,93.69c-32.69,15.9-51.41,27-61.71,39.9l-5.44,8.49c-6.48,12.92-7.72,29.61-7.96,55.1l-.05,19.81c8.47-10.53,20.82-19.62,39.19-29.85,34.03-21.68,35.88-40.46,35.97-93.45M231.4,142.11l-5.47-8.54c-10.31-12.89-29.03-23.98-61.7-39.87.09,52.99,1.94,71.77,35.97,93.44,18.37,10.24,30.72,19.33,39.19,29.86l-.05-19.81c-.24-25.47-1.48-42.15-7.95-55.07ZM223.99,226c-7.63-7.98-17.49-14.76-28.62-21.44l-4.39-2.7c-7.66-4.24-16.52-8.74-26.75-13.72.09,55.03,2.09,73.17,40.05,95.97,12.23,7.34,23.22,14.96,32.22,24.37l2.89,3.16-.05-20.01c-.29-30.82-2.03-48.76-12.75-62.75l-2.6-2.87ZM269.56,228.87c-10.72,13.99-12.46,31.94-12.75,62.75l-.05,20.01,2.89-3.16v-.03c8.94-9.34,19.94-16.97,32.22-24.33,37.97-22.8,39.97-40.93,40.05-95.97-10.22,4.97-19.08,9.48-26.75,13.72l-4.4,2.7c-11.08,6.65-20.92,13.43-28.63,21.46l-2.59,2.85ZM255.91,123.62c20-32.65,19.42-46.07-7.84-92.58-27.25,46.51-27.83,59.93-7.83,92.59,2.62,3.39,4.84,6.88,6.69,10.55l1.14,1.75,1.13-1.74c1.86-3.67,4.07-7.16,6.7-10.56Z"/>
  <g>
    <path d="M110.14,449.72c-1.62,0-2.89-.51-3.79-1.52-.9-1.01-1.36-2.39-1.38-4.13,0-.89.14-1.74.41-2.55.28-.81.66-1.54,1.17-2.18.5-.64,1.1-1.15,1.78-1.52.69-.37,1.44-.55,2.26-.55s1.51.18,2.16.55c.65.37,1.21.87,1.68,1.51.47.64.83,1.35,1.09,2.16.26.8.39,1.63.39,2.48-.02,1.34-.27,2.43-.75,3.29-.49.85-1.12,1.48-1.89,1.87-.78.39-1.63.59-2.55.59h-.58ZM108.98,435.22c-.1.1-.24.15-.41.16-.18,0-.33-.05-.46-.19l-1.4-1.4c-.1-.12-.16-.26-.18-.43-.02-.17.04-.32.18-.45l1.4-1.4c.13-.13.28-.2.45-.19.17,0,.31.07.43.19l1.4,1.4c.13.13.2.29.21.46,0,.18-.05.32-.19.44l-1.43,1.4ZM110.26,445.11h.48c.54,0,.96-.11,1.27-.34.31-.23.46-.58.46-1.07,0-.59-.18-1.08-.54-1.49-.36-.41-.83-.61-1.42-.61-.4,0-.75.1-1.05.31-.3.21-.53.47-.69.78-.16.31-.24.64-.24.99,0,.49.16.84.48,1.08.32.23.74.35,1.25.35ZM112.92,435.22c-.13.13-.28.19-.45.18-.17-.02-.31-.08-.43-.2l-1.43-1.4c-.12-.12-.18-.26-.18-.44s.06-.32.18-.44l1.43-1.4c.12-.12.25-.18.41-.19.16,0,.3.05.44.19l1.4,1.4c.13.13.2.28.21.45,0,.17-.05.32-.19.45l-1.4,1.4Z"/>
    <path d="M123.18,449.82c-1.87,0-3.23-.51-4.06-1.54-.84-1.03-1.25-2.45-1.25-4.28v-.53c.02-.32.09-.55.21-.69.13-.14.4-.21.82-.21h2.06c.22,0,.38.05.5.15.12.1.18.28.18.55v.53c0,.38.14.65.43.8.28.15.63.23,1.03.23h2.11c.43,0,.77-.07,1.02-.21.24-.14.36-.38.36-.72,0-.15-.02-.3-.05-.44-.03-.14-.1-.32-.2-.54l-1.88-4.89c-.15-.38-.21-.7-.18-.95.03-.25.21-.44.53-.58l2.31-.93c.32-.12.58-.11.78.01.2.13.37.35.5.66l2.31,5.85c.32.8.6,1.4.84,1.78.24.38.51.64.8.77.29.13.67.19,1.14.19.25,0,.38.13.38.38v3.86c0,.5-.25.75-.75.75-.82,0-1.65-.19-2.5-.56-.84-.38-1.55-1.07-2.12-2.09-.2.85-.63,1.51-1.29,1.97-.66.46-1.64.69-2.92.69h-1.08Z"/>
    <path d="M133.14,449.82c-.13,0-.24-.03-.31-.1-.08-.07-.11-.17-.11-.3v-3.89c0-.23.07-.41.2-.53.13-.12.32-.18.55-.18h7.38c.25,0,.38.13.38.38v3.91c0,.23-.07.41-.2.53-.13.12-.32.18-.55.18h-7.33Z"/>
    <path d="M140.52,449.82c-.13,0-.24-.03-.31-.1-.08-.07-.11-.17-.11-.3v-3.89c0-.23.07-.41.2-.53.13-.12.32-.18.55-.18h7.38c.25,0,.38.13.38.38v3.91c0,.23-.07.41-.2.53-.13.12-.32.18-.55.18h-7.33Z"/>
    <path d="M147.9,449.82c-.13,0-.24-.03-.31-.1-.08-.07-.11-.17-.11-.3v-3.89c0-.23.07-.41.2-.53.13-.12.32-.18.55-.18h7.38c.25,0,.38.13.38.38v3.91c0,.23-.07.41-.2.53-.13.12-.32.18-.55.18h-7.33Z"/>
    <path d="M156.6,454.92c-.1.1-.24.15-.41.14-.18,0-.32-.06-.44-.16l-1.33-1.33c-.12-.12-.18-.26-.18-.43s.06-.31.18-.43l1.33-1.33c.12-.13.26-.2.43-.2s.31.07.43.2l1.3,1.33c.13.12.2.26.21.43,0,.17-.05.32-.19.45l-1.33,1.33ZM155.22,449.82c-.12,0-.21-.04-.28-.11-.07-.08-.1-.17-.1-.29v-3.86c0-.49.25-.73.75-.73h.1c.89,0,1.48-.19,1.79-.56.31-.38.45-.98.41-1.82,0-.47-.04-.95-.13-1.46-.08-.5-.16-.94-.23-1.33-.05-.32,0-.54.14-.65.14-.12.3-.19.49-.23l2.31-.45c.27-.05.48,0,.64.13.16.13.27.33.34.6.07.25.14.59.21,1,.08.42.14.85.2,1.29.06.44.09.82.09,1.12.02,1.54-.2,2.86-.64,3.96-.44,1.1-1.16,1.95-2.16,2.55-1,.59-2.31.87-3.95.84ZM160.11,454.92c-.1.1-.23.15-.4.14-.17,0-.31-.06-.43-.16l-1.35-1.33c-.12-.12-.18-.26-.18-.44s.06-.31.18-.41l1.35-1.33c.12-.13.25-.2.41-.2s.29.07.39.2l1.33,1.33c.13.12.2.26.21.43,0,.17-.05.32-.19.45l-1.33,1.33Z"/>
    <path d="M169.4,449.82c-1.87,0-3.23-.51-4.06-1.54-.84-1.03-1.25-2.45-1.25-4.28v-.53c.02-.32.09-.55.21-.69.13-.14.4-.21.82-.21h2.06c.22,0,.38.05.5.15.12.1.18.28.18.55v.53c0,.38.14.65.43.8.28.15.63.23,1.03.23h2.11c.43,0,.77-.07,1.02-.21.24-.14.36-.38.36-.72,0-.15-.02-.3-.05-.44-.03-.14-.1-.32-.2-.54l-1.88-4.89c-.15-.38-.21-.7-.18-.95.03-.25.21-.44.53-.58l2.31-.93c.32-.12.58-.11.78.01.2.13.37.35.5.66l2.31,5.85c.32.8.6,1.4.84,1.78.24.38.51.64.8.77.29.13.67.19,1.14.19.25,0,.38.13.38.38v3.86c0,.5-.25.75-.75.75-.82,0-1.65-.19-2.5-.56-.84-.38-1.55-1.07-2.12-2.09-.2.85-.63,1.51-1.29,1.97-.66.46-1.64.69-2.92.69h-1.08Z"/>
    <path d="M179.36,449.82c-.13,0-.24-.03-.31-.1-.08-.07-.11-.17-.11-.3v-3.89c0-.23.07-.41.2-.53.13-.12.32-.18.55-.18h7.38c.25,0,.38.13.38.38v3.91c0,.23-.07.41-.2.53-.13.12-.32.18-.55.18h-7.33Z"/>
    <path d="M186.73,449.82c-.13,0-.24-.03-.31-.1-.08-.07-.11-.17-.11-.3v-3.89c0-.23.07-.41.2-.53.13-.12.32-.18.55-.18h7.38c.25,0,.38.13.38.38v3.91c0,.23-.07.41-.2.53-.13.12-.32.18-.55.18h-7.33Z"/>
    <path d="M194.11,449.82c-.13,0-.24-.03-.31-.1-.08-.07-.11-.17-.11-.3v-3.89c0-.23.07-.41.2-.53.13-.12.32-.18.55-.18h7.38c.25,0,.38.13.38.38v3.91c0,.23-.07.41-.2.53-.13.12-.32.18-.55.18h-7.33Z"/>
    <path d="M201.43,449.82c-.25,0-.38-.13-.38-.38v-3.86c0-.5.25-.75.75-.75h5.82c1.25,0,2.34-.12,3.26-.36s1.85-.69,2.79-1.34l2.31-1.58,1.48,1.33-2.91,3.11c-.52.57-1.2,1.15-2.04,1.74-.84.59-1.84,1.09-2.97,1.49-1.14.4-2.42.6-3.84.6h-4.27ZM216.36,443.63l-.05-.08c-.84,0-1.55-.07-2.15-.2-.59-.13-1.13-.3-1.59-.5-.47-.2-.91-.4-1.33-.6-.42-.2-.87-.37-1.34-.51-.48-.14-1.03-.21-1.67-.21-.37,0-.72.05-1.05.16-.33.11-.6.29-.8.54-.23.25-.42.42-.56.5-.14.08-.37.13-.69.13h-1.71c-.59,0-.88-.23-.88-.7,0-.65.15-1.27.45-1.86s.72-1.1,1.24-1.54c.53-.44,1.13-.79,1.82-1.05.69-.26,1.42-.39,2.21-.39s1.51.08,2.12.23c.61.15,1.17.34,1.69.56.52.23,1.04.45,1.57.68s1.1.41,1.73.55c.63.14,1.36.21,2.2.21h.93c.28,0,.47.06.55.19.08.13.13.31.13.56v2.56c0,.23-.07.42-.21.56s-.33.21-.56.21h-2.03ZM213.73,453.51c-.12.12-.26.17-.44.16-.18,0-.32-.07-.44-.19l-1.41-1.38c-.1-.12-.15-.26-.15-.44s.05-.33.15-.46l1.41-1.38c.12-.13.26-.2.43-.2s.31.07.43.2l1.38,1.38c.13.13.2.29.21.46,0,.18-.05.33-.16.46l-1.4,1.38ZM219.82,449.82c-.99,0-1.86-.15-2.62-.45-.76-.3-1.4-.8-1.92-1.51-.52-.7-.95-1.66-1.28-2.86l2.41-2.38c0,.5.03.9.1,1.19.07.29.18.51.33.66.15.15.35.25.59.29.24.04.55.06.92.06h2.56c.12,0,.21.04.28.11.07.08.1.17.1.29v3.86c0,.23-.07.41-.2.54-.13.13-.32.19-.55.19h-.7Z"/>
    <path d="M220.53,449.82c-.25,0-.38-.13-.38-.38v-3.86c0-.5.25-.75.75-.75s.87-.07,1.15-.21c.28-.14.48-.38.6-.73.12-.34.18-.83.18-1.47v-11.04c0-.17.05-.31.16-.41s.25-.16.41-.16h2.81c.18,0,.33.05.43.16.1.11.15.25.15.41v11.06c0,1.17-.08,2.22-.25,3.15-.17.93-.47,1.71-.92,2.35-.44.64-1.08,1.11-1.91,1.43-.83.32-1.89.47-3.2.45Z"/>
    <path d="M231.37,449.75c-.17,0-.31-.05-.41-.16-.11-.11-.16-.25-.16-.41v-17.79c0-.17.05-.31.16-.41s.25-.16.41-.16h2.78c.18,0,.33.05.43.16.1.11.15.25.15.41v17.79c0,.17-.05.31-.15.41-.1.11-.24.16-.43.16h-2.78Z"/>
    <path d="M247.97,449.72c-1.62,0-2.89-.51-3.79-1.52-.9-1.01-1.36-2.39-1.38-4.13,0-.89.14-1.74.41-2.55.28-.81.66-1.54,1.17-2.18.5-.64,1.1-1.15,1.78-1.52.69-.37,1.44-.55,2.26-.55s1.51.18,2.16.55c.65.37,1.21.87,1.68,1.51.47.64.83,1.35,1.09,2.16.26.8.39,1.63.39,2.48-.02,1.34-.27,2.43-.75,3.29-.49.85-1.12,1.48-1.89,1.87-.78.39-1.63.59-2.55.59h-.58ZM246.82,435.22c-.1.1-.24.15-.41.16-.18,0-.33-.05-.46-.19l-1.4-1.4c-.1-.12-.16-.26-.18-.43-.02-.17.04-.32.18-.45l1.4-1.4c.13-.13.28-.2.45-.19.17,0,.31.07.43.19l1.4,1.4c.13.13.2.29.21.46,0,.18-.05.32-.19.44l-1.43,1.4ZM248.1,445.11h.48c.54,0,.96-.11,1.27-.34.31-.23.46-.58.46-1.07,0-.59-.18-1.08-.54-1.49-.36-.41-.83-.61-1.42-.61-.4,0-.75.1-1.05.31-.3.21-.53.47-.69.78-.16.31-.24.64-.24.99,0,.49.16.84.48,1.08s.74.35,1.25.35ZM250.76,435.22c-.13.13-.28.19-.45.18-.17-.02-.31-.08-.43-.2l-1.43-1.4c-.12-.12-.18-.26-.18-.44s.06-.32.18-.44l1.43-1.4c.12-.12.25-.18.41-.19.16,0,.3.05.44.19l1.4,1.4c.13.13.2.28.21.45,0,.17-.05.32-.19.45l-1.4,1.4Z"/>
    <path d="M257.41,449.75c-.17,0-.31-.05-.41-.16-.11-.11-.16-.25-.16-.41v-17.79c0-.17.05-.31.16-.41.11-.11.25-.16.41-.16h2.79c.18,0,.33.05.43.16.1.11.15.25.15.41v17.79c0,.17-.05.31-.15.41s-.24.16-.43.16h-2.79Z"/>
    <path d="M265.61,455.82c-.67,0-1.17-.07-1.49-.2-.33-.13-.49-.45-.49-.95v-2.46c0-.38.1-.66.31-.82.21-.16.56-.24,1.04-.24h2.99c.97,0,1.76-.13,2.38-.39.62-.26,1.08-.67,1.38-1.24h-2.21c-1.14,0-2.11-.21-2.92-.64-.81-.43-1.43-1.01-1.86-1.76-.43-.74-.64-1.61-.64-2.6,0-.75.12-1.48.36-2.2.24-.71.6-1.35,1.07-1.92.47-.57,1.05-1.02,1.76-1.35.7-.33,1.5-.5,2.38-.5,1.67,0,3.02.55,4.05,1.66s1.62,2.64,1.77,4.62h1.4c.25,0,.38.13.38.38l.03,3.86c0,.5-.25.75-.75.75h-1.46c-.5,1.97-1.37,3.47-2.6,4.48-1.23,1.01-2.84,1.52-4.83,1.52h-2.06ZM269.43,445.13l2.46-.03c-.22-.85-.58-1.48-1.09-1.89-.51-.41-1.05-.61-1.62-.61-.35,0-.66.06-.92.19-.26.13-.45.29-.58.5s-.19.43-.19.66c0,.44.18.74.55.92.37.18.83.26,1.38.26Z"/>
    <path d="M276.6,449.82c-.13,0-.24-.03-.31-.1-.08-.07-.11-.17-.11-.3v-3.89c0-.23.07-.41.2-.53.13-.12.32-.18.55-.18h7.38c.25,0,.38.13.38.38v3.91c0,.23-.07.41-.2.53-.13.12-.32.18-.55.18h-7.33Z"/>
    <path d="M283.98,449.82c-.13,0-.24-.03-.31-.1-.08-.07-.11-.17-.11-.3v-3.89c0-.23.07-.41.2-.53.13-.12.32-.18.55-.18h7.38c.25,0,.38.13.38.38v3.91c0,.23-.07.41-.2.53-.13.12-.32.18-.55.18h-7.33Z"/>
    <path d="M291.35,449.82c-.13,0-.24-.03-.31-.1-.08-.07-.11-.17-.11-.3v-3.89c0-.23.07-.41.2-.53.13-.12.32-.18.55-.18h7.38c.25,0,.38.13.38.38v3.91c0,.23-.07.41-.2.53-.13.12-.32.18-.55.18h-7.33Z"/>
    <path d="M298.73,449.82c-.13,0-.24-.03-.31-.1-.08-.07-.11-.17-.11-.3v-3.89c0-.23.07-.41.2-.53.13-.12.32-.18.55-.18h7.38c.25,0,.38.13.38.38v3.91c0,.23-.07.41-.2.53-.13.12-.32.18-.55.18h-7.33Z"/>
    <path d="M306.1,449.82c-.13,0-.24-.03-.31-.1-.08-.07-.11-.17-.11-.3v-3.89c0-.23.07-.41.2-.53.13-.12.32-.18.55-.18h7.38c.25,0,.38.13.38.38v3.91c0,.23-.07.41-.2.53-.13.12-.32.18-.55.18h-7.33Z"/>
    <path d="M313.48,449.82c-.13,0-.24-.03-.31-.1-.08-.07-.11-.17-.11-.3v-3.89c0-.23.07-.41.2-.53.13-.12.32-.18.55-.18h7.38c.25,0,.38.13.38.38v3.91c0,.23-.07.41-.2.53-.13.12-.32.18-.55.18h-7.33Z"/>
    <path d="M320.86,449.82c-.13,0-.24-.03-.31-.1-.08-.07-.11-.17-.11-.3v-3.89c0-.23.07-.41.2-.53.13-.12.32-.18.55-.18h7.38c.25,0,.38.13.38.38v3.91c0,.23-.07.41-.2.53-.13.12-.32.18-.55.18h-7.33Z"/>
    <path d="M328.23,449.82c-.13,0-.24-.03-.31-.1-.08-.07-.11-.17-.11-.3v-3.89c0-.23.07-.41.2-.53.13-.12.32-.18.55-.18h7.38c.25,0,.38.13.38.38v3.91c0,.23-.07.41-.2.53-.13.12-.32.18-.55.18h-7.33Z"/>
    <path d="M335.61,449.82c-.13,0-.24-.03-.31-.1-.08-.07-.11-.17-.11-.3v-3.89c0-.23.07-.41.2-.53.13-.12.32-.18.55-.18h7.38c.25,0,.38.13.38.38v3.91c0,.23-.07.41-.2.53-.13.12-.32.18-.55.18h-7.33Z"/>
    <path d="M342.99,449.82c-.13,0-.24-.03-.31-.1-.08-.07-.11-.17-.11-.3v-3.89c0-.23.07-.41.2-.53.13-.12.32-.18.55-.18h7.38c.25,0,.38.13.38.38v3.91c0,.23-.07.41-.2.53-.13.12-.32.18-.55.18h-7.33Z"/>
    <path d="M350.36,449.82c-.13,0-.24-.03-.31-.1-.08-.07-.11-.17-.11-.3v-3.89c0-.23.07-.41.2-.53.13-.12.32-.18.55-.18h7.38c.25,0,.38.13.38.38v3.91c0,.23-.07.41-.2.53-.13.12-.32.18-.55.18h-7.33Z"/>
    <path d="M357.74,449.82c-.13,0-.24-.03-.31-.1-.08-.07-.11-.17-.11-.3v-3.89c0-.23.07-.41.2-.53.13-.12.32-.18.55-.18h7.38c.25,0,.38.13.38.38v3.91c0,.23-.07.41-.2.53-.13.12-.32.18-.55.18h-7.33Z"/>
    <path d="M365.11,449.82c-.13,0-.24-.03-.31-.1-.08-.07-.11-.17-.11-.3v-3.89c0-.23.07-.41.2-.53.13-.12.32-.18.55-.18h7.38c.25,0,.38.13.38.38v3.91c0,.23-.07.41-.2.53-.13.12-.32.18-.55.18h-7.33Z"/>
    <path d="M372.44,449.82c-.25,0-.38-.13-.38-.38v-3.86c0-.5.25-.75.75-.75h.1c.64,0,1.07-.16,1.32-.48.24-.32.36-.86.36-1.63v-2.33c0-.5.23-.75.7-.75h2.56c.47,0,.7.25.7.75v2.33c0,.8.16,1.35.49,1.66s.87.45,1.64.45h.15c.25,0,.38.13.38.38v3.86c0,.5-.25.75-.75.75-.89,0-1.71-.17-2.47-.5-.76-.33-1.37-.91-1.82-1.73-.4.87-.93,1.46-1.59,1.77-.66.31-1.38.46-2.14.46ZM377.03,437.46c-.12.12-.27.17-.46.16-.19,0-.35-.07-.46-.19l-1.48-1.48c-.13-.13-.2-.29-.2-.46s.07-.33.2-.46l1.48-1.48c.12-.13.27-.2.45-.2s.33.07.45.2l1.43,1.48c.33.33.36.65.08.95l-1.48,1.48Z"/>
    <path d="M380.47,449.82c-.25,0-.38-.13-.38-.38v-3.86c0-.5.25-.75.75-.75s.87-.07,1.15-.21c.28-.14.49-.38.6-.73.12-.34.18-.83.18-1.47v-11.04c0-.17.05-.31.16-.41s.25-.16.41-.16h2.81c.18,0,.33.05.43.16.1.11.15.25.15.41v11.06c0,1.17-.08,2.22-.25,3.15-.17.93-.47,1.71-.92,2.35-.44.64-1.08,1.11-1.91,1.43-.83.32-1.89.47-3.2.45Z"/>
    <path d="M391.31,449.75c-.17,0-.31-.05-.41-.16-.11-.11-.16-.25-.16-.41v-17.79c0-.17.05-.31.16-.41s.25-.16.41-.16h2.78c.18,0,.33.05.43.16.1.11.15.25.15.41v17.79c0,.17-.05.31-.15.41s-.24.16-.43.16h-2.78Z"/>
  </g>
  <g>
    <path d="M118.89,368.4c-.33,0-.61-.12-.85-.36-.24-.24-.36-.52-.36-.85,0-.15.04-.27.11-.38l12.45-34.96c.11-.4.36-.78.74-1.15.38-.36.9-.55,1.56-.55h10c.69,0,1.22.18,1.58.55.36.36.6.75.71,1.15l12.51,34.96c.04.11.05.24.05.38,0,.33-.12.61-.36.85-.24.24-.52.36-.85.36h-8.41c-.62,0-1.07-.14-1.37-.44-.29-.29-.49-.56-.6-.82l-1.69-4.59h-13.16l-1.69,4.59c-.11.26-.3.53-.57.82-.27.29-.74.44-1.39.44h-8.41ZM133.48,353.32h8.14l-4.1-12.29-4.04,12.29Z"/>
    <path d="M162.43,368.4c-.36,0-.69-.14-.98-.41-.29-.27-.44-.61-.44-1.01v-35.4c0-.4.15-.74.44-1.01.29-.27.62-.41.98-.41h9.07c.4,0,.75.14,1.04.41.29.27.44.61.44,1.01v27.09h15.79c.4,0,.75.14,1.04.41.29.27.44.61.44,1.01v6.88c0,.4-.15.74-.44,1.01-.29.27-.64.41-1.04.41h-26.33Z"/>
    <path d="M194.05,356.65c-.4,0-.74-.14-1.01-.41-.27-.27-.41-.61-.41-1.01v-6.45c0-.4.14-.74.41-1.01.27-.27.61-.41,1.01-.41h17.48c.4,0,.74.14,1.01.41s.41.61.41,1.01v6.45c0,.4-.14.74-.41,1.01-.27.27-.61.41-1.01.41h-17.48Z"/>
    <path d="M220.44,368.4c-.36,0-.69-.14-.98-.41-.29-.27-.44-.61-.44-1.01v-35.4c0-.4.15-.74.44-1.01.29-.27.62-.41.98-.41h7.26c.66,0,1.13.16,1.42.46.29.31.49.54.6.68l11.25,18.08v-17.81c0-.4.15-.74.44-1.01.29-.27.62-.41.98-.41h8.25c.4,0,.74.14,1.01.41.27.27.41.61.41,1.01v35.4c0,.4-.14.74-.41,1.01s-.61.41-1.01.41h-7.21c-.69,0-1.18-.15-1.47-.46-.29-.31-.49-.54-.6-.68l-11.25-17.04v16.77c0,.4-.14.74-.41,1.01-.27.27-.61.41-1.01.41h-8.25Z"/>
    <path d="M256.92,368.4c-.33,0-.61-.12-.85-.36-.24-.24-.36-.52-.36-.85,0-.15.04-.27.11-.38l12.45-34.96c.11-.4.36-.78.74-1.15.38-.36.9-.55,1.56-.55h10c.69,0,1.22.18,1.58.55.36.36.6.75.71,1.15l12.51,34.96c.04.11.05.24.05.38,0,.33-.12.61-.36.85-.24.24-.52.36-.85.36h-8.41c-.62,0-1.07-.14-1.37-.44-.29-.29-.49-.56-.6-.82l-1.69-4.59h-13.16l-1.69,4.59c-.11.26-.3.53-.57.82-.27.29-.74.44-1.39.44h-8.41ZM271.51,353.32h8.14l-4.1-12.29-4.04,12.29Z"/>
    <path d="M303.46,368.4c-.69,0-1.24-.2-1.64-.6-.4-.4-.64-.84-.71-1.31l-5.46-34.9s0-.07-.03-.11c-.02-.04-.03-.07-.03-.11,0-.33.12-.61.36-.85.24-.24.52-.36.85-.36h8.47c1.13,0,1.75.46,1.86,1.37l2.68,18.35,3.11-9.72c.07-.25.24-.57.49-.96.25-.38.69-.57,1.31-.57h4.75c.62,0,1.06.19,1.31.57.25.38.44.7.55.96l3.06,9.67,2.73-18.3c.11-.91.71-1.37,1.8-1.37h8.47c.33,0,.61.12.85.36.24.24.36.52.36.85v.11s-.02.07-.05.11l-5.46,34.9c-.04.47-.26.91-.68,1.31-.42.4-.97.6-1.67.6h-6.5c-.66,0-1.15-.17-1.47-.52-.33-.35-.55-.65-.66-.9l-4.97-13.44-5.03,13.44c-.07.26-.28.56-.63.9-.35.35-.85.52-1.5.52h-6.5Z"/>
    <path d="M339.95,368.4c-.33,0-.61-.12-.85-.36-.24-.24-.36-.52-.36-.85,0-.15.04-.27.11-.38l12.45-34.96c.11-.4.36-.78.74-1.15.38-.36.9-.55,1.56-.55h10c.69,0,1.22.18,1.58.55.36.36.6.75.71,1.15l12.51,34.96c.04.11.05.24.05.38,0,.33-.12.61-.36.85-.24.24-.52.36-.85.36h-8.41c-.62,0-1.07-.14-1.37-.44-.29-.29-.49-.56-.6-.82l-1.69-4.59h-13.16l-1.69,4.59c-.11.26-.3.53-.57.82-.27.29-.74.44-1.39.44h-8.41ZM354.54,353.32h8.14l-4.1-12.29-4.04,12.29Z"/>
    <path d="M105.59,423.07c-.33,0-.61-.12-.85-.36-.24-.24-.36-.52-.36-.85,0-.15.04-.27.11-.38l12.45-34.96c.11-.4.36-.78.74-1.15.38-.36.9-.55,1.56-.55h10c.69,0,1.22.18,1.58.55.36.36.6.75.71,1.15l12.51,34.96c.04.11.05.24.05.38,0,.33-.12.61-.36.85-.24.24-.52.36-.85.36h-8.41c-.62,0-1.07-.14-1.37-.44-.29-.29-.49-.56-.6-.82l-1.69-4.59h-13.16l-1.69,4.59c-.11.26-.3.53-.57.82-.27.29-.74.44-1.39.44h-8.41ZM120.17,408h8.14l-4.1-12.29-4.04,12.29Z"/>
    <path d="M149.12,423.07c-.36,0-.69-.14-.98-.41-.29-.27-.44-.61-.44-1.01v-35.4c0-.4.15-.74.44-1.01.29-.27.62-.41.98-.41h9.07c.4,0,.75.14,1.04.41.29.27.44.61.44,1.01v27.09h15.79c.4,0,.75.14,1.04.41.29.27.44.61.44,1.01v6.88c0,.4-.15.74-.44,1.01-.29.27-.64.41-1.04.41h-26.33Z"/>
    <path d="M195.17,423.62c-2.18,0-4.26-.28-6.23-.85s-3.72-1.39-5.27-2.49c-1.55-1.09-2.77-2.44-3.66-4.04-.89-1.6-1.36-3.46-1.39-5.57,0-.33.11-.61.33-.85.22-.24.49-.36.82-.36h9.29c.58,0,1.01.13,1.28.38.27.25.52.67.74,1.26.25.73.57,1.34.96,1.83s.86.85,1.45,1.07c.58.22,1.26.33,2.02.33,1.42,0,2.52-.46,3.3-1.37.78-.91,1.17-2.35,1.17-4.32v-14.2h-16.99c-.4,0-.74-.14-1.01-.41-.27-.27-.41-.61-.41-1.01v-6.77c0-.4.14-.74.41-1.01.27-.27.61-.41,1.01-.41h27.69c.4,0,.74.14,1.01.41.27.27.41.61.41,1.01v22.78c0,3.24-.74,5.95-2.21,8.11-1.47,2.17-3.5,3.79-6.06,4.86s-5.45,1.61-8.66,1.61Z"/>
    <path d="M215.6,423.07c-.33,0-.61-.12-.85-.36-.24-.24-.36-.52-.36-.85,0-.15.04-.27.11-.38l12.45-34.96c.11-.4.36-.78.74-1.15.38-.36.9-.55,1.56-.55h10c.69,0,1.22.18,1.58.55.36.36.6.75.71,1.15l12.51,34.96c.04.11.05.24.05.38,0,.33-.12.61-.36.85-.24.24-.52.36-.85.36h-8.41c-.62,0-1.07-.14-1.37-.44-.29-.29-.49-.56-.6-.82l-1.69-4.59h-13.16l-1.69,4.59c-.11.26-.3.53-.57.82-.27.29-.74.44-1.39.44h-8.41ZM230.19,408h8.14l-4.1-12.29-4.04,12.29Z"/>
    <path d="M259.14,423.07c-.36,0-.69-.14-.98-.41-.29-.27-.44-.61-.44-1.01v-35.4c0-.4.15-.74.44-1.01.29-.27.62-.41.98-.41h14.97c3.53,0,6.59.57,9.18,1.72,2.59,1.15,4.62,2.83,6.12,5.05,1.49,2.22,2.29,4.95,2.4,8.19.07,1.57.11,2.95.11,4.15s-.04,2.57-.11,4.1c-.15,3.42-.92,6.25-2.32,8.47-1.4,2.22-3.38,3.87-5.93,4.94-2.55,1.07-5.61,1.61-9.18,1.61h-15.24ZM269.46,413.79h4.64c1.2,0,2.22-.2,3.06-.6.84-.4,1.49-1.03,1.97-1.88.47-.86.73-1.96.76-3.3.04-1.06.06-2,.08-2.84.02-.84.02-1.67,0-2.51-.02-.84-.05-1.77-.08-2.79-.07-2-.65-3.46-1.72-4.37-1.07-.91-2.52-1.37-4.34-1.37h-4.37v19.66Z"/>
    <path d="M298.9,423.07c-.36,0-.69-.14-.98-.41-.29-.27-.44-.61-.44-1.01v-35.4c0-.4.15-.74.44-1.01.29-.27.62-.41.98-.41h9.29c.4,0,.74.14,1.01.41.27.27.41.61.41,1.01v35.4c0,.4-.14.74-.41,1.01-.27.27-.61.41-1.01.41h-9.29Z"/>
    <path d="M317.8,423.07c-.36,0-.69-.14-.98-.41-.29-.27-.44-.61-.44-1.01v-35.4c0-.4.15-.74.44-1.01.29-.27.62-.41.98-.41h14.97c3.53,0,6.59.57,9.18,1.72,2.59,1.15,4.62,2.83,6.12,5.05,1.49,2.22,2.29,4.95,2.4,8.19.07,1.57.11,2.95.11,4.15s-.04,2.57-.11,4.1c-.15,3.42-.92,6.25-2.32,8.47-1.4,2.22-3.38,3.87-5.93,4.94-2.55,1.07-5.61,1.61-9.18,1.61h-15.24ZM328.12,413.79h4.64c1.2,0,2.22-.2,3.06-.6.84-.4,1.49-1.03,1.97-1.88.47-.86.73-1.96.76-3.3.04-1.06.06-2,.08-2.84.02-.84.02-1.67,0-2.51-.02-.84-.05-1.77-.08-2.79-.07-2-.65-3.46-1.72-4.37-1.07-.91-2.52-1.37-4.34-1.37h-4.37v19.66Z"/>
    <path d="M353.25,423.07c-.33,0-.61-.12-.85-.36-.24-.24-.36-.52-.36-.85,0-.15.04-.27.11-.38l12.45-34.96c.11-.4.36-.78.74-1.15.38-.36.9-.55,1.56-.55h10c.69,0,1.22.18,1.58.55.36.36.6.75.71,1.15l12.51,34.96c.04.11.05.24.05.38,0,.33-.12.61-.36.85-.24.24-.52.36-.85.36h-8.41c-.62,0-1.07-.14-1.37-.44-.29-.29-.49-.56-.6-.82l-1.69-4.59h-13.16l-1.69,4.59c-.11.26-.3.53-.57.82-.27.29-.74.44-1.39.44h-8.41ZM367.84,408h8.14l-4.1-12.29-4.04,12.29Z"/>
  </g>
</svg>