<?xml version="1.0" encoding="UTF-8"?>
<svg id="Layer_1" data-name="Layer 1" xmlns="http://www.w3.org/2000/svg" viewBox="0 0 500 500">
  <defs>
    <style>
      .cls-1 {
        fill: #fff;
      }
    </style>
  </defs>
  <path class="cls-1" d="M399.01,164.45c-44.83-32.56-105.74-45.01-160.55-43.11-50.36,1.75-107.87,17.3-146.76,50.31-52.85,44.86-55.09,107.19-3.22,154.03,79.22,71.56,247.61,70.99,325.58-2.34,54.45-51.22,42.69-116.94-15.05-158.89ZM406.77,323.31c-76.88,66.44-228.38,66.98-307.79,4.69-52.95-41.53-59.18-102.58-8.15-149.12,40.59-37.02,103.17-52.41,157.04-52.85,53.36-.44,114.73,14.08,156.34,48.6,51.79,42.96,54.02,104.21,2.56,148.68Z"/>
  <path class="cls-1" d="M413.85,187.22c-40.67-42.82-113.4-59.5-170.68-58.19-54.39,1.25-121.62,19.03-159.17,60.54-41.73,46.14-29.35,100.45,17.13,136.72,77.28,60.32,225.02,60.08,300.95-2.56,45.66-37.66,54.04-92.03,11.78-136.52ZM389.35,328.97c-73.65,50.9-198.25,51.27-273.46,3.5-24.14-15.33-46.12-38.01-52.19-66.84h46.6c5.05,12.69,16.51,22.86,27.83,30.09,56.8,36.29,168.1,36.17,224.64-.6,11.46-7.45,21.52-16.94,27.35-29.49h45.96c-4.93,26.52-25.16,48.44-46.72,63.33ZM437.29,261.95l-1.01.7-48.91.05c-4.73,13.29-16.57,23.6-28.3,30.89-55.97,34.8-163.01,34.62-218.82-.43-11.68-7.33-22.67-17.42-27.89-30.45l-49.12-.26c-1.02-1.9-.85-4.13-.83-6.22h48.31c-.83-3.98-.83-8.41,0-12.39h-48.31l.43-6.84h48.52l3.21-6.4-41.5-19.92c-.15-.86,2.82-5.22,3.53-6.29,47.09-70.94,170.69-82.92,246.27-62.98,40.15,10.59,82.89,32.35,104.24,69.3l-41.07,19.66c-1.27,1.17,1.84,4.61,1.93,6.21l48.67.41,1.14,6.85h-48.31c.6,4.12.6,8.26,0,12.39h48.31l-.49,5.71Z"/>
  <path class="cls-1" d="M340,202.49c-.51-2.21-.46-4.32-.99-6.49l-8.56,6.66,3,22.4h-15.18c-.29,0-2.17-.98-2.57-1.28-4.03-3-1.07-8.44-1.5-8.98l-4.91,2.57c-.4,5.41-2.88,7.32-8.11,7.71-3.37.25-11.89.49-14.49-1.36-3.8-2.7-.86-7.94-1.56-8.91l-4.62,2.22c-.29,5.41-2.66,7.66-7.97,8.06-9.8.73-20.7-.43-30.61-.21-5.25-1.35-4.39-5.73-4.04-10.06l-4.71,2.55c-.15,2.44-.65,4.7-2.75,6.22-.6.44-3.11,1.48-3.65,1.48h-50.23l-1.21-16.41,2.06-2.16c-1.88-3.25-2.76-6.77-3.2-10.48l-9.64,7.56,4.74,30.7c.09,2.68-5.03,4.56-7.27,5.12-6,1.48-13.22-.85-13.01-7.98.04-1.36,2.29-8.34-.7-7.47-2.64.77-5.71,10.6-5.96,13.31-1.88,20.64,24.84,28.71,33.29,10.2.49-1.07.27-2.61,1.54-2.73l52.6.02c1.46-.18,4.28-1.36,4.49-3,1.56.94,2.41,3,4.47,3,11.95-1.09,26.43,1.42,38.07,0,1.46-.18,4.28-1.36,4.49-3,1.85,1.55,2.7,2.76,5.31,3.01,4.01.39,15.9.54,19.66-.05,1.64-.26,3.48-1.54,4.3-2.96.67.55,2.73,2.98,3.42,2.98h27.15c.1-10.92-.65-21.75-.86-32.68-.01-.71-.49-1.48-.43-2.14.1-1.02,1.69-1.67,1.68-3,0-.73-1.27-3.2-1.55-4.4Z"/>
  <path class="cls-1" d="M203.99,175.34c-.75,1.15-2.44,6.3-1.36,7.2,1.22,1.02,7.03,1.38,8.58.87,1.99-.65,1.47-3.36,2.96-4.51.28,3.83,1.72,7.32,5.88,8.01l36.05-.09c1.37-5.3,4.14-10.1-.23-14.77-3.99-4.27-9.24-1.9-14.1-1.68-4.65.21-9.29-.15-13.91-.45-.25-.99.19-.7.54-.98,3.13-2.45,8.22-3.85,10.55-5.67.84-.65,2.46-4.12,2.8-5.32-5.28.96-17.19,8.92-17.72,14.37-.17,1.74.11,2.3,1.76,2.87,7,2.41,17.75-.67,24.9.32,1.44.2,3.08.8,2.82,2.52h-33.99c-.15,0-1.32-.81-1.51-1.06-1.76-2.21-1.63-11.58-2.98-14.75l-2.81,4.25c1.22,4.56-6.08,5.56-8.23,8.85ZM212.89,172.06l.45,3.63c-1.94.86-3.59.53-5.57.21.4-.81,1.73-.92,2.54-1.52.45-.34,2.37-2.48,2.59-2.32Z"/>
  <path class="cls-1" d="M357.41,223.97c-.28-9.64-.74-19.22-.86-28.84l-9.31,7.09,2.91,45.46c7.52-5.4,7.85-12.63,7.71-21.17-.02-.91-.42-1.73-.44-2.55Z"/>
  <path class="cls-1" d="M266.25,195.7c3.02-.55,5.69-6.26,6.08-9.11,1.78.36,3.53.56,5.36.44,1.32-.09,2.69-.76,3.76-.73,2.68.09,4.11,1.4,7.44-.04.65-.28,1.2-1.22,1.67-1.32,1.04-.2,3.71,2.63,5.85,1.24.86-.56,2.3-6.3,2.43-7.51.2-1.94,0-4.39,0-6.41,0-.07-.42-1.25-.85-1.07.06,1.4-1.48,3.09-1.65,4.16-.17,1.08,1.09,3.04-.68,3.09-.71.02-3.45-1.31-3.61-1.96l1.22-4.44c-2.7.74-2.06,3.72-3.62,5.14-1.36,1.23-3.23.79-4.93.84l1.28-5.55c-2.88,1.62-2.01,4.98-5.81,5.52-6.76.95-7.14-1.09-10.65-5.93l-2.69,4.98c3.06,5.61,4.64,7.37-.94,11.9-3.14,2.55-5.22,2.36-8.98,1.07-.94.77,6.85,6.14,9.31,5.69Z"/>
  <path class="cls-1" d="M270.66,286.95c3.35.53,5.31,3.28,5.93,6.46h-8.34c-.13,0-.33-.54-.64-.43v7.05c0,1.83,8.51.8,9.98,1.09,2.44-4.92,2.38-13.75-1.84-17.77-3.57-3.39-5.14-.09-5.09,3.6Z"/>
  <path class="cls-1" d="M248.52,285.39c-2.64.49-3.69,3.49-3.56,5.88,1.57-.53,3.37-1.56,3.84.85-1.64-.07-3.62.76-4.37,2.26-1.47,2.94-.44,10.35.09,13.77.11.72-.2,1.39.65,1.91,3.04-2.42.3-8.2,1.28-10.25.98-2.03,5.67-1.15,7.5-1.02l1.49-6.21c-2.35-2.35-3.52-6.09-6.92-7.19Z"/>
  <path class="cls-1" d="M226.79,286.15c-3.67-2.44-5.19,2.65-5.34,5.56,1.45-1.22,2.71-1.7,4.26-.21-1.04.94-2.53.96-3.63,1.92-3.75,3.25-.33,12.69-.63,17.1,4.94-3.49-2.05-11.3,4.48-11.96,1.73-.17,3.25.13,4.92.43-.04-1.93,1.86-5.13,1.07-6.83-.29-.62-4.48-5.57-5.13-6Z"/>
  <polygon class="cls-1" points="233.63 253.67 229.36 249.84 225.34 254.68 229.12 258.21 233.2 254.94 237.42 258.35 241.96 253.89 237.42 249.86 233.63 253.67"/>
  <path class="cls-1" d="M316.78,205.18c-1.21-.85-4.36-5.21-5.68-4.87-.51.13-5.05,4.78-4.97,5.24l5.25,4.94,5.4-5.31Z"/>
  <path class="cls-1" d="M287.58,169.02l2.91-2.44c.92.5,3.52,2.97,4.44,2.43l2.61-3.97-4.05-3.23-2.61,2.97-3.8-2.97c-3.67,3.61-4.46,4.51.51,7.2Z"/>
  <path class="cls-1" d="M204.99,163.84l1.97-2.4h.93s3.51,2.4,3.51,2.4l3.19-3.91-4.05-3.17-2.56,2.9-3.85-2.88c-.88.61-3.75,3.5-3.14,4.54l4.01,2.52Z"/>
  <polygon class="cls-1" points="275.75 253.89 281.09 258.73 286.43 253.05 281.15 248.58 275.75 253.89"/>
  <path class="cls-1" d="M294.09,159.03c0-.25-3.13-2.54-3.65-2.95-.26-.2-.03-.82-.36-.68l-3.61,4.49,4.67,3.62,2.96-4.49Z"/>
  <path class="cls-1" d="M233.93,297.9c2.39,4.05,4.42,2.96,7.18,0l-3.62-3.13-3.56,3.12Z"/>
  <path class="cls-1" d="M257.42,297.31c1.09,4.38,4.44,4.05,6.77.59l-3.63-3.2-3.15,2.61Z"/>
  <path class="cls-1" d="M274.88,277.38c.24-.62-1.86-1.61-2.4-2.07-.38-.32-.45-1.31-1.21-1.12l-2.75,3.26c2.19,3.87,3.99,2.96,6.37-.07Z"/>
  <path class="cls-1" d="M228.5,328.03c-1.31,1.98-3.18,3.5-2.69,6.09.16.84,1.07,1.97,1.19,2.67.47,2.77-.35,6.7,0,9.61l-12.4-1.72c-.25-.96.39-1,1.17-1.16,1.44-.28,2.89.03,4.32-.19l1.78-4.63c-6.24.84-15.26-11.14-17.77-.03-.2.86-.25,1.71-.18,2.59,1.12-1.9,8.83.14,7.69,1.7-2.82,1.35-5.24,1.54-8.29.82-4.91-1.15-3.15-2.82-2.4-6.8-3.81.78-3.47,7.21-7.73,3.99l1.31-4.42c-2.43.42-2.79,4.19-4.93,4.24-.81.02-3.87-.72-4.04-1.49l2.13-3.6c-2.16-.12-3.82,3.06-5.45,3.35-1,.18-4.92-1.04-5.2-1.93-.41-1.29,2.33-5.28,2.52-6.97-3.51.84-5.14,3.25-6.61,6.28-4.53-1.87-11.12-2.82-15.31-5.1-2.85-1.55,2.31-5.16,1.82-7.59-.23-.25-4.22,1.94-4.57,2.27-.84.78-1.27,3.27-2.46,3.29-13.84-5.62-26.94-12.91-38.94-21.8-.44-.74-.11-1.32.13-2.02.47-1.36,7.14-10.21,6.51-10.8-1.13.19-3.01.42-3.97.94-1,.54-1.27,1.84-1.86,2.01-.91.26-6.47-1.19-8.08-1.25-2.57-.09-5.15,1.99-6.97,3.7,1.85,4.21,4.8,8.62,9.77,5.29-1.1,3.2-3.06,5.09-1.03,8.51,1.19,2,2.52,1.69,3.84,2.57,8.24,5.47,15.88,10.58,24.83,14.92,3.79,1.83,7.69,3.53,11.59,5.13l3.1-1.65c-.19,3.18,2.25,3.95,4.72,4.89,1.96.75,12.56,4.36,13.78,4.01.7-.2,1.22-1.21,1.81-1.64h.63c-.35,2.25,3.25,4.18,5.03,4.58,1.69.38,3.16-.35,4.1-.19,1.06.18,3.16,1.88,5.25,1.99,1.26.07,2.43-.74,2.94-.69.3.03,1.25,1.07,1.89,1.38,2.13,1.03,3.12.73,5.15-.24.77,2.75,6.76,3.6,9.19,3.44,3.47-.22,4.17-5.08,6.63-6.87.1,1.94-.81,6.36,1.3,7.46,2.55,1.34,9.86.67,13.01,1.51,2.04-.37,3.48-6.88,3.65-8.77.4-4.47-.76-7.51,2.53-11.47-1.78-2.03-3.94-3.41-4.44-6.25ZM110.94,302.73c-1.48-.81-3.08-1.61-3.64-3.33l5.56.43-1.92,2.9Z"/>
  <path class="cls-1" d="M381.35,287l1.81,5.87c4.44,1.17,7.49,4.83,11,7.59-1.09.84-4.94,4.96-6.01,4.72-2.16-.47-9.58-11.54-12.36-13.06l.64,5.55,8.75,10.06-4.06,3.62c-.38-3.31-4.01-6.72-7.35-5.67-3.87,1.21-6.49,11.39-7.85,15.04-3.09.57-2.72-3.37-4.67-4.67-.94,2.42-.36,4.13.79,6.28l-.12.58c-1.6.16-4.65,2.48-5.95,2.07-1.27-.4-1.83-5.62-3.06-6.79-1.7,2.96-1.86,5.98-.21,8.96l-16.48,6.32-7.04-16.56c-1.13-.11-.69-.03-.84.64-.37,1.65-.75,3.39-.85,5.09l7.71,19.46,1.36-.07,17.98-6.71.73-3.44c2.72,2.6,4.28.58,6.83-.22.68-.21,1.49.36,2.31-.22,1.2-.86.55-2.56.69-3.82,1.1.68,2.35,1.68,3.71.97l19.23-11.78c1.95-2.01.29-3.98.14-6.27,1.67,1.22,3.01,2.28,5.25,1.62.76-.22,6.29-5.31,6.75-6.09.87-1.47-1.56-5.07-2.61-6.41-1.7-2.18-5.23-4.53-6.6-6.65-.9-1.41-.89-3.16-1.94-4.47-2.75-.5-5.29.38-7.7-1.49ZM368.95,318.62c1.34-3.75,4.13-8.26,8.55-5.55l-8.55,5.55Z"/>
  <path class="cls-1" d="M321.26,337.87c-1.54.06-6.21-1.7-5.13-3.45,1.1-1.77,7.88-3.08,9.63-1.27.91-1.21-3.65-4.47-4.94-4.68-5.17-.84-9.66,7.49-7.89,11.94l-35.05,5.56-3.21-18.37-2.78,6.19,3.43,20.3c8.62-.33,17.24-1.63,25.73-3.12,9.25-1.62,18.56-3.58,27.33-6.87l.81-8.37c-.33-.35-6.62,2.11-7.92,2.16Z"/>
  <path class="cls-1" d="M264.19,341.1l2.14,5.73c-3.92,0-7.85.02-11.77-.02-.75,0-1.48.38-2.12.36-5.27-.12-4.11-4.18-3.75-7.95.04-.47.5-1.46-.3-1.37-2.34,5.49-5.2,16.92,3.61,17.53,2.16.15,15.38.05,16.28-.86,1.97-6.04,2.73-13.27-1.73-18.38l-2.36,4.95Z"/>
  <path class="cls-1" d="M234.24,335.94l.89,13.66.84,5.34c4.68-7.71,2.09-17.89,1.71-26.49l-3.45,7.48Z"/>
  <polygon class="cls-1" points="116.27 289.14 117.1 293.23 121.84 292.77 120.95 287.89 117.13 288.29 116.7 283.59 111.57 284.44 112.64 289.15 116.27 289.14"/>
  <path class="cls-1" d="M148.34,342.13l-1.75-3.82-4.67,2.12c.57,1.02,1.8,4.32,3.13,4.2l2.82-1.19,2.38,3.77,3.88-2.07-1.96-4.72-3.84,1.71Z"/>
  <path class="cls-1" d="M194.24,328.48l3.4,2.9,3.25-2.77-2.59-3.51c-1.07-.62-2.39,1.47-3.15,2.07l-3.35-3.37-3.7,3.16,3.63,3.62,2.51-2.1Z"/>
  <polygon class="cls-1" points="257.08 331.91 260.93 333.97 263.32 330.2 259.71 328.13 257.15 330.49 253.52 328.02 251.34 332.04 254.95 333.95 257.08 331.91"/>
  <polygon class="cls-1" points="213.72 328.61 210.75 324.61 206.94 328.3 210.55 331.77 213.72 328.61"/>
  <polygon class="cls-1" points="198.77 322.64 195.58 318.64 191.98 321.89 195.21 325.43 198.77 322.64"/>
  <path class="cls-1" d="M165.83,349.23c-.13.79,1.73,3.78,2.47,3.97l4.41-2.11-2.6-4.24-4.28,2.38Z"/>
  <polygon class="cls-1" points="350.56 310.94 345.43 309.65 344.62 314.73 349.25 315.6 350.56 310.94"/>
</svg>