<?xml version="1.0" encoding="UTF-8"?>
<svg id="Layer_1" data-name="Layer 1" xmlns="http://www.w3.org/2000/svg" xmlns:xlink="http://www.w3.org/1999/xlink" viewBox="0 0 500 500">
  <defs>
    <style>
      .cls-1 {
        font-size: 67.87px;
        stroke-width: 2.25px;
      }

      .cls-1, .cls-2, .cls-3 {
        stroke: #000;
        stroke-miterlimit: 10;
      }

      .cls-1, .cls-4 {
        font-family: CoText-Bold, 'Co Text';
        font-weight: 700;
      }

      .cls-2 {
        stroke-width: 2.53px;
      }

      .cls-3 {
        stroke-width: 3.09px;
      }

      .cls-4 {
        filter: url(#outer-glow-1);
        font-size: 29.54px;
      }
    </style>
    <filter id="outer-glow-1" filterUnits="userSpaceOnUse">
      <feOffset dx="0" dy="0"/>
      <feGaussianBlur result="blur" stdDeviation="9.59"/>
      <feFlood flood-color="#fff" flood-opacity=".75"/>
      <feComposite in2="blur" operator="in"/>
      <feComposite in="SourceGraphic"/>
    </filter>
  </defs>
  <path class="cls-3" d="M149.86,81.06c-1.76.33-3.03,1.89-3,3.69v96.05c0,2.03,1.66,3.69,3.69,3.69h22.17c2.03,0,3.69-1.66,3.69-3.69v-44.33h.35c14.55,0,27.37-9.5,32.32-23.09,4.21-11.04,15.18-18.47,27.94-17.55h.12c13.8,1.34,24.24,14.04,24.24,28.05v19.97h7.39v-19.97c0-17.72-13.13-33.77-31.05-35.44h-.12c-16.02-1.23-30.07,8.23-35.44,22.28v.12c-3.93,10.79-14.08,18.24-25.4,18.24h-.35v-44.33c0-2.03-1.66-3.69-3.69-3.69h-22.86ZM154.25,88.45h14.78v88.66h-14.78v-88.66ZM245.91,147.56c-1.76.33-3.03,1.89-3,3.69v20.32l-42.83,32.09c-.95.71-1.5,1.82-1.5,3v11.08c.01,2.03,1.66,3.68,3.69,3.69h44.68c1.73,8.38,9.25,14.78,18.12,14.78s16.39-6.39,18.12-14.78h44.68c2.03-.01,3.68-1.66,3.69-3.69v-11.08c0-1.18-.55-2.29-1.5-3l-42.83-32.09v-20.32c0-2.03-1.66-3.69-3.69-3.69h-37.63ZM250.3,154.94h29.55v14.78h-29.55v-14.78ZM247.87,177.11h34.4l41.91,31.4v5.54h-118.21v-5.54l41.91-31.4ZM254.68,221.44h20.78c-1.54,4.27-5.58,7.39-10.39,7.39s-8.85-3.12-10.39-7.39Z"/>
  <g>
    <path class="cls-2" d="M123.86,301.29c0,4.21-1.19,7.52-3.56,9.94-2.37,2.42-5.55,3.63-9.53,3.63-1.52,0-3.05-.17-4.6-.5-1.54-.34-2.83-.75-3.86-1.24l2.22-6.24c.63.27,1.34.49,2.15.67.81.18,1.63.27,2.48.27,1.7,0,3.02-.44,3.96-1.31s1.41-2.23,1.41-4.06v-31.22c0-1.43.42-2.51,1.28-3.22.85-.72,2.01-1.07,3.49-1.07.81,0,1.59.09,2.35.27.76.18,1.5.43,2.22.74v33.36Z"/>
    <path class="cls-2" d="M145.88,315.45c-1.7,0-3.36-.18-4.97-.54-1.61-.36-2.98-.83-4.09-1.41l2.08-6.71c1.88.89,3.96,1.34,6.24,1.34,4.97,0,7.59-3.04,7.85-9.13h-6.65c-3.31,0-6.18-.67-8.59-2.01s-4.27-3.19-5.57-5.54c-1.3-2.35-1.95-5.07-1.95-8.16s.68-6.06,2.05-8.53c1.36-2.46,3.27-4.39,5.71-5.77,2.44-1.39,5.25-2.08,8.42-2.08,1.97,0,3.9.33,5.81.97,1.9.65,3.61,1.69,5.14,3.12,1.52,1.43,2.74,3.36,3.66,5.77.92,2.42,1.38,5.37,1.38,8.86v5.44h8.39v7.92h-8.59c-.49,5.37-2.13,9.45-4.9,12.25-2.78,2.8-6.58,4.2-11.41,4.2ZM141.21,276.89c-1.14,1.72-1.71,3.84-1.71,6.34,0,2.64.66,4.61,1.98,5.91,1.32,1.3,3.01,1.95,5.07,1.95h6.58v-8.19c0-2.69-.63-4.79-1.88-6.31-1.25-1.52-2.91-2.28-4.97-2.28-2.24,0-3.93.86-5.07,2.58Z"/>
    <path class="cls-2" d="M168.77,291.09h28.87v7.92h-28.87v-7.92Z"/>
    <path class="cls-2" d="M195.62,291.09h28.87v7.92h-28.87v-7.92Z"/>
    <path class="cls-2" d="M222.48,291.09h28.87v7.92h-28.87v-7.92Z"/>
    <path class="cls-2" d="M269.27,283.43c0,2.95.39,4.97,1.17,6.04.78,1.07,2.23,1.61,4.33,1.61h5.17v7.92h-6.85c-3.8,0-6.49-1.52-8.06-4.57-1.52,3.04-4.36,4.57-8.53,4.57h-7.18v-7.92h5.17c2.1,0,3.55-.56,4.33-1.68.78-1.12,1.17-3.11,1.17-5.97v-12.22c0-2.86,1.59-4.3,4.77-4.3.85,0,1.68.09,2.48.27.81.18,1.48.4,2.01.67v15.57ZM261.51,260.16c-.83-.87-1.24-1.91-1.24-3.12s.41-2.25,1.24-3.12c.83-.87,1.85-1.31,3.05-1.31s2.24.44,3.09,1.31c.85.87,1.28,1.91,1.28,3.12s-.43,2.25-1.28,3.12c-.85.87-1.88,1.31-3.09,1.31s-2.23-.44-3.05-1.31Z"/>
    <path class="cls-2" d="M277.93,291.09h28.87v7.92h-28.87v-7.92Z"/>
    <path class="cls-2" d="M304.78,291.09h28.87v7.92h-28.87v-7.92Z"/>
    <path class="cls-2" d="M331.63,291.09h28.87v7.92h-28.87v-7.92Z"/>
    <path class="cls-2" d="M377.68,299.01h-19.2v-7.92h9.87v-40.41c0-3,1.61-4.5,4.83-4.5.81,0,1.6.09,2.38.27.78.18,1.49.43,2.11.74v51.83Z"/>
    <path class="cls-2" d="M394.67,299.01h-9.33v-48.33c0-3,1.61-4.5,4.83-4.5.81,0,1.6.09,2.38.27.78.18,1.49.43,2.11.74v51.83Z"/>
  </g>
  <text class="cls-1" transform="translate(99.32 371.38)"><tspan x="0" y="0">ALNOOR</tspan></text>
  <text class="cls-4" transform="translate(100 404.58)"><tspan x="0" y="0">Lighting &amp; Furniture</tspan></text>
</svg>