<?xml version="1.0" encoding="UTF-8"?>
<svg id="Layer_1" data-name="Layer 1" xmlns="http://www.w3.org/2000/svg" viewBox="0 0 500 500">
  <defs>
    <style>
      .cls-1 {
        font-family: Cairo-Bold, Cairo;
        font-size: 94.37px;
        font-weight: 700;
      }

      .cls-2 {
        font-family: Cairo-Black, Cairo;
        font-size: 15.87px;
        font-weight: 800;
      }

      .cls-3 {
        fill: #008cea;
      }
    </style>
  </defs>
  <g>
    <text class="cls-1" transform="translate(62.3 380.86)"><tspan x="0" y="0">Alsamiya</tspan></text>
    <text class="cls-2" transform="translate(63.44 400.55)"><tspan x="0" y="0">PHARMACEUTICAL</tspan></text>
  </g>
  <g>
    <g>
      <path class="cls-3" d="M306.18,219.62l1.2,5.76c-5.95,7.57-12.56,14.88-19.66,21.71l1.09-6.16c6.3-6.64,12.17-13.92,17.36-21.31Z"/>
      <path class="cls-3" d="M313.12,209.07l1.38,6.69s0,0,0,0c-1.59,2.29-3.24,4.56-4.95,6.81l-1.26-6c1.7-2.5,3.31-5.01,4.83-7.5,0,0,0,0,0,0Z"/>
      <path class="cls-3" d="M329.67,189.51l-4.79,9.59c-2.49,4.54-5.26,9.08-8.28,13.59l-1.45-7.01c1.29-2.22,2.5-4.41,3.63-6.58l4.57-9.89c13.52-32.18,12.75-63.47-5.28-82.94-18.23-19.7-49.89-22.71-83.43-11.23l-2.09-10.9c37.57-13.97,73.43-11.26,93.78,10.72,20.41,22.05,20.29,58.15,3.35,94.65Z"/>
    </g>
    <path class="cls-3" d="M151.72,288.08c-1.33-.53-2.62-1.11-3.89-1.74-.11-.04-.21-.1-.32-.16-5.49-2.76-10.4-6.37-14.61-10.85-29.78-31.75-12.48-95.39,38.65-142.14,14.95-13.66,31.13-24.38,47.3-31.9l.82-11.75c-17.51,8.11-35.05,19.7-51.25,34.5-55.1,50.38-73.75,118.97-41.65,153.19,26.79,28.58,80.47,24.16,129.53-7.37l-.59-3.06c-36.64,24.42-76.43,32.46-103.98,21.28Z"/>
  </g>
  <path class="cls-3" d="M394.89,251.08l-77.06,1.34c-1.58.03-2.96-1.05-3.3-2.59l-1.12-5.07-14.66-75.36-13.27,74.99-1.02,5.81-11.08,62.63c-.26,1.6-1.63,2.76-3.25,2.76s-2.99-1.14-3.28-2.71l-8.12-42.32-.6-3.15-31.37-163.54-5.79,99.22c-.08.9-.37,1.3-.81,1.79-.26.29-.62.48-1.01.55-.38.06-.7.13-1.02.14-.26,0-.49,0-.71-.04-.01,0-.03,0-.04,0-1.21-.16-1.88-.78-2.26-1.42-.25-.37-.4-.78-.47-1.21-.01-.06-.03-.12-.04-.16v-.02c-.02-.22-.02-.45,0-.68-.04-2.59-.41-4.47-.81-5.77-.25-.58-.49-1.11-.69-1.58-.18-.4-.38-.82-.6-1.25-1.07-2.1-2.64-4.54-4.69-7.29-2.46-3.32-5.63-6.1-9.49-8.38-3.88-2.27-8.46-3.43-13.76-3.47-6.46,0-11.07,1.91-13.83,5.74-2.76,3.81-4.14,7.47-4.14,10.96,0,10.02,7.39,17.58,22.17,22.68,12.7,4.46,22.15,10.05,28.32,16.78,6.18,6.74,9.28,14.29,9.28,22.65s-3.09,16.69-9.28,24.32c-6.17,7.62-17.36,11.43-33.54,11.43-3.19,0-8.1-.95-14.74-2.87-6.66-1.91-11.32-2.87-13.99-2.87-1.13,0-1.96.76-2.5,2.29-.13.36-.24.75-.32,1.18-1.69-.65-3.2-1.35-4.45-1.99v-36.97h3.89l3.63,11.98c1.4,4.71,4.87,9.89,10.41,15.54,5.54,5.65,11.74,8.48,18.57,8.48,9.44,0,15.67-2.08,18.7-6.21,3.03-4.15,4.56-8.34,4.56-12.59,0-3.35-.88-6.29-2.65-8.79-1.75-2.5-4.89-5.14-9.39-7.9-4.5-2.76-11.64-6.42-21.41-10.96-8.62-3.99-14.92-9.12-18.86-15.39-3.94-6.27-5.92-12.44-5.92-18.51,0-10.79,3.4-19.23,10.22-25.33,6.82-6.09,14.28-9.14,22.39-9.14,5.14,0,9.07.34,11.79,1.02,2.72.67,6.05,1.71,10,3.09,3.94,1.38,6.96,2.09,9.05,2.13.47,0,.9-.09,1.26-.26.25-.12.47-.27.67-.47.49-.49.96-1.21,1.41-2.17,0-.01.02-.03.02-.05.31-.73.96-2.61,1.21-6.22l4.55-65.73.82-11.9.41-6c.23-1.63,1.62-2.85,3.22-2.89,1.72.06,3.04,1.15,3.34,2.72l.57,2.99,2.08,10.83,32.06,167.12.64,3.31,5.17,26.96,6.55-36.11.93-5.15,17.8-98.2c.26-1.51,1.45-2.62,2.96-2.75,1.45-.2,2.89.69,3.42,2.13l11.42,55.35h0s.1.48.1.48l1.38,6.69.9,4.37,4.99,26.66,74.51,4.3Z"/>
</svg>