<?xml version="1.0" encoding="UTF-8"?>
<svg id="Layer_1" data-name="Layer 1" xmlns="http://www.w3.org/2000/svg" viewBox="0 0 500 500">
  <defs>
    <style>
      .cls-1 {
        stroke: #1a1a18;
        stroke-miterlimit: 2.61;
        stroke-width: .07px;
      }

      .cls-1, .cls-2 {
        fill: none;
      }

      .cls-3 {
        fill: #020204;
      }

      .cls-4 {
        fill: #ffd109;
        fill-rule: evenodd;
      }

      .cls-2 {
        stroke: #ffec00;
        stroke-miterlimit: 22.93;
        stroke-width: .03px;
      }
    </style>
  </defs>
  <rect class="cls-3" x="8.45" y="177.91" width="483.21" height="144.17"/>
  <rect class="cls-1" x="8.45" y="177.91" width="483.21" height="144.17"/>
  <path class="cls-4" d="M255.46,310.82c1.39,0,2.59-.2,3.6-.59,1.02-.4,1.85-1.02,2.49-1.86.64-.84,1.11-1.9,1.39-3.16.28-1.26.43-2.75.43-4.46v-19.99h-6.17v20.73c0,1.19-.17,2.01-.5,2.47-.33.46-.94.69-1.8.69-.37,0-.74-.02-1.1-.07-.36-.05-.98-.19-1.88-.41l.45,6.21c.54.17,1.07.29,1.56.35.5.06,1,.09,1.52.09ZM286.22,296.48l.04-15.72h-6.35c-1.91,0-3.67.25-5.28.74-1.61.5-3,1.21-4.18,2.16-1.18.94-2.1,2.09-2.77,3.44-.67,1.35-1,2.88-1,4.59,0,1.93.35,3.6,1.04,5,.69,1.4,1.64,2.54,2.84,3.42,1.2.88,2.6,1.52,4.2,1.93,1.6.41,3.31.61,5.15.61h.04c-.02.22-.13.5-.32.82-.19.32-.44.57-.76.74-.32.17-.74.29-1.24.35-.51.06-1.11.09-1.8.09-.84,0-1.68-.07-2.53-.22-.84-.15-1.98-.45-3.42-.89l.45,6.28,1.86.52c.45.1.88.19,1.3.26.42.07.85.13,1.28.17.43.04.91.06,1.43.06,1.71,0,3.18-.21,4.4-.63,1.23-.42,2.24-1.02,3.03-1.78.79-.77,1.39-1.68,1.78-2.73.4-1.05.63-2.06.71-3.03h11.71v-24.93h2.42v-6.17h-8.58v24.93h-5.43ZM272.85,291.68c0-.72.15-1.37.45-1.95.3-.58.7-1.08,1.21-1.49.51-.41,1.1-.73,1.78-.97.68-.24,1.38-.35,2.1-.35h1.71v9.55h-1.71c-.79,0-1.53-.11-2.21-.32-.68-.21-1.26-.51-1.75-.91-.48-.4-.87-.89-1.15-1.49-.28-.59-.43-1.29-.43-2.08ZM322.34,296.48l.04-15.72h-6.35c-1.91,0-3.67.25-5.28.74-1.61.5-3,1.21-4.18,2.16-1.18.94-2.1,2.09-2.77,3.44-.67,1.35-1,2.88-1,4.59,0,1.93.35,3.6,1.04,5,.69,1.4,1.64,2.54,2.84,3.42,1.2.88,2.6,1.52,4.2,1.93,1.6.41,3.31.61,5.15.61h.04c-.02.22-.13.5-.32.82-.19.32-.44.57-.76.74-.32.17-.74.29-1.24.35-.51.06-1.11.09-1.8.09-.84,0-1.68-.07-2.53-.22-.84-.15-1.98-.45-3.42-.89l.45,6.28,1.86.52c.45.1.88.19,1.3.26.42.07.85.13,1.28.17.43.04.91.06,1.43.06,1.71,0,3.18-.21,4.4-.63,1.23-.42,2.24-1.02,3.03-1.78.79-.77,1.39-1.68,1.78-2.73.4-1.05.63-2.06.71-3.03h31.21v-9.44c0-1.59-.17-3.05-.5-4.4-.33-1.35-.94-2.48-1.8-3.4-.99-1.04-2.15-1.79-3.47-2.25-1.33-.46-2.86-.69-4.59-.69h-10.14l5.76-10.92h-6.69l-6.21,11.3c.05,1.26.25,2.34.61,3.23.36.89.84,1.73,1.43,2.53h15.76c.59,0,1.14.12,1.64.35.5.24.88.54,1.15.91.3.37.52.81.67,1.32.15.51.22,1.11.22,1.8v3.49h-24.93ZM308.97,291.68c0-.72.15-1.37.45-1.95.3-.58.7-1.08,1.21-1.49.51-.41,1.1-.73,1.78-.97.68-.24,1.38-.35,2.1-.35h1.71v9.55h-1.71c-.79,0-1.53-.11-2.21-.32-.68-.21-1.26-.51-1.75-.91s-.87-.89-1.15-1.49c-.28-.59-.43-1.29-.43-2.08ZM403.2,292.09v-9.48h-6.17v9.7c0,.84-.13,1.52-.39,2.04-.26.52-.61.94-1.04,1.26-.43.32-.92.54-1.45.67-.53.12-1.05.19-1.54.19h-3.34v-15.72h-6.17v20.36h-2.49c-1.09,0-2.09-.09-2.99-.28-.9-.19-1.65-.53-2.25-1.02-.5-.42-.85-.99-1.06-1.71-.21-.72-.32-1.61-.32-2.68v-12h-6.17v12.63c0,1.56.19,3.06.58,4.5.38,1.44,1.07,2.61,2.06,3.53.59.57,1.23,1.06,1.9,1.47.67.41,1.4.74,2.19,1,.79.26,1.65.45,2.58.56.93.11,1.96.17,3.1.17h9.03v-4.64h3.34c1.49,0,2.9-.3,4.25-.89,1.35-.59,2.37-1.26,3.07-2.01.22.4.63.84,1.23,1.32.59.48,1.23.87,1.91,1.17.68.3,1.39.5,2.12.61.73.11,1.47.17,2.21.17,3.84,0,6.44-.99,7.8-2.97,0-.02.18.15.54.54.36.38.82.73,1.37,1.04.56.31,1.22.56,1.99.74.36.09.8.16,1.3.2v.08h13.93v-21.89h-6.17v15.72h-5.83c-1.21,0-2.27-.11-3.18-.33-.9-.22-1.55-.5-1.95-.82.2-.89.3-2.01.3-3.34v-13.82h-6.13v14.49c0,1.31-.33,2.34-.98,3.08-.66.74-1.65,1.11-2.99,1.11-1.26,0-2.27-.37-3.01-1.1-.74-.73-1.14-1.86-1.19-3.4v-.26ZM404.09,278.34c.87,0,1.63-.26,2.3-.78.67-.52,1-1.29,1-2.3,0-.92-.32-1.65-.95-2.21-.63-.56-1.42-.84-2.36-.84s-1.69.28-2.32.84c-.63.56-.95,1.29-.95,2.21,0,1.02.33,1.78,1,2.3.67.52,1.42.78,2.27.78ZM396.22,278.34c.84,0,1.6-.26,2.29-.78.68-.52,1.02-1.29,1.02-2.3,0-.92-.32-1.65-.97-2.21-.64-.56-1.42-.84-2.34-.84s-1.69.28-2.32.84c-.63.56-.95,1.29-.95,2.21,0,1.02.33,1.78,1,2.3s1.42.78,2.27.78ZM400.15,272.43c.77,0,1.46-.24,2.06-.71.61-.47.91-1.15.91-2.04,0-.82-.28-1.48-.85-1.99-.57-.51-1.28-.76-2.12-.76s-1.55.25-2.12.76c-.57.51-.85,1.17-.85,1.99,0,.89.31,1.57.93,2.04.62.47,1.3.71,2.04.71ZM427.02,278.57c.92,0,1.71-.27,2.38-.82.67-.54,1-1.33,1-2.34,0-.94-.33-1.7-.98-2.27-.66-.57-1.46-.85-2.4-.85s-1.74.28-2.4.85c-.66.57-.98,1.33-.98,2.27,0,1.02.33,1.8,1,2.34.67.55,1.46.82,2.38.82ZM435.08,278.57c.92,0,1.71-.27,2.38-.82.67-.54,1-1.33,1-2.34,0-.94-.32-1.7-.97-2.27-.64-.57-1.45-.85-2.42-.85s-1.74.28-2.4.85c-.66.57-.98,1.33-.98,2.27,0,1.02.33,1.8,1,2.34.67.55,1.46.82,2.38.82ZM457.75,300.75l.04-19.99h-6.35c-1.91,0-3.67.25-5.28.74-1.61.5-3,1.21-4.18,2.16-1.18.94-2.1,2.09-2.77,3.44-.67,1.35-1,2.88-1,4.59,0,1.93.35,3.6,1.04,5,.69,1.4,1.64,2.54,2.84,3.42,1.2.88,2.6,1.52,4.2,1.93,1.6.41,3.31.61,5.15.61h.04c-.02.22-.13.5-.32.82-.19.32-.44.57-.76.74-.32.17-.74.29-1.24.35-.51.06-1.11.09-1.8.09-.84,0-1.68-.07-2.53-.22-.84-.15-1.98-.45-3.42-.89l.45,6.28,1.86.52c.45.1.88.19,1.3.26.42.07.85.13,1.28.17.43.04.91.06,1.43.06,1.88,0,3.47-.25,4.78-.74,1.3-.5,2.34-1.2,3.12-2.1.78-.9,1.33-1.97,1.65-3.2.32-1.23.48-2.57.48-4.03ZM444.37,291.68c0-.72.15-1.37.45-1.95.3-.58.7-1.08,1.21-1.49.51-.41,1.1-.73,1.78-.97.68-.24,1.38-.35,2.1-.35h1.71v9.55h-1.71c-.79,0-1.53-.11-2.21-.32-.68-.21-1.26-.51-1.75-.91s-.87-.89-1.15-1.49c-.28-.59-.43-1.29-.43-2.08ZM460.35,296.48v6.17h19.14v-11.15c0-1.59-.17-3.05-.5-4.4-.33-1.35-.94-2.48-1.8-3.4-.99-1.04-2.15-1.79-3.47-2.25-1.33-.46-2.86-.69-4.59-.69h-2.19v6.17h2.71c.59,0,1.14.11,1.64.33.5.22.88.52,1.15.89.3.37.52.81.67,1.32.15.51.22,1.11.22,1.8v5.2h-12.97ZM239.76,321.91l251.84.18.06-66.44h-251.68s-.22,66.27-.22,66.27Z"/>
  <path class="cls-2" d="M255.46,310.82c1.39,0,2.59-.2,3.6-.59,1.02-.4,1.85-1.02,2.49-1.86.64-.84,1.11-1.9,1.39-3.16.28-1.26.43-2.75.43-4.46v-19.99h-6.17v20.73c0,1.19-.17,2.01-.5,2.47-.33.46-.94.69-1.8.69-.37,0-.74-.02-1.1-.07-.36-.05-.98-.19-1.88-.41l.45,6.21c.54.17,1.07.29,1.56.35.5.06,1,.09,1.52.09ZM286.22,296.48l.04-15.72h-6.35c-1.91,0-3.67.25-5.28.74-1.61.5-3,1.21-4.18,2.16-1.18.94-2.1,2.09-2.77,3.44-.67,1.35-1,2.88-1,4.59,0,1.93.35,3.6,1.04,5,.69,1.4,1.64,2.54,2.84,3.42,1.2.88,2.6,1.52,4.2,1.93,1.6.41,3.31.61,5.15.61h.04c-.02.22-.13.5-.32.82-.19.32-.44.57-.76.74-.32.17-.74.29-1.24.35-.51.06-1.11.09-1.8.09-.84,0-1.68-.07-2.53-.22-.84-.15-1.98-.45-3.42-.89l.45,6.28,1.86.52c.45.1.88.19,1.3.26.42.07.85.13,1.28.17.43.04.91.06,1.43.06,1.71,0,3.18-.21,4.4-.63,1.23-.42,2.24-1.02,3.03-1.78.79-.77,1.39-1.68,1.78-2.73.4-1.05.63-2.06.71-3.03h11.71v-24.93h2.42v-6.17h-8.58v24.93h-5.43ZM272.85,291.68c0-.72.15-1.37.45-1.95.3-.58.7-1.08,1.21-1.49.51-.41,1.1-.73,1.78-.97.68-.24,1.38-.35,2.1-.35h1.71v9.55h-1.71c-.79,0-1.53-.11-2.21-.32-.68-.21-1.26-.51-1.75-.91-.48-.4-.87-.89-1.15-1.49-.28-.59-.43-1.29-.43-2.08ZM322.34,296.48l.04-15.72h-6.35c-1.91,0-3.67.25-5.28.74-1.61.5-3,1.21-4.18,2.16-1.18.94-2.1,2.09-2.77,3.44-.67,1.35-1,2.88-1,4.59,0,1.93.35,3.6,1.04,5,.69,1.4,1.64,2.54,2.84,3.42,1.2.88,2.6,1.52,4.2,1.93,1.6.41,3.31.61,5.15.61h.04c-.02.22-.13.5-.32.82-.19.32-.44.57-.76.74-.32.17-.74.29-1.24.35-.51.06-1.11.09-1.8.09-.84,0-1.68-.07-2.53-.22-.84-.15-1.98-.45-3.42-.89l.45,6.28,1.86.52c.45.1.88.19,1.3.26.42.07.85.13,1.28.17.43.04.91.06,1.43.06,1.71,0,3.18-.21,4.4-.63,1.23-.42,2.24-1.02,3.03-1.78.79-.77,1.39-1.68,1.78-2.73.4-1.05.63-2.06.71-3.03h31.21v-9.44c0-1.59-.17-3.05-.5-4.4-.33-1.35-.94-2.48-1.8-3.4-.99-1.04-2.15-1.79-3.47-2.25-1.33-.46-2.86-.69-4.59-.69h-10.14l5.76-10.92h-6.69l-6.21,11.3c.05,1.26.25,2.34.61,3.23.36.89.84,1.73,1.43,2.53h15.76c.59,0,1.14.12,1.64.35.5.24.88.54,1.15.91.3.37.52.81.67,1.32.15.51.22,1.11.22,1.8v3.49h-24.93ZM308.97,291.68c0-.72.15-1.37.45-1.95.3-.58.7-1.08,1.21-1.49.51-.41,1.1-.73,1.78-.97.68-.24,1.38-.35,2.1-.35h1.71v9.55h-1.71c-.79,0-1.53-.11-2.21-.32-.68-.21-1.26-.51-1.75-.91s-.87-.89-1.15-1.49c-.28-.59-.43-1.29-.43-2.08ZM403.2,292.09v-9.48h-6.17v9.7c0,.84-.13,1.52-.39,2.04-.26.52-.61.94-1.04,1.26-.43.32-.92.54-1.45.67-.53.12-1.05.19-1.54.19h-3.34v-15.72h-6.17v20.36h-2.49c-1.09,0-2.09-.09-2.99-.28-.9-.19-1.65-.53-2.25-1.02-.5-.42-.85-.99-1.06-1.71-.21-.72-.32-1.61-.32-2.68v-12h-6.17v12.63c0,1.56.19,3.06.58,4.5.38,1.44,1.07,2.61,2.06,3.53.59.57,1.23,1.06,1.9,1.47.67.41,1.4.74,2.19,1,.79.26,1.65.45,2.58.56.93.11,1.96.17,3.1.17h9.03v-4.64h3.34c1.49,0,2.9-.3,4.25-.89,1.35-.59,2.37-1.26,3.07-2.01.22.4.63.84,1.23,1.32.59.48,1.23.87,1.91,1.17.68.3,1.39.5,2.12.61.73.11,1.47.17,2.21.17,3.84,0,6.44-.99,7.8-2.97,0-.02.18.15.54.54.36.38.82.73,1.37,1.04.56.31,1.22.56,1.99.74.36.09.8.16,1.3.2v.08h13.93v-21.89h-6.17v15.72h-5.83c-1.21,0-2.27-.11-3.18-.33-.9-.22-1.55-.5-1.95-.82.2-.89.3-2.01.3-3.34v-13.82h-6.13v14.49c0,1.31-.33,2.34-.98,3.08-.66.74-1.65,1.11-2.99,1.11-1.26,0-2.27-.37-3.01-1.1-.74-.73-1.14-1.86-1.19-3.4v-.26ZM404.09,278.34c.87,0,1.63-.26,2.3-.78.67-.52,1-1.29,1-2.3,0-.92-.32-1.65-.95-2.21-.63-.56-1.42-.84-2.36-.84s-1.69.28-2.32.84c-.63.56-.95,1.29-.95,2.21,0,1.02.33,1.78,1,2.3.67.52,1.42.78,2.27.78ZM396.22,278.34c.84,0,1.6-.26,2.29-.78.68-.52,1.02-1.29,1.02-2.3,0-.92-.32-1.65-.97-2.21-.64-.56-1.42-.84-2.34-.84s-1.69.28-2.32.84c-.63.56-.95,1.29-.95,2.21,0,1.02.33,1.78,1,2.3s1.42.78,2.27.78ZM400.15,272.43c.77,0,1.46-.24,2.06-.71.61-.47.91-1.15.91-2.04,0-.82-.28-1.48-.85-1.99-.57-.51-1.28-.76-2.12-.76s-1.55.25-2.12.76c-.57.51-.85,1.17-.85,1.99,0,.89.31,1.57.93,2.04.62.47,1.3.71,2.04.71ZM427.02,278.57c.92,0,1.71-.27,2.38-.82.67-.54,1-1.33,1-2.34,0-.94-.33-1.7-.98-2.27-.66-.57-1.46-.85-2.4-.85s-1.74.28-2.4.85c-.66.57-.98,1.33-.98,2.27,0,1.02.33,1.8,1,2.34.67.55,1.46.82,2.38.82ZM435.08,278.57c.92,0,1.71-.27,2.38-.82.67-.54,1-1.33,1-2.34,0-.94-.32-1.7-.97-2.27-.64-.57-1.45-.85-2.42-.85s-1.74.28-2.4.85c-.66.57-.98,1.33-.98,2.27,0,1.02.33,1.8,1,2.34.67.55,1.46.82,2.38.82ZM457.75,300.75l.04-19.99h-6.35c-1.91,0-3.67.25-5.28.74-1.61.5-3,1.21-4.18,2.16-1.18.94-2.1,2.09-2.77,3.44-.67,1.35-1,2.88-1,4.59,0,1.93.35,3.6,1.04,5,.69,1.4,1.64,2.54,2.84,3.42,1.2.88,2.6,1.52,4.2,1.93,1.6.41,3.31.61,5.15.61h.04c-.02.22-.13.5-.32.82-.19.32-.44.57-.76.74-.32.17-.74.29-1.24.35-.51.06-1.11.09-1.8.09-.84,0-1.68-.07-2.53-.22-.84-.15-1.98-.45-3.42-.89l.45,6.28,1.86.52c.45.1.88.19,1.3.26.42.07.85.13,1.28.17.43.04.91.06,1.43.06,1.88,0,3.47-.25,4.78-.74,1.3-.5,2.34-1.2,3.12-2.1.78-.9,1.33-1.97,1.65-3.2.32-1.23.48-2.57.48-4.03ZM444.37,291.68c0-.72.15-1.37.45-1.95.3-.58.7-1.08,1.21-1.49.51-.41,1.1-.73,1.78-.97.68-.24,1.38-.35,2.1-.35h1.71v9.55h-1.71c-.79,0-1.53-.11-2.21-.32-.68-.21-1.26-.51-1.75-.91s-.87-.89-1.15-1.49c-.28-.59-.43-1.29-.43-2.08ZM460.35,296.48v6.17h19.14v-11.15c0-1.59-.17-3.05-.5-4.4-.33-1.35-.94-2.48-1.8-3.4-.99-1.04-2.15-1.79-3.47-2.25-1.33-.46-2.86-.69-4.59-.69h-2.19v6.17h2.71c.59,0,1.14.11,1.64.33.5.22.88.52,1.15.89.3.37.52.81.67,1.32.15.51.22,1.11.22,1.8v5.2h-12.97ZM239.76,321.91l251.84.18.06-66.44h-251.68s-.22,66.27-.22,66.27Z"/>
  <path class="cls-4" d="M25.31,304.18l-3.62-4.14c.24-.31.55-.68.95-1.13.4-.44.89-1.01,1.48-1.69.5-.58.96-1.07,1.37-1.46.41-.39.77-.72,1.06-1-3.3-1.43-4.95-4.19-4.95-8.29,0-2.86.84-5.22,2.52-7.06,1.71-1.84,3.89-2.76,6.54-2.76.91,0,2.06.2,3.45.61v5.88c-1.3-.31-2.31-.46-3.05-.46-2.74,0-4.11,1.24-4.11,3.73,0,1.19.46,2.16,1.39,2.89.93.73,2.22,1.1,3.86,1.1.29,0,.56-.02.8-.05.24-.03.47-.07.71-.1.44-.1.99-.25,1.63-.43.65-.19,1.4-.47,2.25-.84v6.09c-1.44.44-2.97,1.19-4.59,2.25-.62.38-1.23.79-1.83,1.25-.6.46-1.2.95-1.79,1.46-1.5,1.33-2.86,2.71-4.06,4.14M41.57,299.83v-33.05h5.26v26.96h6.49v-17.09h5.26v17.09h6.49v-17.09h5.26v17.09h6.49v-26.96h5.26v33.05h-40.5ZM53.32,266.79h5.26v6.09h-5.26v-6.09ZM65.07,303.67h5.26v6.19h-5.26v-6.19ZM91.3,299.83h-5.26v-33.05h5.26v33.05ZM138.74,299.83h-27.12c-1.21,0-2.3-.23-3.29-.69-.99-.46-1.83-1.12-2.54-1.97-.71-.85-1.25-1.87-1.63-3.04-.38-1.18-.57-2.48-.57-3.91v-11.15h5.26v11.36c0,2.22,1.09,3.33,3.27,3.33h21.38v-17.09h5.26v23.17ZM114.75,276.66h5.34v6.09h-5.34v-6.09ZM122.26,276.66h5.26v6.09h-5.26v-6.09ZM142.8,299.83v-33.05h5.26v26.96h11.13v-17.09h5.26v17.09h6.45v-17.09h5.26v17.09h9.14c-.21-.34-.47-.68-.8-1.02-1.21-1.81-1.81-3.87-1.81-6.19,0-3.96,1.43-6.87,4.28-8.75,1.21-.75,2.92-1.13,5.12-1.13h6.27v17.09h11.13v-17.09h5.26v17.09h6.45v-26.96h5.26v33.05h-83.65ZM151.68,303.67h5.26v6.19h-5.26v-6.19ZM159.19,303.67h5.26v6.19h-5.26v-6.19ZM170.89,266.79h5.26v6.09h-5.26v-6.09ZM184.14,266.79h5.3v6.09h-5.3v-6.09ZM191.61,266.79h5.3v6.09h-5.3v-6.09ZM193.11,292.98v-10.23h-1.33c-2.53,0-3.8,1.23-3.8,3.68,0,2.97,1.71,5.15,5.12,6.55ZM201.99,266.79h5.26v6.09h-5.26v-6.09ZM209.49,266.79h5.26v6.09h-5.26v-6.09Z"/>
  <path class="cls-4" d="M459.87,209.63h5.76c3.73,0,6.05-.2,6.99-.58.92-.38,1.66-1.05,2.18-1.99.53-.94.79-2.13.79-3.54,0-1.59-.35-2.86-1.04-3.85-.69-.98-1.67-1.59-2.92-1.84-.64-.11-2.53-.16-5.68-.16h-6.07v11.97ZM452.06,236.79v-47.08h16.39c4.12,0,7.11.43,8.98,1.27,1.87.84,3.36,2.35,4.48,4.5,1.12,2.17,1.69,4.64,1.69,7.42,0,3.54-.84,6.45-2.54,8.76-1.7,2.3-4.22,3.75-7.6,4.35,1.68,1.19,3.06,2.51,4.14,3.95,1.09,1.44,2.57,3.99,4.41,7.65l4.7,9.18h-9.3l-5.58-10.28c-2-3.65-3.37-5.95-4.12-6.9-.74-.94-1.52-1.6-2.34-1.95-.83-.35-2.14-.53-3.94-.53h-1.58v19.66h-7.8ZM416.61,213.22c0,5.34,1.01,9.38,3.03,12.14,2.02,2.75,4.58,4.13,7.69,4.13s5.66-1.37,7.66-4.1c1.99-2.74,2.99-6.84,2.99-12.31s-.97-9.44-2.92-12.09c-1.94-2.66-4.51-3.99-7.73-3.99s-5.8,1.35-7.77,4.03c-1.96,2.7-2.95,6.75-2.95,12.18ZM408.59,213.53c0-4.8.59-8.83,1.77-12.1.87-2.4,2.07-4.56,3.59-6.47,1.52-1.91,3.18-3.32,4.98-4.25,2.4-1.24,5.18-1.86,8.31-1.86,5.69,0,10.23,2.16,13.64,6.47,3.41,4.32,5.11,10.31,5.11,17.99s-1.7,13.58-5.08,17.87c-3.38,4.31-7.91,6.45-13.57,6.45s-10.3-2.14-13.68-6.42c-3.38-4.27-5.08-10.17-5.08-17.69ZM377.54,236.79v-46.69h7.8v38.73h19.32v7.96h-27.12ZM341.87,213.22c0,5.34,1.01,9.38,3.03,12.14,2.02,2.75,4.58,4.13,7.69,4.13s5.66-1.37,7.66-4.1c1.99-2.74,2.99-6.84,2.99-12.31s-.97-9.44-2.92-12.09c-1.94-2.66-4.51-3.99-7.73-3.99s-5.8,1.35-7.77,4.03c-1.96,2.7-2.95,6.75-2.95,12.18ZM333.85,213.53c0-4.8.59-8.83,1.77-12.1.87-2.4,2.07-4.56,3.59-6.47,1.52-1.91,3.18-3.32,4.98-4.25,2.4-1.24,5.18-1.86,8.31-1.86,5.69,0,10.23,2.16,13.64,6.47,3.41,4.32,5.11,10.31,5.11,17.99s-1.7,13.58-5.08,17.87c-3.38,4.31-7.91,6.45-13.57,6.45s-10.3-2.14-13.68-6.42c-3.38-4.27-5.08-10.17-5.08-17.69ZM321.25,219.43l7.53,2.83c-1.16,5.18-3.09,9.03-5.78,11.55-2.69,2.51-6.1,3.77-10.23,3.77-5.12,0-9.33-2.14-12.63-6.41-3.29-4.27-4.94-10.12-4.94-17.53,0-7.84,1.66-13.93,4.97-18.27,3.31-4.34,7.67-6.51,13.07-6.51,4.72,0,8.55,1.71,11.49,5.12,1.76,2.02,3.07,4.91,3.95,8.69l-7.7,2.24c-.46-2.43-1.41-4.36-2.85-5.78-1.45-1.41-3.21-2.12-5.27-2.12-2.86,0-5.18,1.25-6.96,3.76-1.78,2.5-2.67,6.55-2.67,12.16,0,5.94.88,10.18,2.63,12.7,1.76,2.53,4.04,3.79,6.84,3.79,2.07,0,3.86-.8,5.35-2.41,1.49-1.61,2.57-4.13,3.21-7.58Z"/>
  <path class="cls-4" d="M288.62,177.92H8.55s-.21,66.43-.21,66.43h280.28s0-66.43,0-66.43ZM16.69,187.1h14.82c3.34,0,5.89.3,7.64.9,2.35.81,4.38,2.26,6.05,4.34,1.69,2.07,2.96,4.61,3.84,7.63.87,3,1.31,6.72,1.31,11.12,0,3.88-.41,7.21-1.24,10.02-1,3.43-2.44,6.2-4.3,8.32-1.41,1.61-3.31,2.86-5.7,3.76-1.79.67-4.18,1-7.18,1h-15.26v-47.08ZM24.84,195.06v31.17h6.04c2.26,0,3.89-.15,4.89-.45,1.32-.38,2.41-1.04,3.27-1.96.87-.92,1.57-2.43,2.12-4.54.55-2.1.82-4.99.82-8.62s-.27-6.42-.82-8.37c-.54-1.95-1.31-3.46-2.3-4.56-.98-1.08-2.23-1.83-3.75-2.21-1.12-.3-3.34-.45-6.64-.45h-3.64ZM57.29,234.18v-47.08h29.79v7.96h-21.64v10.45h20.12v7.96h-20.12v12.76h22.43v7.96h-30.58ZM94.78,187.1h8.15v25.51c0,4.05.1,6.67.3,7.87.35,1.93,1.16,3.48,2.45,4.65,1.3,1.17,3.07,1.75,5.32,1.75s4-.55,5.16-1.65c1.16-1.11,1.86-2.45,2.09-4.07.23-1.61.36-4.27.36-8v-26.06h8.15v24.76c0,5.65-.22,9.65-.66,11.99-.44,2.33-1.25,4.31-2.43,5.92-1.17,1.61-2.75,2.88-4.71,3.84-1.98.95-4.54,1.44-7.72,1.44-3.83,0-6.74-.52-8.71-1.56-1.98-1.04-3.54-2.39-4.69-4.05-1.15-1.67-1.9-3.4-2.27-5.23-.53-2.7-.8-6.68-.8-11.96v-25.14ZM144.43,234.18v-39.12h-11.92v-7.96h31.93v7.96h-11.86v39.12h-8.15ZM167.58,218.92l7.93-.92c.48,3.1,1.43,5.37,2.89,6.83,1.45,1.46,3.41,2.18,5.87,2.18,2.6,0,4.57-.65,5.89-1.94,1.32-1.29,1.99-2.81,1.99-4.54,0-1.12-.28-2.06-.83-2.85-.55-.78-1.53-1.46-2.91-2.03-.95-.39-3.1-1.07-6.47-2.06-4.34-1.27-7.38-2.83-9.13-4.68-2.46-2.6-3.69-5.76-3.69-9.5,0-2.4.58-4.66,1.73-6.75,1.16-2.09,2.83-3.68,5.01-4.78,2.18-1.1,4.81-1.64,7.9-1.64,5.03,0,8.83,1.3,11.36,3.92,2.55,2.62,3.88,6.1,4.01,10.48l-8.15.33c-.35-2.43-1.09-4.18-2.22-5.24-1.13-1.06-2.84-1.6-5.11-1.6s-4.18.57-5.5,1.71c-.85.73-1.28,1.71-1.28,2.94,0,1.12.4,2.07,1.21,2.86,1.02,1.02,3.5,2.07,7.45,3.17,3.94,1.08,6.86,2.22,8.74,3.39,1.89,1.17,3.37,2.76,4.44,4.79,1.07,2.03,1.6,4.53,1.6,7.5,0,2.7-.64,5.23-1.92,7.58-1.28,2.36-3.09,4.11-5.43,5.25-2.34,1.15-5.27,1.72-8.76,1.72-5.09,0-8.99-1.37-11.72-4.12-2.73-2.74-4.35-6.74-4.88-11.99ZM232.95,216.82l7.87,2.83c-1.21,5.18-3.22,9.03-6.03,11.55-2.81,2.51-6.37,3.77-10.69,3.77-5.35,0-9.74-2.14-13.19-6.41-3.44-4.27-5.16-10.12-5.16-17.53,0-7.84,1.73-13.93,5.19-18.27,3.46-4.34,8.01-6.51,13.65-6.51,4.93,0,8.93,1.71,12,5.12,1.84,2.02,3.2,4.91,4.12,8.69l-8.04,2.24c-.48-2.43-1.47-4.36-2.98-5.78-1.52-1.41-3.35-2.12-5.51-2.12-2.99,0-5.42,1.25-7.27,3.76-1.86,2.5-2.79,6.55-2.79,12.16,0,5.94.92,10.18,2.75,12.7,1.84,2.53,4.22,3.79,7.15,3.79,2.16,0,4.03-.8,5.58-2.41,1.56-1.61,2.68-4.13,3.35-7.58ZM247.8,234.18v-47.08h8.15v18.54h15.85v-18.54h8.15v47.08h-8.15v-20.58h-15.85v20.58h-8.15Z"/>
</svg>