<?xml version="1.0" encoding="UTF-8"?>
<svg id="Layer_1" data-name="Layer 1" xmlns="http://www.w3.org/2000/svg" xmlns:xlink="http://www.w3.org/1999/xlink" viewBox="0 0 500 500">
  <defs>
    <style>
      .cls-1 {
        fill: none;
      }

      .cls-2 {
        fill: #fff;
      }

      .cls-3 {
        clip-path: url(#clippath);
      }
    </style>
    <clipPath id="clippath">
      <path class="cls-1" d="M364.46,194.54c0,70.49-48.9,113.68-119.98,113.68h-104.8V80.86h104.8c71.07,0,119.98,43.21,119.98,113.68Z"/>
    </clipPath>
  </defs>
  <g class="cls-3">
    <g>
      <rect class="cls-2" x="254.61" y="5.98" width="92.51" height="251.74" rx="6.71" ry="6.71" transform="translate(181.35 -174.12) rotate(45)"/>
      <path class="cls-2" d="M74.41,192.88h85.81v251.74h-92.51v-245.04c0-3.7,3-6.7,6.7-6.7Z" transform="translate(258.77 12.77) rotate(45)"/>
      <path class="cls-2" d="M133.12,258.29h85.54c3.84,0,6.96,3.12,6.96,6.96v237.81c0,3.84-3.12,6.96-6.96,6.96h-78.58c-3.84,0-6.96-3.12-6.96-6.96v-244.77h0Z" transform="translate(324.18 -14.32) rotate(45)"/>
      <rect class="cls-2" x="218.63" y="-106.65" width="92.51" height="251.74" rx="7.15" ry="7.15" transform="translate(91.17 -181.67) rotate(45)"/>
      <rect class="cls-2" x="31.75" y="80.27" width="92.51" height="251.74" rx="6.84" ry="6.84" transform="translate(168.61 5.22) rotate(45)"/>
      <rect class="cls-2" x="328.93" y="80.27" width="92.51" height="251.74" rx="6.68" ry="6.68" transform="translate(255.65 -204.92) rotate(45)"/>
    </g>
  </g>
  <g>
    <path class="cls-2" d="M139.78,319.69h25.67c17.41,0,29.39,9.9,29.39,26.04s-11.98,26.04-29.39,26.04h-25.67v-52.08ZM164.7,358.08c7.37,0,12.43-4.39,12.43-12.35s-5.06-12.35-12.43-12.35h-7.37v24.7h7.37Z"/>
    <path class="cls-2" d="M244.53,358.53v13.24h-43.3v-52.08h42.33v13.24h-25.07v6.1h22.02v12.65h-22.02v6.85h26.04Z"/>
    <path class="cls-2" d="M249.22,345.73c0-16,12.28-27.23,29.02-27.23,10.19,0,18.23,3.72,23.36,10.42l-11.09,9.9c-3.05-3.87-6.7-6.1-11.38-6.1-7.29,0-12.2,5.06-12.2,13.02s4.91,13.02,12.2,13.02c4.69,0,8.33-2.23,11.38-6.1l11.09,9.9c-5.13,6.7-13.17,10.42-23.36,10.42-16.74,0-29.02-11.23-29.02-27.23Z"/>
    <path class="cls-2" d="M303.46,345.73c0-15.77,12.42-27.23,29.39-27.23s29.39,11.46,29.39,27.23-12.42,27.23-29.39,27.23-29.39-11.46-29.39-27.23ZM344.53,345.73c0-8.11-5.21-13.02-11.68-13.02s-11.68,4.91-11.68,13.02,5.21,13.02,11.68,13.02,11.68-4.91,11.68-13.02Z"/>
  </g>
  <g>
    <path class="cls-2" d="M149.49,387.48v4.8h11.67v7.12h-11.67v8.96h-9.43v-27.98h22.75v7.12h-13.31Z"/>
    <path class="cls-2" d="M165.79,380.37h9.43v20.67h12.63v7.32h-22.07v-27.98Z"/>
    <path class="cls-2" d="M188.94,394.36c0-8.48,6.68-14.63,15.79-14.63s15.79,6.16,15.79,14.63-6.68,14.63-15.79,14.63-15.79-6.16-15.79-14.63ZM211.01,394.36c0-4.36-2.8-7-6.28-7s-6.28,2.64-6.28,7,2.8,7,6.28,7,6.28-2.64,6.28-7Z"/>
    <path class="cls-2" d="M222.84,394.36c0-8.48,6.68-14.63,15.79-14.63s15.79,6.16,15.79,14.63-6.68,14.63-15.79,14.63-15.79-6.16-15.79-14.63ZM244.91,394.36c0-4.36-2.8-7-6.28-7s-6.28,2.64-6.28,7,2.8,7,6.28,7,6.28-2.64,6.28-7Z"/>
    <path class="cls-2" d="M269.85,401.31h-2.56v7.04h-9.43v-27.98h13.47c7.8,0,12.75,4.08,12.75,10.55,0,4.04-1.92,7.08-5.28,8.79l5.88,8.64h-10.07l-4.76-7.04ZM270.73,387.64h-3.44v6.56h3.44c2.6,0,3.84-1.24,3.84-3.28s-1.24-3.28-3.84-3.28Z"/>
    <path class="cls-2" d="M287.64,380.37h9.43v27.98h-9.43v-27.98Z"/>
    <path class="cls-2" d="M329.22,380.37v27.98h-7.76l-10.63-12.71v12.71h-9.2v-27.98h7.76l10.63,12.71v-12.71h9.2Z"/>
    <path class="cls-2" d="M352.28,393.6h8.2v11.83c-3.4,2.32-8.07,3.56-12.19,3.56-9.04,0-15.63-6.04-15.63-14.63s6.6-14.63,15.83-14.63c5.52,0,9.95,1.92,12.79,5.4l-6.04,5.32c-1.76-2.04-3.8-3.08-6.28-3.08-4.16,0-6.79,2.68-6.79,7s2.64,7,6.68,7c1.16,0,2.28-.2,3.44-.68v-7.08Z"/>
  </g>
</svg>