<?xml version="1.0" encoding="UTF-8"?>
<svg id="Layer_1" data-name="Layer 1" xmlns="http://www.w3.org/2000/svg" xmlns:xlink="http://www.w3.org/1999/xlink" viewBox="0 0 500 500">
  <defs>
    <style>
      .cls-1 {
        fill: none;
      }

      .cls-2 {
        fill: #ffd109;
      }

      .cls-3 {
        clip-path: url(#clippath-1);
      }

      .cls-4 {
        clip-path: url(#clippath);
      }
    </style>
    <clipPath id="clippath">
      <rect class="cls-1" x="30.66" y="169.94" width="438.69" height="160.13"/>
    </clipPath>
    <clipPath id="clippath-1">
      <rect class="cls-1" x="30.66" y="169.94" width="438.69" height="160.13"/>
    </clipPath>
  </defs>
  <g class="cls-4">
    <rect x="31.22" y="272.19" width="2.66" height="39.64"/>
    <g class="cls-3">
      <path d="M40.58,274.74c0,2.94,4.3,2.94,4.3,0s-4.3-2.94-4.3,0"/>
      <rect x="41.34" y="283.75" width="2.66" height="28.09"/>
      <path d="M68.44,308.88c4.46-2.09,7.24-7.02,7.24-11.89,0-4.53-1.42-7.36-3.32-9.52l2.61-3.17-1.74-1.58-2.61,3.17c-2.07-1.53-4.9-2.55-7.62-2.55-6.97,0-12.62,4.93-12.62,13.65,0,7.47,4.84,13.53,12.62,13.53,5.01,0,10.18,2.38,10.18,8.38s-4.79,8.44-10.18,8.44-10.07-2.71-10.07-8.44h-2.66c0,7.08,5.6,11.15,12.73,11.15s12.79-3.62,12.79-11.15c0-4.81-2.61-8.27-7.35-10.03M53.04,297c0-7.31,4.46-10.87,9.96-10.87s10.07,3.79,10.07,10.87c0,5.77-4.52,10.76-10.07,10.76-6.15,0-9.96-4.98-9.96-10.76"/>
      <path d="M84.27,289.07v-16.88h-2.55v39.64h2.66v-15.35c0-5.83,3.92-10.36,9.58-10.36,6.04,0,8.65,3.91,8.65,9.68v16.03h2.61v-16.03c0-7.31-3.76-12.34-11.26-12.34-3.76.05-7.51,1.58-9.69,5.61"/>
      <path d="M123.28,309.68c-4.19,0-4.95-2.66-4.95-6.45v-17.05h9.14v-2.32h-9.14v-8.43l-2.61.28v8.15h-5.72v2.32h5.72v17.05c0,5.49,1.85,9,7.56,9,1.69,0,3.37-.57,5.06-1.41l-.93-2.27c-1.36.68-2.83,1.14-4.14,1.14"/>
      <path d="M132.85,274.74c0,2.94,4.3,2.94,4.3,0s-4.3-2.94-4.3,0"/>
      <rect x="133.61" y="283.75" width="2.66" height="28.09"/>
      <path d="M156.09,283.35c-3.76.06-7.51,1.64-9.58,5.49v-4.98h-2.61v27.98h2.66v-15.57c0-5.78,3.87-10.14,9.42-10.19,5.82-.06,9.58,3.34,9.58,9.68v16.09h2.67v-16.14c0-7.76-4.95-12.34-12.14-12.34"/>
      <path d="M192,308.88c4.46-2.09,7.24-7.02,7.24-11.89,0-4.53-1.42-7.36-3.32-9.52l2.61-3.17-1.74-1.58-2.61,3.17c-2.07-1.53-4.9-2.55-7.62-2.55-6.97,0-12.62,4.93-12.62,13.65,0,7.47,4.84,13.53,12.62,13.53,5.01,0,10.18,2.38,10.18,8.38s-4.79,8.44-10.18,8.44-10.07-2.71-10.07-8.44h-2.66c0,7.08,5.6,11.15,12.73,11.15s12.79-3.62,12.79-11.15c0-4.81-2.61-8.27-7.35-10.03M176.59,297c0-7.31,4.46-10.87,9.96-10.87s10.07,3.79,10.07,10.87c0,5.77-4.52,10.76-10.07,10.76-6.15,0-9.96-4.98-9.96-10.76"/>
      <path d="M296.68,281.92c-4.14,0-8.33,2.32-9.96,6.91-1.58-4.98-5.88-6.91-9.96-6.91-3.48,0-6.91,1.53-8.76,5.21l-.06-4.65h-2.5v27.98h2.67v-16.59c0-5.38,3.48-9.29,8.6-9.29s8.65,3.91,8.65,9.29v16.59h2.67v-16.59c0-5.38,3.54-9.35,8.65-9.35s8.6,3.8,8.6,9.17v16.77h2.66v-16.77c0-6.96-4.68-11.78-11.26-11.78"/>
      <path d="M338.62,288.61c-2.22-4.36-6.64-6.46-10.99-6.46-7.51,0-13.66,5.78-13.66,14.33s6.15,14.44,13.66,14.44c4.35,0,8.38-2.04,10.99-6.39v5.95h2.67v-27.98h-2.67v6.12ZM327.63,308.2c-6.1,0-11-4.7-11-11.72s4.89-11.67,11-11.67c14.97,0,14.97,23.39,0,23.39"/>
      <path d="M358.48,308.31c-4.19,0-4.95-2.66-4.95-6.45v-17.05h9.14v-2.32h-9.14v-8.44l-2.61.28v8.15h-5.72v2.32h5.72v17.05c0,5.49,1.85,9,7.56,9,1.69,0,3.37-.57,5.06-1.41l-.92-2.27c-1.36.68-2.83,1.14-4.14,1.14"/>
      <path d="M380.95,282.04c-7.56,0-13.66,6.06-13.66,14.44,0,8.89,6.09,14.38,13.66,14.38,4.3,0,8.98-1.81,11.59-5.38l-1.9-1.59c-2.01,2.78-6.15,4.25-9.69,4.25-5.55,0-10.39-3.8-10.94-10.37h24.22c1.04-10.93-5.72-15.74-13.28-15.74M370.01,295.34c.6-6.85,5.39-10.76,10.94-10.76,6.48,0,10.83,3.85,10.89,10.76h-21.82Z"/>
      <path d="M403.74,287.47l-.11-4.98h-2.5v27.98h2.67v-16.31c0-5.1,3.86-9.29,8.87-9.35,1.58,0,3.16.4,4.57,1.3l1.19-2.27c-1.79-1.13-3.75-1.7-5.77-1.64-3.43,0-7.24,1.47-8.93,5.27"/>
      <rect x="422.45" y="282.38" width="2.67" height="28.09"/>
      <path d="M421.69,273.37c0,2.94,4.3,2.94,4.3,0s-4.3-2.94-4.3,0"/>
      <path d="M455.92,288.61c-2.22-4.36-6.64-6.46-10.99-6.46-7.51,0-13.66,5.78-13.66,14.33s6.15,14.44,13.66,14.44c4.35,0,8.38-2.04,10.99-6.39v5.95h2.67v-27.98h-2.67v6.12ZM444.93,308.2c-6.1,0-11-4.7-11-11.72s4.89-11.67,11-11.67c14.97,0,14.97,23.39,0,23.39"/>
      <rect x="465.82" y="270.82" width="2.67" height="39.64"/>
      <path d="M246.88,297.61l-3.76,4.84-8.55-13.71c.19,0,.87-.4,2.05-1.21,1.55-1.03,2.81-2.12,3.76-3.26,1.33-1.6,1.99-3.19,1.99-4.75,0-5.04-2.51-7.54-7.54-7.51-2.82.04-5.01,1.03-6.57,2.97-1.19,1.44-1.76,2.94-1.72,4.5.04,1.14.49,2.36,1.37,3.65.41.57.86,1.14,1.31,1.71l2.11,3.48c-1.83,1.37-3.68,2.72-5.54,4.05-2.51,2.21-4.02,4.47-4.52,6.79-.15.72-.23,1.45-.23,2.17,0,2.63.97,4.88,2.92,6.76,1.94,1.89,4.23,2.83,6.85,2.83,1.52,0,3.29-.49,5.31-1.46,1.41-.63,2.93-1.5,4.57-2.57l1.94-1.29,3.32,5.32h2.69s-4.32-6.71-4.32-6.71l5.97-6.6h-3.42ZM229.27,279.47c0-1.61.49-2.88,1.49-3.81.99-.94,2.36-1.38,4.11-1.35,2.02.04,3.36.43,4.03,1.18.67.74,1,2.09,1,4.05,0,1.68-1.07,3.39-3.2,5.11-1.75,1.38-2.86,2.06-3.31,2.06l-2.06-2.53c-1.37-2.07-2.06-3.63-2.06-4.7M230.7,308.58c-1.83,0-3.33-.68-4.51-2.04-1.18-1.37-1.77-2.97-1.77-4.83,0-.76.09-1.53.28-2.33.3-1.47,1.69-3.43,4.17-5.84,2.21-2.16,3.47-3.24,3.77-3.24l8.74,13.4c-4.38,3.26-7.94,4.88-10.69,4.88"/>
      <path class="cls-2" d="M55.35,255.85c11.39,0,21.89-4.58,29.42-12.12,7.54-7.54,12.12-18.04,12.12-29.42s-4.58-21.88-12.12-29.42c-7.54-7.54-18.04-12.12-29.42-12.12h-9.61v-.15h-15.08v83.25h24.69ZM45.74,187.83h9.61c7.24,0,13.9,2.96,18.63,7.84,4.73,4.73,7.84,11.39,7.84,18.63s-3.11,13.9-7.84,18.63c-4.73,4.73-11.39,7.84-18.63,7.84h-9.61v-52.93Z"/>
      <polygon class="cls-2" points="149.09 240.61 118.93 240.61 118.93 222.13 141.4 222.13 141.4 207.05 118.93 207.05 118.93 187.53 149.09 187.53 149.09 172.45 103.84 172.45 103.84 255.84 149.09 255.84 149.09 240.61"/>
      <path class="cls-2" d="M198.47,257.77c7.54,0,14.49-1.63,20.85-5.03,6.65-3.4,11.98-8.28,16.12-14.34l-12.42-8.43c-2.81,3.99-6.36,7.1-10.65,9.32-4.14,2.22-8.72,3.4-13.9,3.4-8.13,0-15.08-3.25-20.26-8.43-5.32-5.32-8.58-12.27-8.58-20.4s3.25-14.94,8.58-20.26c5.32-5.32,12.42-8.58,20.26-8.58,4.58,0,9.02,1.03,13.16,3.25,4.14,2.22,7.54,5.03,10.2,8.72l12.27-8.87c-4.29-5.77-9.46-10.2-15.67-13.46-5.91-2.96-12.72-4.73-19.96-4.73-12.27,0-22.92,4.73-31.05,12.86-8.13,8.13-12.86,18.78-12.86,31.05s4.73,22.92,12.86,31.05c8.13,8.13,18.78,12.86,31.05,12.86"/>
      <path class="cls-2" d="M284.08,257.77c12.27,0,22.92-4.73,31.05-12.86,8.13-8.13,12.86-18.78,12.86-31.05s-4.73-22.92-12.86-31.05c-8.13-8.13-18.78-12.86-31.05-12.86s-22.92,4.73-31.05,12.86c-8.13,8.13-12.86,18.78-12.86,31.05s4.73,22.92,12.86,31.05c8.13,8.13,18.78,12.86,31.05,12.86M263.82,193.59c5.32-5.32,12.42-8.58,20.26-8.58s15.08,3.25,20.41,8.58c5.17,5.18,8.43,12.42,8.43,20.26s-3.11,15.08-8.43,20.4c-5.32,5.32-12.27,8.43-20.41,8.43s-15.08-3.25-20.26-8.43c-5.32-5.32-8.58-12.27-8.58-20.4s3.25-14.94,8.58-20.26"/>
      <path class="cls-2" d="M347.66,227.6h2.22l16.86,28.24h17.6l-18.33-30.76c2.96-1.33,5.62-3.11,8.13-5.62,5.17-4.88,8.13-11.83,8.13-19.37s-3.1-14.05-8.13-19.37c-5.03-5.18-11.83-7.98-19.37-7.98h-7.1v-.15h-15.08v83.25h15.08v-28.24ZM347.66,187.83h7.1c3.4,0,6.36,1.18,8.72,3.55,2.37,2.51,3.55,5.47,3.55,8.72s-1.18,6.36-3.55,8.72c-2.37,2.37-5.32,3.55-8.72,3.55h-7.1v-24.55Z"/>
      <path class="cls-2" d="M414.19,236.92h29.28l9.31,18.93h16.56l-34.16-69.35-6.95-14.2-6.8,14.34-32.68,69.2h16.56l8.87-18.93ZM428.53,206.61l7.84,16.12h-15.38l7.54-16.12Z"/>
    </g>
  </g>
</svg>