<?xml version="1.0" encoding="UTF-8"?>
<svg id="Layer_1" data-name="Layer 1" xmlns="http://www.w3.org/2000/svg" viewBox="0 0 500 500">
  <defs>
    <style>
      .cls-1 {
        fill: #fff;
      }
    </style>
  </defs>
  <path class="cls-1" d="M174.43,200.25h39.77v8.82c-10.32,29.79-34.5,33.97-61.96,32.45,0,9.53-.14,18.34.06,27.14.09,3.89,2.11,5.91,6.5,5.63,5.89-.38,11.84-.49,17.72-.08,19.25,1.33,36.07,12.92,36.59,33.95-.16.99-.31,1.99-.47,2.98-.41.43-.82.86-1.24,1.28-.49.2-.98.4-1.47.61-25.15,0-50.29,0-75.44,0-2.46-.25-4.93-.5-7.39-.76-.56-.34-1.12-.68-1.67-1.03-6.95-2.67-11.16-7.73-12.99-14.87-.01-8.39-.02-16.77-.03-25.16,0-9.86,0-19.71,0-29.57-.03-6.91-.06-13.82-.09-20.72.08-.98.15-1.95.23-2.93,2.39-4.42,4.78-8.84,7.17-13.26.51-.45,1.01-.91,1.52-1.36,1.95-.69,3.9-1.38,5.84-2.07,3.13-.2,6.26-.53,9.39-.58,12.65-.2,25.31-.31,37.96-.45Z"/>
  <path class="cls-1" d="M227.24,152.85c1.24-6.8,1.1-14.29,4.08-20.22,3.67-7.29,15.3-10.16,22.51-7.64,8.63,3.01,13.98,10.57,14,20.58.09,35.73.03,71.46.05,107.19,0,2.7.25,5.39.38,8.09-1.63,9.19-2.32,18.69-5.12,27.51-4.81,15.16-17.96,23.28-33.95,22.58-.43-.42-.87-.85-1.3-1.27-.09-31.42-.17-62.83-.29-94.25-.08-20.85-.24-41.71-.36-62.56Z"/>
  <path class="cls-1" d="M301.64,124.62l79.92.02c.36.54.72,1.07,1.07,1.61l.51,1.54c-.34,17.4-10.26,27.51-24.36,32.14-10.99,3.61-22.9,4.42-36.36,6.83v33.44c-.49,1.01-.97,2.01-1.46,3.02-1.77,19.62-17.61,35.95-37.68,34.79-.14-2.01-.42-4.1-.42-6.2,0-29.02,0-58.03.05-87.05.02-11.36,4.32-16.71,15.76-19.78.44.71.88,1.42,1.32,2.12.55-.83,1.1-1.66,1.65-2.48Z"/>
  <path class="cls-1" d="M282.17,306.72c.12-11.74.25-23.47.37-35.21,1.44-.14,2.88-.29,4.32-.43,15.7.13,31.4.5,47.09.31,11.11-.13,21.42,2.49,31.32,7.23,12.27,7.15,18.73,17.53,17.81,32.55-1.83.13-3.69.38-5.55.38-29.54.04-59.08.03-88.62.11-3.61,0-7.1.27-6.73-4.94Z"/>
  <path class="cls-1" d="M113.77,124.72h100.28c-1.05,12.15-4.09,22.8-15.31,29.8-21.35,13.31-43.65,13.84-66,3.98-13.33-5.88-20.51-17.12-20.31-32.26.45-.5.89-1.01,1.34-1.51Z"/>
  <path class="cls-1" d="M238.68,344.03c.43,1.75,1.23,3.5,1.25,5.26.1,15.36.14,30.72-.04,46.08-.02,1.87-1.45,3.72-2.22,5.58-.67.09-1.34.18-2,.27-1.01-.09-2.01-.18-3.02-.27-.34-5.28-.68-10.55-1-15.83-.11-1.82-.18-3.65-.27-5.47v-2.01c.04-4.75.07-9.49.11-14.24-.21-.77-.42-1.55-.64-2.32-.52.72-1.04,1.44-1.56,2.16-2.73,3.72-5.44,7.46-8.2,11.17-3.28,4.42-7.34,4.51-10.39.04-2.69-3.93-5.11-8.05-7.64-12.08-.48-.64-.95-1.27-1.43-1.91-.09.69-.18,1.37-.27,2.06.11,8.42.21,16.85.32,25.27.18,3.62.36,7.23.54,10.84,0,0,.21.2.21.2-1.49.79-2.97,1.58-4.46,2.37l-3.04-.32c-.36-.28-.71-.56-1.07-.84-.36-.34-.71-.69-1.07-1.03-.03-17.65-.06-35.29-.08-52.94,1.01-.68,1.95-1.73,3.06-1.98,4.93-1.14,7.02,2.62,9.25,5.83,3.63,5.23,7.12,10.56,11.09,16.46,2.55-3.97,4.47-6.97,6.39-9.96,1.01-1.39,2.01-2.77,3.02-4.16,1-1.39,1.99-2.78,2.99-4.17.7-.98,1.4-1.96,2.11-2.93,1-.77,2.01-1.54,3.01-2.31,1.69.39,3.37.79,5.06,1.18Z"/>
  <path class="cls-1" d="M304.95,400.01c-.34-1.77-.97-3.54-.97-5.31-.08-15.18-.07-30.36-.03-45.54.02-6.31,1.13-7.1,7.09-5.34.39.41.78.81,1.16,1.22.29.35.57.69.86,1.04l.36.97c1.67,2.48,3.33,4.95,5,7.43.58.58,1.17,1.17,1.75,1.75,4.8,7.45,9.61,14.9,14.41,22.34.63,1.09,1.26,2.18,1.9,3.27.36-.12.71-.23,1.07-.35v-2.87c-.03-6.11-.06-12.22-.08-18.34.11-3.71.05-7.44.41-11.13.18-1.85,1.12-3.62,1.71-5.43.35-.25.71-.49,1.06-.74.65.02,1.29.04,1.94.06,3.64.98,3.82,3.78,3.82,6.87.03,12.62.16,25.24.26,37.86,0,2.72.01,5.43.02,8.15-.69,1.67-1.38,3.34-2.06,5.01-2.29-.65-4.58-1.31-6.87-1.96-1.57-2.31-3.14-4.61-4.7-6.92-1.21-1.79-2.42-3.57-3.63-5.36l.02.03c-3.04-4.45-6.08-8.91-9.11-13.36l.05.05c-2.1-3.35-4.2-6.71-6.29-10.06-.38-.59-.77-1.18-1.15-1.76-.16.66-.32,1.31-.47,1.97-.2,12.12-.39,24.25-.59,36.37-.61.42-1.23.83-1.84,1.25-1.02.02-2.04.04-3.06.06-.33-.11-.67-.23-1-.34-.33-.3-.67-.6-1-.9Z"/>
  <path class="cls-1" d="M180.8,393.92c-.38,2.04-.76,4.09-1.14,6.13-11.26.13-22.52.33-33.78.29-.99,0-1.97-1.53-2.96-2.35,0-.68.01-1.36.02-2.05-.02-2.58-.04-5.16-.06-7.75,0-.78,0-1.55,0-2.33,0-12.59,0-25.19,0-37.78.15-1.49.3-2.98.54-5.31h31.13c2.09.74,4.18,1.47,6.27,2.21-.39,2.05-.78,4.11-1.17,6.16h-27.79v12.98h8.44c5.09.02,10.18.04,15.27.06,4.35,2.26,4.17,5.48,1.96,9.15-.65.11-1.31.21-1.96.32h-23.86v17.78c1.59.07,2.9.2,4.22.18,6.21-.09,12.43-.22,18.64-.33.67-.02,1.33-.04,2-.05,1.41.89,2.82,1.79,4.23,2.68Z"/>
  <path class="cls-1" d="M80.88,391.8c.66,2.37,1.31,4.74,1.97,7.11-1.01.63-2.02,1.26-3.03,1.89-.66.03-1.32.06-1.98.09-1.99-.13-3.99-.35-5.98-.39-8.88-.18-17.76-.3-26.65-.45v-57.24h31.58c1.33.12,2.67.24,4,.35,2.63,2.78,3.47,5.57.09,8.41h-27.12c-1.6,13.19-1.43,13.43,8.78,12.71,6.1.4,12.2.8,18.3,1.2q.12,7.91-7.85,7.92c-6.37,0-12.73,0-19.17,0v18.39h27.07Z"/>
  <path class="cls-1" d="M453.38,383.65c-.3.7-.6,1.4-.9,2.09-.25,1.03-.51,2.06-.76,3.09-.4.41-.8.82-1.19,1.23-.28.26-.56.53-.84.79-.7,1.26-1.39,2.51-2.09,3.77-4.82,4.81-10.71,6.79-17.42,6.63-.68,0-1.35,0-2.03,0-4.04-3.2-8.09-6.39-12.13-9.59.08-.31,0-.58-.24-.8-3.75-6.31-4.27-13.28-4.12-20.37,0-1.36,0-2.71-.01-4.07.41-2.04.83-4.07,1.24-6.11h0c4.57-9.42,9.88-17.84,22.4-16.46l3.05.05c.97.4,1.94.8,2.91,1.2,1.38,1.01,2.77,2.02,4.15,3.02,5.04,5.11,7.33,11.61,9.25,18.29.05,3.06.11,6.11.16,9.17-.47,2.69-.94,5.38-1.41,8.07ZM418.94,372.47c1.37,4.5,2.07,9.2,4.17,13.15,4.34,8.17,15.08,8.69,19.18,1.23,5.02-9.12,5.28-18.57.97-28-1.88-4.1-5.2-5.93-10.02-5.91-4.9.02-8.65,1.35-10.37,6-1.58,4.25-2.56,8.71-3.93,13.52Z"/>
  <path class="cls-1" d="M376.07,395.95c0-13.58,0-27.16,0-40.73.85-2.84-.53-3.36-2.93-2.82-1.02,0-2.03,0-3.05.01h-2.05c-2.37-.01-4.75-.03-7.12-.05-.97-.76-1.94-1.53-2.91-2.29-.1-.33-.2-.66-.3-.98.4-1.67.79-3.35,1.19-5.02,4.6-.35,9.19-.74,13.79-1.04,2.17-.14,4.36-.13,6.54-.19.69,0,1.38,0,2.07,0,6.1,0,12.2,0,18.3,0,1.04,1.34,2.51,2.52,3.04,4.04,1.22,3.48-1.96,4.17-4.04,5.46-2.37,0-4.75,0-7.12,0-1.93,0-3.85,0-6.01,0,0,14.63-.05,28.65.03,42.66.02,3.18-.51,5.69-4.22,6.2-.68,0-1.36.01-2.05.02-1.06-1.76-2.12-3.52-3.17-5.28Z"/>
  <path class="cls-1" d="M96.1,400.13c.01-16.79-.05-33.59.11-50.38.02-2.58-1.65-6.74,3.51-6.7,4.56.03,4.67,3.36,4.68,6.8.02,12.72.12,25.43.2,38.15-1,3.24.76,3.68,3.44,3.65,7.29-.09,14.58-.02,21.87.02,2.55.02,4.14.86,3.98,3.93-.14,2.65-.48,4.84-3.74,4.82-11.35-.06-22.69-.18-34.04-.28Z"/>
  <path class="cls-1" d="M363.3,198.71c13.34-.01,19.82,6.24,19.85,19.15.03,12.82-7.34,19.4-21.78,19.44-9.76.02-18.32-9.03-18.31-19.36,0-11.3,8.34-19.22,20.24-19.23Z"/>
  <path class="cls-1" d="M255.08,350.12c0-1.02-.01-2.04-.02-3.05.32-1.01.64-2.03.97-3.04,0-.28.01-.56.02-.84,1.69-.13,3.38-.26,5.07-.39,9.16.15,18.33.3,27.49.45-.34,1.61-.68,3.23-1.02,4.84h-20.37c-2.44.02-5.13-.29-4.95,3.47.15.28.08.48-.21.6-2.33-.68-4.66-1.36-6.99-2.04ZM259.47,347.35c.28.12.63.4.83.32.2-.08.27-.52.39-.8-.28-.12-.63-.41-.83-.33-.21.08-.27.52-.39.8Z"/>
  <path class="cls-1" d="M112.41,241.63c0,9.86,0,19.71,0,29.57-1.01-1.11-2.8-2.14-2.91-3.33-.68-7.43-1.2-14.9-1.21-22.36,0-1.29,2.68-2.59,4.12-3.88Z"/>
  <path class="cls-1" d="M287.6,348.09c.34-1.61.68-3.23,1.02-4.84.89-.02,1.79-.04,2.68-.07,2.6,5.79,1.6,7.97-3.7,8.03,0-1.04,0-2.08,0-3.12Z"/>
  <path class="cls-1" d="M112.55,217.98c-.08.98-.15,1.95-.23,2.93-.77-.41-1.54-.82-2.32-1.23.85-.57,1.7-1.14,2.55-1.7Z"/>
  <path class="cls-1" d="M301.64,124.62c-.55.83-1.1,1.66-1.65,2.48-.44-.71-.88-1.42-1.32-2.12.99-.12,1.98-.24,2.97-.36Z"/>
  <path class="cls-1" d="M381.31,342.84c-.69,0-1.38,0-2.07,0,.34-.48.69-.97,1.03-1.45.34.48.69.97,1.03,1.45Z"/>
  <path class="cls-1" d="M383.13,127.79l-.51-1.54c.19-.54.37-1.09.56-1.63-.02,1.06-.03,2.11-.05,3.17Z"/>
  <path class="cls-1" d="M320.96,203.22c.49-1.01.97-2.01,1.46-3.02-.49,1.01-.97,2.01-1.46,3.02Z"/>
  <path class="cls-1" d="M290.69,341c.66,0,1.31,0,1.97,0-.66,0-1.31,0-1.97,0Z"/>
  <path class="cls-1" d="M383.18,124.62c-.19.54-.37,1.09-.56,1.63-.36-.54-.72-1.07-1.07-1.61.54,0,1.09-.01,1.63-.02Z"/>
  <path class="cls-1" d="M113.77,124.72c-.45.5-.89,1.01-1.34,1.51.45-.5.89-1.01,1.34-1.51Z"/>
  <path class="cls-1" d="M213.11,308.15c.89,1.48,1.78,2.97,2.67,4.45-.44.03-.86.14-1.25.34-.55-.11-1.1-.21-1.64-.32-.08-.5-.16-1-.25-1.5.16-.99.31-1.99.47-2.98Z"/>
  <path class="cls-1" d="M212.64,311.13c.08.5.16,1,.25,1.5-.49-.07-.99-.14-1.48-.21.41-.43.82-.86,1.24-1.28Z"/>
  <path class="cls-1" d="M127.1,312.26c-.56-.34-1.12-.68-1.67-1.03.56.34,1.12.68,1.67,1.03Z"/>
  <path class="cls-1" d="M229.19,310.93c-.43-.42-.87-.85-1.3-1.27.43.42.87.85,1.3,1.27Z"/>
  <path class="cls-1" d="M255.03,369.47c.01-5.43.02-10.86.04-16.29,6.7-.55,5.17,4.35,4.8,7.85-.25,2.3-.49,3.6,2.33,3.33.33-.05.65-.11.98-.16,8.14.16,16.27.33,24.41.49.07,2.8.14,5.61.21,8.41-3.43.06-6.86.12-10.29.18-1.42-2.14-2.83-4.17-4.25,0-1.67.12-3.33.23-5,.35-.68,0-1.36,0-2.05-.01-.68,0-1.35,0-2.03,0-.5-.01-1.42-.06-1.42-.03-.47,5.7-.89,11.4-1.15,17.11,0,.18,1.7.43,2.6.65,7.75.09,15.51.28,23.26.22,3.27-.02,5.26,1.04,5.16,4.51-.1,3.32-2.02,4.53-5.27,4.42-8.4-.27-16.81-.37-25.22-.54-.57-.61-1.15-1.22-1.72-1.83-.45.57-.9,1.15-1.34,1.72-.68,0-1.35,0-2.03,0-.68-.62-1.35-1.25-2.03-1.87,0-8.83,0-17.65.01-26.48.52-.26,1.05-.52,1.57-.79-.52-.42-1.05-.83-1.57-1.25ZM290.33,394.7l-.75-.52c-.06.27-.15.53-.15.8,0,.1.32.3.36.26.2-.14.36-.35.53-.54Z"/>
  <path class="cls-1" d="M287.6,348.09c0,1.04,0,2.08,0,3.12-6.79,0-13.58.01-20.37.02v-3.14h20.37Z"/>
  <path class="cls-1" d="M264.2,391.36c-.91-.22-2.61-.47-2.6-.65.26-5.71.69-11.41,1.15-17.11,0-.03.93.02,1.42.03,0,5.91.02,11.82.02,17.73Z"/>
  <path class="cls-1" d="M262.2,364.36c-2.82.28-2.57-1.03-2.33-3.33.37-3.51,1.9-8.4-4.8-7.85,0-1.02,0-2.04.01-3.06,2.33.68,4.66,1.36,6.99,2.04.08,3.73.16,7.45.24,11.18-.04.34-.08.68-.12,1.02Z"/>
  <path class="cls-1" d="M287.8,373.1c-.07-2.8-.14-5.61-.21-8.41,1.03,1.08,3.04,2.32,2.9,3.22-.28,1.83-1.73,3.47-2.69,5.19Z"/>
  <path class="cls-1" d="M267.23,348.09v3.14c-1.65.11-3.3.22-4.95.34-.18-3.76,2.5-3.45,4.95-3.47Z"/>
  <path class="cls-1" d="M273.25,373.29c1.42-4.18,2.83-2.14,4.25,0-1.42,0-2.83,0-4.25,0Z"/>
  <path class="cls-1" d="M256.03,344.03c-.32,1.01-.64,2.03-.97,3.04,0-1.02-.02-2.04-.03-3.05,0,0,.5,0,.5,0,0,0,.5.01.5.01Z"/>
  <path class="cls-1" d="M266.21,373.62c.68,0,1.36,0,2.05.01-.27.51-.53,1.02-.8,1.53-.42-.51-.83-1.03-1.25-1.54Z"/>
  <path class="cls-1" d="M255.03,369.47c.52.42,1.05.84,1.57,1.25-.52.26-1.05.52-1.57.79,0-.68,0-1.36,0-2.04Z"/>
  <path class="cls-1" d="M256.03,344.03h-.5s-.5-.01-.5-.01c.34-.28.68-.55,1.02-.83,0,.28-.02.56-.02.84Z"/>
  <path class="cls-1" d="M262.2,364.36c.04-.34.08-.68.12-1.02.29.29.57.57.86.86-.33.05-.65.11-.98.16Z"/>
  <path class="cls-1" d="M231.48,363.39l-2.19-.16c.52-.72,1.04-1.44,1.56-2.16.21.77.42,1.55.64,2.32Z"/>
  <path class="cls-1" d="M203.06,362.35c-.56.05-1.13.1-1.69.15.09-.69.18-1.37.27-2.06.48.64.95,1.27,1.43,1.91Z"/>
  <path class="cls-1" d="M334.56,378.59c.99.02,1.97.04,2.96.05v2.87c-.36.12-.71.23-1.07.35-.63-1.09-1.26-2.18-1.9-3.27Z"/>
  <path class="cls-1" d="M314.06,363.37c-.54.07-1.08.14-1.63.2.16-.66.32-1.31.47-1.97.38.59.77,1.18,1.15,1.76Z"/>
  <path class="cls-1" d="M259.47,347.34c.12-.28.19-.72.39-.8.2-.08.55.2.83.33-.12.28-.19.72-.39.8-.2.08-.55-.2-.83-.33Z"/>
</svg>