<?xml version="1.0" encoding="UTF-8"?>
<svg id="Layer_1" data-name="Layer 1" xmlns="http://www.w3.org/2000/svg" viewBox="0 0 500 500">
  <defs>
    <style>
      .cls-1 {
        fill: #fff;
      }
    </style>
  </defs>
  <g>
    <path class="cls-1" d="M402.34,307.14h-1.45c-.1,0-.19.05-.24.14l-3.88,5.55c-.1.14-.29.17-.42.08-.03-.02-.06-.05-.08-.08l-4.16-5.58c-.06-.08-.16-.12-.26-.12h-1.28c-.17,0-.31.13-.32.31v9.6c0,.18.14.32.32.32h1.27c.18,0,.32-.14.32-.32h0v-6.57h0l3.91,5.32h.72l3.73-5.43v6.68c0,.18.14.32.32.32h1.44c.18,0,.32-.14.32-.32h0v-9.58c0-.15-.1-.28-.24-.31Z"/>
    <path class="cls-1" d="M118.54,315.44h-7.11c-.17,0-.31-.14-.31-.31,0,0,0-.01,0-.02v-1.83c0-.17.14-.31.31-.31h4.05c.18,0,.32-.14.32-.32v-1.24c0-.18-.14-.32-.32-.32h-4.05c-.17,0-.31-.14-.31-.31v-1.53c0-.17.12-.31.29-.32,0,0,.01,0,.02,0h7.03c.17,0,.31-.14.31-.31v-1.27c0-.17-.14-.31-.31-.31h-9.17c-.17,0-.31.13-.32.31v9.66c0,.18.14.32.32.32h9.31c.17,0,.31-.14.31-.31,0,0,0-.01,0-.02v-1.27c.01-.17-.11-.31-.28-.33-.03,0-.06,0-.08,0Z"/>
    <path class="cls-1" d="M138.65,307.29l-.09-.15h-1.88c-.11,0-.21.06-.28.15l-5.23,9.6c-.08.15-.03.33.11.42.05.03.11.04.16.04h1.53c.12,0,.23-.06.28-.17l1.05-2.03c.06-.1.16-.16.28-.17h5.76c.12,0,.23.07.29.17l1.05,2.03c.05.11.16.17.28.17h1.73c.18,0,.32-.15.31-.33,0-.05-.01-.1-.04-.15l-5.32-9.58ZM139.06,313.16h-3.15c-.18,0-.31-.16-.31-.34,0-.04.01-.08.03-.12l1.53-3.06c.07-.15.26-.22.41-.14.06.03.11.08.14.14l1.53,3.06c.08.16.03.35-.13.44-.02,0-.04.02-.05.02Z"/>
    <path class="cls-1" d="M167.17,307.14h-1.53c-.17,0-.31.12-.32.29,0,0,0,.01,0,.02v7.64c0,.18-.14.32-.32.32h-5.76c-.18,0-.32-.14-.32-.32v-7.64c0-.17-.14-.31-.31-.31h-1.53c-.17,0-.31.12-.32.29,0,0,0,.01,0,.02v7.34c-.08.72.13,1.43.57,2,.56.44,1.28.65,1.99.57h5.72c.71.08,1.41-.12,1.97-.57.45-.57.65-1.29.57-2v-7.34c0-.18-.15-.32-.33-.31-.02,0-.05,0-.07,0Z"/>
    <path class="cls-1" d="M210.19,307.94c-.47-.3-.99-.5-1.53-.61-.75-.13-1.5-.19-2.26-.18h-5.35c-.17,0-.31.14-.31.31v9.58c0,.17.12.31.29.32,0,0,.01,0,.02,0h5.29c.76.01,1.53-.05,2.28-.18.54-.11,1.06-.32,1.53-.61.66-.46,1.19-1.09,1.53-1.82.38-.8.56-1.67.55-2.55.01-.85-.18-1.7-.57-2.46-.32-.72-.83-1.33-1.47-1.79ZM209.21,314.68c-.91.58-1.98.84-3.06.75h-2.9c-.17,0-.31-.14-.31-.31,0,0,0-.01,0-.02v-5.75c0-.17.13-.31.31-.32h2.86c1.07-.09,2.15.17,3.06.75.64.62.97,1.51.89,2.4.11.91-.2,1.83-.84,2.49Z"/>
    <path class="cls-1" d="M236.34,315.44h-7.09c-.18,0-.32-.14-.32-.32v-1.83c0-.17.14-.31.31-.31,0,0,.01,0,.02,0h4.03c.18,0,.32-.14.32-.32v-1.24c0-.18-.14-.32-.32-.32h-4.03c-.17,0-.31-.12-.32-.29,0,0,0-.01,0-.02v-1.53c0-.18.14-.32.32-.32h7.01c.17,0,.31-.12.32-.29,0,0,0-.01,0-.02v-1.27c0-.17-.14-.31-.31-.31,0,0-.01,0-.02,0h-9.17c-.17,0-.31.14-.31.31v9.66c0,.17.12.31.29.32,0,0,.01,0,.02,0h9.31c.18,0,.32-.14.32-.32v-1.27c0-.18-.14-.32-.32-.33-.02,0-.04,0-.07,0Z"/>
    <path class="cls-1" d="M276.75,307.14h-7.73c-.17,0-.31.13-.32.31v9.58c0,.18.14.32.32.32h1.53c.18,0,.32-.14.32-.32v-3.06c0-.17.14-.31.31-.31h5.53c.63.06,1.26-.13,1.76-.52.42-.44.63-1.03.58-1.64v-2.22c.05-.6-.16-1.2-.58-1.64-.49-.38-1.1-.57-1.71-.52ZM276.87,311.02c0,.38-.09.53-.15.58s-.18.14-.6.14h-4.91c-.17,0-.31-.14-.31-.31,0,0,0-.01,0-.02v-2.12c0-.17.12-.31.29-.32,0,0,.01,0,.02,0h4.91c.21-.02.43.02.61.14.11.17.16.38.14.58v1.33Z"/>
    <path class="cls-1" d="M297.36,307.29v-.15h-1.97c-.11,0-.21.06-.28.15l-5.23,9.6c-.08.15-.03.33.11.42.05.03.11.04.16.04h1.53c.12,0,.23-.06.28-.17l1.05-2.03c.06-.1.16-.16.28-.17h5.78c.11,0,.22.07.28.17l1.05,2.03c.05.11.16.17.28.17h1.73c.18,0,.32-.15.31-.33,0-.05-.01-.1-.04-.15l-5.32-9.58ZM297.79,313.16h-3.16c-.18,0-.31-.16-.31-.34,0-.04.01-.08.03-.12l1.53-3.06c.08-.16.28-.21.43-.13.06.03.1.08.13.13l1.53,3.06c.08.16.03.35-.13.44-.02,0-.04.02-.05.02Z"/>
    <path class="cls-1" d="M323.64,313.61h.6c.63.05,1.26-.14,1.77-.52.39-.42.6-.98.57-1.56v-2.23c.05-.6-.15-1.2-.57-1.64-.5-.39-1.14-.58-1.77-.52h-7.73c-.17,0-.31.14-.31.31v9.58c0,.17.12.31.29.32,0,0,.01,0,.02,0h1.53c.18,0,.32-.14.32-.32h0v-3.06c0-.17.14-.31.31-.31,0,0,.01,0,.02,0h1.97c.07-.02.14-.02.21,0l3.73,3.59c.06.06.13.09.21.09h2.32c.18,0,.32-.15.31-.33,0-.08-.04-.16-.1-.22l-3.7-3.19ZM318.71,311.76c-.12-.02-.22-.11-.24-.23v-2.23c0-.18.14-.32.32-.32h4.89c.41,0,.57.09.61.14.11.17.16.37.14.57v1.39c0,.38-.09.52-.14.57s-.17.12-.61.12h-4.97Z"/>
    <path class="cls-1" d="M350.75,307.14h-9.17c-.17,0-.31.12-.32.29,0,0,0,.01,0,.02v9.58c0,.18.14.32.32.32h1.53c.17,0,.31-.14.31-.31,0,0,0-.01,0-.02v-3.24c0-.18.14-.32.32-.32h3.77c.17,0,.31-.12.32-.29,0,0,0-.01,0-.02v-1.25c0-.17-.14-.31-.31-.31,0,0-.01,0-.02,0h-3.67c-.18,0-.32-.14-.32-.32h0v-1.93c0-.18.14-.32.32-.32h6.91c.17,0,.31-.12.32-.29,0,0,0-.01,0-.02v-1.28c0-.17-.14-.31-.31-.31,0,0-.01,0-.02,0Z"/>
    <path class="cls-1" d="M374.59,307.14h-1.53c-.17,0-.31.14-.31.31v7.64c0,.18-.14.32-.32.32h-5.78c-.18,0-.32-.14-.32-.32h0v-7.64c0-.17-.14-.31-.31-.31,0,0-.01,0-.02,0h-1.53c-.17,0-.31.14-.31.31v7.34c-.07.71.12,1.43.55,2,.57.44,1.29.64,2,.57h5.7c.71.08,1.42-.12,1.99-.57.43-.57.63-1.29.55-2v-7.34c0-.17-.13-.31-.3-.32-.03,0-.06,0-.09,0Z"/>
    <rect class="cls-1" x="108.91" y="285.93" width="293.74" height="2.8" rx=".35" ry=".35"/>
    <rect class="cls-1" x="108.91" y="291.66" width="293.74" height="1.41" rx=".35" ry=".35"/>
    <path class="cls-1" d="M296.54,271.79h45.07c.76,0,1.38-.6,1.39-1.36,0,0,0-.01,0-.02v-9.17c0-.77-.62-1.39-1.39-1.39h-31.68c-.76,0-1.38-.62-1.38-1.38,0,0,0-.01,0-.02v-20.65c0-.76.6-1.38,1.36-1.39,0,0,.01,0,.02,0h23.29c.76,0,1.38-.62,1.38-1.38,0,0,0-.01,0-.02v-9.17c0-.76-.6-1.38-1.36-1.39,0,0-.01,0-.02,0h-23.29c-.76,0-1.38-.62-1.38-1.38,0,0,0-.01,0-.02v-20.17c0-.76.62-1.38,1.38-1.38h31.68c.77,0,1.39-.63,1.39-1.39,0-.23-.06-.45-.17-.65l-4.91-9.17c-.24-.45-.71-.73-1.22-.73h-40.16c-.77,0-1.39.62-1.39,1.39h0v79.47c.02.75.64,1.35,1.39,1.34Z"/>
    <path class="cls-1" d="M355.56,271.79h45.56c.84,0,1.53-.68,1.53-1.53l-4.91-9c-.25-.89-1.05-1.51-1.97-1.53h-26.59c-.77,0-1.39-.62-1.39-1.39h0v-67.4c0-.77-.62-1.39-1.39-1.39h-10.84c-.77,0-1.39.62-1.39,1.39h0v79.47c0,.76.62,1.38,1.38,1.38,0,0,.01,0,.02,0Z"/>
    <path class="cls-1" d="M110.3,271.79h45.09c.76,0,1.38-.6,1.39-1.36,0,0,0-.01,0-.02v-9.17c0-.77-.62-1.39-1.39-1.39h-31.68c-.77,0-1.39-.62-1.39-1.39v-20.65c0-.77.62-1.39,1.39-1.39h23.28c.74,0,1.35-.58,1.39-1.31v-9.17c0-.77-.62-1.39-1.39-1.39h-23.28c-.77,0-1.39-.62-1.39-1.39v-20.25c0-.76.62-1.38,1.38-1.38,0,0,.01,0,.02,0h31.68c.77,0,1.39-.63,1.39-1.39,0-.23-.06-.45-.17-.65l-4.92-9.17c-.24-.46-.71-.74-1.22-.73h-40.16c-.77,0-1.39.62-1.39,1.39v79.47c.02.75.64,1.35,1.39,1.34Z"/>
    <path class="cls-1" d="M237.65,271.79h10.25c.84,0,1.53-.68,1.53-1.53l.26-32.25c0-.84.68-1.53,1.53-1.53h23.06c.76,0,1.38-.61,1.39-1.38v-9.17c0-.77-.62-1.39-1.39-1.39h-23.25c-.76,0-1.38-.62-1.38-1.38,0,0,0-.01,0-.02v-20.25c0-.76.62-1.38,1.38-1.38h31.54c.77,0,1.39-.63,1.39-1.39,0-.23-.06-.45-.17-.65l-4.92-9.17c-.24-.46-.71-.74-1.22-.73h-40.01c-.77,0-1.39.62-1.39,1.39h0v79.47c.02.75.64,1.35,1.39,1.34Z"/>
    <path class="cls-1" d="M188.21,238.38c.13.26.19.55.2.84v30.73c.03,1.02.87,1.83,1.9,1.83h9.69c1.05,0,1.9-.83,1.91-1.88,0,0,0-.01,0-.02v-30.67c0-.29.06-.58.2-.84l22.79-46.06c.46-.95.05-2.09-.9-2.55-.25-.12-.53-.19-.81-.19h-10.91c-.75,0-1.44.44-1.74,1.13l-14.41,32.26-.5,1.01c-.12.25-.42.36-.67.25-.11-.05-.2-.14-.25-.25l-.49-1.01-14.41-32.29c-.31-.69-.99-1.13-1.74-1.13h-10.88c-1.05-.03-1.92.79-1.95,1.83-.01.32.06.64.21.93l22.79,46.06Z"/>
  </g>
  <path class="cls-1" d="M250,432.04c-24.57,0-48.42-4.81-70.86-14.31-21.68-9.17-41.15-22.29-57.86-39.01-16.72-16.72-29.84-36.19-39.01-57.86-9.49-22.45-14.31-46.29-14.31-70.86s4.81-48.42,14.31-70.86c9.17-21.68,22.29-41.15,39.01-57.86,16.72-16.72,36.19-29.84,57.86-39.01,22.45-9.49,46.29-14.31,70.86-14.31s48.42,4.81,70.86,14.31c21.68,9.17,41.15,22.29,57.86,39.01,16.72,16.72,29.84,36.19,39.01,57.86,9.49,22.45,14.31,46.29,14.31,70.86s-4.81,48.42-14.31,70.86c-9.17,21.68-22.29,41.15-39.01,57.86-16.72,16.72-36.19,29.84-57.86,39.01-22.45,9.49-46.29,14.31-70.86,14.31ZM250,75.32c-23.58,0-46.46,4.62-67.99,13.73-20.8,8.8-39.48,21.39-55.53,37.44-16.04,16.04-28.64,34.72-37.44,55.53-9.11,21.53-13.73,44.41-13.73,67.99s4.62,46.46,13.73,67.99c8.8,20.8,21.39,39.48,37.44,55.53,16.04,16.04,34.72,28.64,55.53,37.44,21.53,9.11,44.41,13.73,67.99,13.73s46.46-4.62,67.99-13.73c20.8-8.8,39.48-21.39,55.53-37.44,16.04-16.04,28.64-34.72,37.44-55.53,9.11-21.53,13.73-44.41,13.73-67.99s-4.62-46.46-13.73-67.99c-8.8-20.8-21.39-39.48-37.44-55.53-16.04-16.04-34.72-28.64-55.53-37.44-21.53-9.11-44.41-13.73-67.99-13.73Z"/>
</svg>