<?xml version="1.0" encoding="UTF-8"?>
<svg id="Layer_1" data-name="Layer 1" xmlns="http://www.w3.org/2000/svg" viewBox="0 0 500 500">
  <defs>
    <style>
      .cls-1 {
        fill: #ed7b26;
      }
    </style>
  </defs>
  <polygon class="cls-1" points="133.84 170.75 161.76 170.75 161.76 153.58 133.84 153.58 133.84 142.01 165.68 142.01 165.68 124.84 111.27 124.84 111.27 192.35 133.84 192.35 133.84 170.75"/>
  <rect class="cls-1" x="172.85" y="124.84" width="22.56" height="67.51"/>
  <path class="cls-1" d="M246.38,192.35h24.09l-14.06-20.83c8.03-4.15,12.62-11.48,12.62-21.22,0-15.62-11.86-25.46-30.5-25.46h-32.22v67.51h22.56s0-16.97,0-16.97h6.12l11.38,16.97ZM228.88,142.4h8.22c6.21,0,9.18,2.99,9.18,7.91s-2.96,7.91-9.18,7.91h-8.22v-15.82Z"/>
  <path class="cls-1" d="M302.69,176.54c-7.36,0-15.78-2.41-22.09-6.17l-7.27,16.59c6.69,4.15,17.98,6.94,29.16,6.94,20.75,0,31.17-10.42,31.17-22.76,0-24.88-37-18.13-37-26.23,0-2.31,2.1-4.24,8.7-4.24,5.83,0,12.05,1.64,18.64,5.01l6.79-16.49c-6.98-3.95-16.25-5.88-25.24-5.88-20.75,0-31.17,10.22-31.17,22.76,0,25.17,37,18.32,37,26.81,0,2.31-2.29,3.66-8.7,3.66Z"/>
  <polygon class="cls-1" points="354.9 192.35 377.46 192.35 377.46 142.49 397.07 142.49 397.07 124.84 335.3 124.84 335.3 142.49 354.9 142.49 354.9 192.35"/>
  <polygon class="cls-1" points="120.57 280.19 69.09 280.19 69.09 266.54 112.63 266.54 112.63 241.32 69.09 241.32 69.09 229.15 118.66 229.15 118.66 202.74 34.96 202.74 34.96 306.6 120.57 306.6 120.57 280.19"/>
  <polygon class="cls-1" points="136.9 202.74 136.9 306.6 218.1 306.6 218.1 279.45 171.61 279.45 171.61 202.74 136.9 202.74"/>
  <rect class="cls-1" x="230.6" y="202.74" width="34.72" height="103.86"/>
  <polygon class="cls-1" points="372.26 202.74 277.23 202.74 277.23 229.89 307.39 229.89 307.39 306.6 342.1 306.6 342.1 229.89 372.26 229.89 372.26 202.74"/>
  <polygon class="cls-1" points="469.78 280.19 418.3 280.19 418.3 266.54 461.84 266.54 461.84 241.32 418.3 241.32 418.3 229.15 467.87 229.15 467.87 202.74 384.17 202.74 384.17 306.6 469.78 306.6 469.78 280.19"/>
  <path d="M452.53,159.34c9.71,0,17.28-7.68,17.28-17.48s-7.37-17.28-17.18-17.28-17.28,7.68-17.28,17.38,7.47,17.38,17.18,17.38ZM452.63,128.91c7.42,0,12.59,5.51,12.59,12.95,0,3.35-1.07,6.3-2.93,8.62l-3.37-5.27c1.9-1.13,2.93-3,2.93-5.61,0-4.18-3.17-6.89-8.64-6.89h-8.74v18.51h7.03v-4.73h1.12s3.03,4.73,3.03,4.73h5.96c-2.25,2.36-5.42,3.79-9.08,3.79-7.32,0-12.59-5.66-12.59-13.05s5.27-13.05,12.69-13.05ZM454.82,139.59c0,1.23-.73,2.02-2.05,2.02h-1.27v-4.04h1.27c1.32,0,2.05.79,2.05,2.02Z"/>
  <path d="M149.12,352.1c0,1.13-.23,1.96-.68,2.49-.45.53-1.36.79-2.74.79h-19.78s-5.8,0-5.8,0h-17.4s0,0,0,0h-28.99s-5.8,0-5.8,0c-.72,0-1.47-.02-2.25-.05-.78-.04-1.63-.1-2.55-.19-.92-.09-1.92-.21-3.01-.36-1.08-.15-2.31-.33-3.68-.55l-6.45-.98v8.2l12.79,2.02c-.8,1.38-2.21,2.46-4.25,3.22-2.04.77-4.62,1.15-7.72,1.15h-4.34c-3.43,0-6.11-.63-8.02-1.89-1.92-1.26-2.87-3.03-2.87-5.33,0-1.17.21-2.55.62-4.15.41-1.6.98-3.19,1.71-4.76l-5.2-1.53c-.8,1.93-1.42,3.93-1.87,5.99-.45,2.06-.68,3.91-.68,5.55,0,2.37.41,4.47,1.25,6.31.83,1.84,2.04,3.41,3.63,4.7,1.59,1.29,3.53,2.28,5.83,2.95,2.29.67,4.89,1.01,7.78,1.01,3.18,0,6.02-.37,8.51-1.12,2.49-.75,4.61-1.82,6.34-3.22,1.73-1.4,3.06-3.12,3.98-5.14.51-1.12.88-2.34,1.11-3.63h3.52s0,0,0,0h5.8s0,0,0,0h5.8s0,0,0,0h5.8s0,0,0,0h5.8s5.8,0,5.8,0h5.8s0,0,0,0h5.8s0,0,0,0h5.8s0,0,0,0h5.8s0,0,0,0h11.6s0,0,0,0h9.81c3.61-.04,6.17-.98,7.67-2.84,1.5-1.86,2.25-4.74,2.25-8.64v-28.97h-6.5v28.97Z"/>
  <path d="M180.2,344.81c-.96-1.4-2.13-2.48-3.52-3.22-1.39-.75-2.97-1.12-4.74-1.12-1.59,0-3.06.34-4.42,1.01-1.35.67-2.53,1.6-3.52,2.79-.99,1.18-1.77,2.59-2.33,4.21-.56,1.62-.84,3.38-.84,5.27,0,3.1.82,5.51,2.47,7.24,1.64,1.73,3.93,2.6,6.86,2.6,1.84,0,3.37-.44,4.58-1.31,1.21-.87,2.09-2.24,2.63-4.1h.33v1.42c0,2.62-1.1,4.76-3.31,6.42-2.2,1.66-5.67,2.49-10.4,2.49h-3.47v8.2h4.01c6.1,0,10.74-1.75,13.9-5.25,3.16-3.5,4.74-8.36,4.74-14.59,0-2.55-.25-4.85-.76-6.89-.51-2.04-1.24-3.76-2.19-5.17ZM175.35,355.19c-.94.13-2.11.19-3.52.19h-1.14c-1.37,0-2.46-.21-3.25-.63-.8-.42-1.19-1.12-1.19-2.1,0-1.17.48-2.12,1.44-2.87.96-.75,2.14-1.12,3.55-1.12,1.73,0,3.2.54,4.39,1.61,1.19,1.08,1.86,2.51,2.01,4.29-.58.29-1.34.5-2.28.63Z"/>
  <path d="M210.63,351.61c-.33-.66-.76-1.31-1.3-1.97-.54-.66-1.19-1.35-1.95-2.08l-1.9-1.75c.79-.73,1.48-1.43,2.06-2.1.58-.67,1.04-1.37,1.38-2.1.34-.73.6-1.49.76-2.3.16-.8.24-1.68.24-2.62v-13.56h-6.5s0,13.56,0,13.56c0,1.35-.14,2.43-.41,3.25-.27.82-.71,1.58-1.33,2.27l-13.01-12.35-4.71,5.14,12.57,11.92-9.32,8.47v8.2h16.85c1.08,0,2.08-.19,2.98-.57.9-.38,1.69-.92,2.36-1.61.67-.69,1.19-1.5,1.57-2.43.38-.93.57-1.94.57-3.03,0-.8-.07-1.56-.22-2.27-.14-.71-.38-1.39-.7-2.05ZM194.48,355.38l-.05-.22,5.74-4.86,5.42,5.08h-11.11Z"/>
  <path d="M186.52,323.19v4.43h12.84v-4.81h-4.01c-2.49,0-3.74-.6-3.74-1.8,0-.4.19-.75.57-1.04.38-.29.88-.44,1.49-.44,1.12,0,2.11.44,2.98,1.31l2.6-3.66c-.72-.77-1.57-1.37-2.55-1.8-.98-.44-1.99-.66-3.03-.66-1.73,0-3.15.5-4.25,1.5-1.1,1-1.65,2.27-1.65,3.8,0,1.13.36,2.1,1.08,2.9l-.05.27h-2.28Z"/>
  <rect x="216.7" y="323.13" width="6.5" height="40.45"/>
  <path d="M259.35,323.19c-.94,0-1.71.29-2.3.87-.6.58-.89,1.51-.89,2.79s.3,2.2.89,2.79c.6.58,1.36.87,2.3.87h1.08c.94,0,1.71-.29,2.3-.87.6-.58.89-1.51.89-2.79s-.3-2.2-.89-2.79c-.6-.58-1.36-.87-2.3-.87h-1.08Z"/>
  <path d="M250.79,323.19c-.94,0-1.71.29-2.3.87-.6.58-.89,1.51-.89,2.79s.3,2.2.89,2.79c.6.58,1.36.87,2.3.87h1.08c.94,0,1.71-.29,2.3-.87.6-.58.89-1.51.89-2.79s-.3-2.2-.89-2.79c-.6-.58-1.36-.87-2.3-.87h-1.08Z"/>
  <path d="M329.63,368.01h-1.08c-.94,0-1.71.29-2.3.87-.6.58-.89,1.51-.89,2.79s.3,2.2.89,2.79c.6.58,1.36.87,2.3.87h1.08c.94,0,1.71-.29,2.3-.87.6-.58.89-1.51.89-2.79s-.3-2.21-.89-2.79c-.6-.58-1.36-.87-2.3-.87Z"/>
  <path d="M352.34,327.67c-.94,0-1.71.29-2.3.87-.6.58-.89,1.51-.89,2.79s.3,2.21.89,2.79c.6.58,1.36.87,2.3.87h1.08c.94,0,1.71-.29,2.3-.87.6-.58.89-1.51.89-2.79s-.3-2.2-.89-2.79c-.6-.58-1.36-.87-2.3-.87h-1.08Z"/>
  <path d="M435.03,332.04c-.94,0-1.71.29-2.3.87-.6.58-.89,1.51-.89,2.79s.3,2.21.89,2.79c.6.58,1.36.87,2.3.87h1.08c.94,0,1.71-.29,2.3-.87.6-.58.89-1.51.89-2.79s-.3-2.2-.89-2.79c-.6-.58-1.36-.87-2.3-.87h-1.08Z"/>
  <path d="M450.31,352.1c0,1.13-.23,1.96-.68,2.49-.45.53-1.36.79-2.74.79h-4.55c-2.53,0-3.79-1.28-3.79-3.83v-7.82h-5.96v7.82c0,2.55-1.45,3.83-4.34,3.83h-24.82s-5.8,0-5.8,0h-23.19s-1.63,0-1.63,0c-1.37,0-2.34-.2-2.9-.6-.56-.4-.86-1.11-.89-2.13h3.79v-8.2h-1.08c-1.63,0-3.27-.11-4.93-.33-1.66-.22-3.22-.53-4.66-.93l-10.46-2.73c-.87-.22-1.59-.4-2.17-.55-.58-.15-1.08-.25-1.49-.33-.42-.07-.78-.13-1.08-.16-.31-.04-.61-.05-.89-.05-2.28,0-3.97.6-5.07,1.8-1.1,1.2-1.65,3.1-1.65,5.68v4.21h6.23s0-4.1,0-4.1l8.18,2.02,8.67,1.86v.27l-2.01.98c-1.55.77-3.02,1.37-4.39,1.8-1.37.44-2.78.77-4.23.98-1.45.22-2.97.36-4.58.41-1.61.05-3.42.08-5.45.08h-3.74s0,0,0,0h-2.17c-2.53,0-3.79-1.28-3.79-3.83v-7.82h-5.96s0,7.82,0,7.82c0,2.55-1.45,3.83-4.34,3.83h-19.02s-5.8,0-5.8,0h-23.19s-5.8,0-5.8,0h0s0,0,0,0h-1.63c-1.19,0-2.03-.22-2.52-.66-.49-.44-.73-1.2-.73-2.3v-17.55h-6.5v3.01l-6.07,3.06c-2.78,1.39-4.99,3.02-6.64,4.89-1.64,1.88-2.47,4.31-2.47,7.3,0,2.55.65,4.53,1.95,5.93,1.3,1.4,3.25,2.1,5.85,2.1,1.08,0,2.02-.12,2.82-.36.79-.24,1.48-.62,2.06-1.15.58-.53,1.06-1.23,1.44-2.1.38-.87.71-1.95,1-3.22h.33v.27c0,2.77.76,4.95,2.28,6.53,1.52,1.59,3.92,2.4,7.21,2.43h0s0,0,0,0h28.99s5.8,0,5.8,0h17.4c2.35,0,4.14-.59,5.36-1.78,1.23-1.18,2.09-3.05,2.6-5.6h.33c.51,2.55,1.51,4.42,3.01,5.6,1.5,1.18,3.69,1.78,6.58,1.78h0s0,0,0,0h5.36c1.73,0,3.4-.08,4.99-.25,1.59-.16,3.23-.51,4.93-1.04,1.7-.53,3.5-1.28,5.39-2.24,1.9-.97,4.04-2.27,6.42-3.91l.22-.16c.36,2.59,1.29,4.49,2.79,5.71,1.5,1.22,3.6,1.85,6.31,1.89h23.19s0,0,0,0h23.19s5.8,0,5.8,0c2.35,0,4.14-.59,5.36-1.78,1.23-1.18,2.09-3.05,2.6-5.6h.33c.51,2.55,1.51,4.42,3.01,5.6,1.5,1.18,3.69,1.78,6.58,1.78h4.01c3.61-.04,6.17-.98,7.67-2.84,1.5-1.86,2.25-4.74,2.25-8.64v-28.97h-6.5v28.97ZM256.58,350.19c0,1.06-.41,1.79-1.22,2.19-.81.4-2.27.6-4.36.6-1.59,0-2.68-.19-3.28-.57-.6-.38-.89-1.03-.89-1.94,0-.51.12-.96.35-1.37.23-.4.6-.79,1.08-1.18.49-.38,1.08-.76,1.79-1.12.7-.36,1.54-.78,2.52-1.26l4.01-1.91v6.56Z"/>
  <rect x="463.32" y="323.13" width="6.5" height="40.45"/>
</svg>