<?xml version="1.0" encoding="UTF-8"?>
<svg id="Layer_1" data-name="Layer 1" xmlns="http://www.w3.org/2000/svg" viewBox="0 0 500 500">
  <defs>
    <style>
      .cls-1 {
        fill: #fff;
      }
    </style>
  </defs>
  <g>
    <polygon class="cls-1" points="129.93 355.8 114.62 305.32 86.52 305.32 86.52 399.79 109.48 399.79 109.48 340.05 121.1 379.34 138.76 379.34 150.53 339.76 150.53 399.79 173.34 399.79 173.34 305.32 145.23 305.32 129.93 355.8"/>
    <polygon class="cls-1" points="218.22 361.39 244.85 361.39 244.85 342.99 218.22 342.99 218.22 323.72 249.12 323.72 249.12 305.32 218.22 305.32 201.59 305.32 192.47 305.32 192.47 399.79 201.59 399.79 218.22 399.79 250.44 399.79 250.44 381.4 218.22 381.4 218.22 361.39"/>
    <path class="cls-1" d="M326.3,361.24c3.29-3.33,4.93-7.75,4.93-13.24v-24.43c0-5.49-1.64-9.91-4.93-13.25-3.29-3.33-8.85-5-16.7-5h-43.7v94.47h25.75v-33.55h1.65l14.97,33.55h27.66l-17.38-34.53c3.29-.82,5.89-2.15,7.74-4.03ZM301.8,323.72c1.27,0,2.21.27,2.79.81.59.54.88,1.35.88,2.43v18.54c0,1.08-.29,1.89-.88,2.43-.59.54-1.52.81-2.79.81h-10.15v-25.02h10.15Z"/>
    <path class="cls-1" d="M391.85,305.32h-21.78c-7.85,0-13.42,1.67-16.7,5-3.29,3.34-4.93,7.75-4.93,13.25v57.97c0,5.5,1.64,9.91,4.93,13.24,3.29,3.34,8.85,5,16.7,5h21.78c7.85,0,13.41-1.67,16.7-5,3.29-3.33,4.93-7.75,4.93-13.24v-57.97c0-5.49-1.64-9.91-4.93-13.25-3.29-3.33-8.85-5-16.7-5ZM387.73,344.76v33.4c0,1.08-.29,1.89-.88,2.43-.59.54-1.52.81-2.8.81h-6.18c-1.28,0-2.21-.27-2.8-.81-.59-.54-.88-1.35-.88-2.43v-51.21c0-1.08.29-1.89.88-2.43.59-.54,1.52-.81,2.8-.81h6.18c1.27,0,2.21.27,2.8.81.59.54.88,1.35.88,2.43v17.81Z"/>
  </g>
  <path class="cls-1" d="M327.49,135.83v86.52c0,27.56-22.34,49.89-49.89,49.89h-.01v-88.13l-27.58,39.39-27.58-39.39v88.13h0c-27.56,0-49.89-22.34-49.89-49.89v-86.5l24.95-35.64h.01l24.93,35.63,15.09,21.54,12.49-17.87,12.51,17.86,15.08-21.53,24.95-35.63h.01l24.95,35.63Z"/>
</svg>