<?xml version="1.0" encoding="UTF-8"?>
<svg id="Layer_1" data-name="Layer 1" xmlns="http://www.w3.org/2000/svg" viewBox="0 0 500 500">
  <defs>
    <style>
      .cls-1 {
        font-family: NotoKufiArabic-ExtraBold, 'Noto Kufi Arabic';
        font-size: 28.65px;
        font-variation-settings: 'wght' 800;
        font-weight: 700;
      }

      .cls-2 {
        fill: #2a90ff;
      }

      .cls-3 {
        fill: #f9e404;
      }

      .cls-4 {
        font-family: NotoSansArabic-CondensedBlack, 'Noto Sans Arabic';
        font-size: 17.17px;
        font-variation-settings: 'wght' 900, 'wdth' 75;
      }

      .cls-4, .cls-5 {
        font-weight: 800;
      }

      .cls-5 {
        font-family: NotoSansArabic-SemiCondensedBlack, 'Noto Sans Arabic';
        font-size: 40.59px;
        font-variation-settings: 'wght' 900, 'wdth' 87;
      }

      .cls-6 {
        fill: #fafcfd;
      }
    </style>
  </defs>
  <path class="cls-2" d="M188.99,261.33c17.4.12,34.58,5.31,49.48,14.1-16.55.5-33.32.52-49.48,4.39v-18.5Z"/>
  <path class="cls-2" d="M310.6,261.33v18.03c-16.38-3.61-33.23-3.58-49.95-3.93,15.23-8.71,32.28-13.85,49.95-14.1Z"/>
  <path class="cls-3" d="M182.27,257.63c4.14.61,9.91-.28,14.35,0,18.21,1.16,37.31,9.2,51.56,20.34v-41.39c-13.41-17.77-36.11-22.17-57.32-21.02l-9.28,41.36c-.05.97,0,.6.69.7ZM242.4,259.93c.62.66,4.44,5.02,3.92,5.55-.87.2-1.1-.49-1.62-.92-3.7-3.05-6.96-7.05-10.91-9.9l-12.45-7.66c7.61.97,15.85,7.42,21.05,12.94ZM251.42,277.51c19.09-14.63,42.48-21.39,66.58-19.89l-10-42.02c-16.37-.82-33.59,1.7-47.02,11.59-1.57,1.15-9.56,8.23-9.93,9.49-.71,2.39.33,5.85.39,8.21.24,10.86-.22,21.76-.01,32.62ZM253.95,263.17c4.07-4.97,11.18-10.67,16.87-13.65,2.14-1.12,4.48-2.53,6.95-2.53-4.27,3.18-9.13,5.32-13.36,8.6-3.56,2.76-6.74,7.05-9.99,9.43-.62.45-1.22,1.04-2.07.93-.38-.36,1.27-2.37,1.61-2.78ZM296.73,398.2c-1.38-1.05-4.77-4.74-6.02-5.31-1.71-.78-12.34.82-14.9,1.27-8.98,1.59-17.59,4.8-26.02,8.17-6.8-2.91-13.79-5.51-21.03-7.14-4.14-.93-16.33-3.35-19.88-2.28-1.11.34-5.14,4.44-6.49,5.28,11.21,1.14,22.91,2.36,33.66,5.88.82.27,5.44,1.77,5.65,1.99.71.74-.29.81-.6,1.02-1.91,1.32-4.19,2.26-6.11,3.58-4.7,3.21-9.19,7.04-13.17,11.11h11.79c.46,0,5.69-4.99,7.02-5.93,2.94-2.07,6.14-3.74,9.24-5.56,2.68,1.65,5.64,3.26,8.23,5.02,1.38.94,7.81,6.46,8.34,6.46h11.33c-2.33-2.7-5.29-5.17-8.11-7.38-3.52-2.76-7.48-4.73-10.82-7.22-.23-.17-1.15-.93-.95-1.12,12.55-4.22,25.59-6.96,38.84-7.87ZM299.49,384.55l-4.15,2.55c7.3,4.13,14.28,8.63,22.89,9.25,12.02.86,23.46-2.24,33.05-9.47-15.33-9.82-35.75-11.6-51.79-2.32ZM335.82,388.05c-11.8-.34-23.74.85-35.4-1.18,13.2-1.91,26.53.23,39.77.24l-4.37.94ZM168.08,379.38c-6.71,1.2-13.84,3.43-19.32,7.49,16.12,13.4,38.69,12.14,55.02-.23-11.28-6.8-22.56-9.61-35.7-7.27ZM159.39,387.34c13.09-.46,26.21-2.02,39.31-.69l-8.53,1.4c-10.25-.34-20.63.69-30.77-.71ZM410.48,280.74c13.65-.58,27.2-8.48,34-20.33,3.09-5.39,4.95-11.97,6.23-18.04-20.43,3.44-33.46,19.88-40.23,38.37ZM438.93,253.48c.47-.39,3.11-2.64,3.46-2.32-1.31,1.38-2.42,3-3.69,4.4-5.19,5.71-12.51,13.21-18.27,18.27-1.64,1.44-3.72,3.25-5.78,3.92,7.65-8.48,15.52-16.91,24.28-24.27ZM89.1,280.75c-6.22-18.56-19.47-35.11-39.76-38.38,2.86,20.54,18.47,37.31,39.76,38.38ZM58.36,251.15c7.88,6.57,14.9,14.08,22.2,21.27l3.92,5.09c-1.38,1.38-26.13-24.79-27.74-27.28.87-.2,1.1.48,1.62.92ZM339.05,365.38c-.66.55-3.94,3.06-3.48,3.68,18.31,7.17,36.97,3.97,51.33-9.47.44-.41,2.79-2.5,2.3-3.01-18.52-6.01-35.17-3.63-50.16,8.8ZM375.8,360.52c-11.23,3.64-23.46,5.98-35.14,7.63-.25-1.38.36-.73,1.08-.97,1.89-.64,3.9-1.11,5.85-1.58,10.08-2.39,20.35-4.25,30.52-6.23-.1.75-1.67.94-2.31,1.15ZM160.27,365.19c-12.43-9.9-24.36-13.45-40.27-10.77-3.25.55-6.38,1.63-9.62,2.17-.16.81.42,1.14.92,1.62,7.81,7.55,18.32,13.7,29.38,14.55,7.81.6,15.86-1.8,23.34-3.7.62-.69-3.14-3.39-3.75-3.88ZM129.24,362l-8.22-2.64c11.35,1.91,23.23,4.03,34.32,7.06,1.24.34,3.33.62,4.06,1.71-10.24-.95-20.18-3.74-30.16-6.14ZM423.43,233.35c-.25,2.73.19,5.78,0,8.55,16.66-5.03,25.28-19.01,26.82-35.84.19-2.07-.08-4.34,0-6.47.03-.69,1.17-3.41-.22-3-3.22.95-10.19,5.7-12.73,8.08-7.16,6.68-12.96,18.93-13.87,28.68ZM441.71,212.32c-4.89,9.12-10.08,18.34-15.96,26.81,2.25-6.03,5.47-12.26,8.7-17.88,2.89-5.03,6.06-10.06,9.79-14.49-.41,1.87-1.62,3.86-2.53,5.56ZM76.61,242.37c.78-19.44-8.03-39.06-27.28-45.78-.9,19.72,7.91,38.88,27.28,45.78ZM74.08,238.66l-18.27-31.9c7.72,9.5,13.64,20.6,18.27,31.9ZM130.72,342.71c-7.27-9.35-16.81-16.81-28.65-19.2-7.45-1.5-14.3-1-21.75.25-.33.3,2.61,3.73,3,4.17,12.6,14.2,28.56,20.27,47.4,14.79ZM91.88,328.38c.8-.09,1.55.03,2.33.2,5.9,1.34,15.98,5.39,21.83,7.76,3.41,1.38,6.62,3.2,10.05,4.52.12.82-1.04.45-1.51.35-8.56-1.88-17.27-6.75-25.62-9.52l-7.08-3.31ZM98.12,314.97h8.09c-6.17-10.09-13.78-20.3-24.81-25.37-4.43-2.03-16.92-5.9-21.26-4.28-.43.16-.87-.18-.61.71.22.77,3.26,5.66,3.94,6.7,6.48,9.88,14.62,16.78,26.09,20.15,1.75.52,7.1,2.08,8.55,2.08ZM69.22,291.39c11.78,5.51,22.11,13.57,32.83,20.81.11.85-.97.4-1.4.24-5.67-2.07-15.18-9.15-20.48-12.82-3.72-2.58-7.54-5.25-10.95-8.23ZM369.33,342.71c18.74,5.68,35.64-1.27,47.87-15.71.36-.43,2.42-2.92,2.07-3.24-19.1-4.58-38.97,2.7-49.94,18.95ZM405.25,329.85c-10.51,3.96-20.75,9.04-31.75,11.47l5.84-3.17c9.54-3.96,19.36-7.44,29.29-10.23l-3.38,1.93ZM427.12,286.52c-14.88,3.75-26.38,14.86-32.82,28.44,6.93.23,14.38-1.31,20.8-3.94,11.94-4.88,19.14-14.59,24.98-25.65-4.19-.77-8.81.1-12.95,1.15ZM398,312.65c9.77-8.28,20.9-15.35,32.36-21.04-10.32,7.6-20.74,15.55-32.36,21.04ZM75.69,203.99c6.21-18.45,1.94-37.92-12.71-50.86-8.5,18.11-2.96,38.85,12.71,50.86ZM65.51,164.22c3.28,11.79,8.19,23.27,9.25,35.6l-2.17-4.99-7.99-30.39.91-.22ZM424.36,203.99c12.5-10.09,18.5-23.69,16.05-39.87-.56-3.74-2.04-7.27-2.65-10.99-.54-.49-4.33,3.55-4.86,4.15-11.52,13.15-13.99,30.25-8.54,46.71ZM432.09,170.8l2.43-6.58c-1.71,10.3-4.05,21.39-7.27,31.33-.44,1.34-.79,3.48-1.97,4.27,1.07-9.92,4.25-19.43,6.81-29.02ZM102.52,305.26c.58.52,1.94-1.68,2.29-2.1,10.15-12.01,13.79-23.88,10.98-39.61-.55-3.07-1.78-6.04-2.18-9.15-.51-.49-2.59,1.86-3.01,2.3-11.2,11.8-15.37,26.19-10.52,41.98.27.87,2.18,6.35,2.44,6.58ZM103.11,299.61c.86-9.52,3.54-21.63,6.1-30.89.2-.71.48-2.52,1.16-2.77-1.54,11.77-3.44,23.78-6.94,35.14-.87.09-.37-.97-.32-1.48ZM386.44,253.93c-.83,4.74-3.2,11.28-3.26,15.98-.04,3.21.55,8.57,1.15,11.78,1.64,8.66,6.72,17.67,13.19,23.57,2.8-7.1,5.15-13.71,4.65-21.52-.72-11.38-7.46-22.33-15.74-29.81ZM389.67,265.03c.58.56,3.6,13.7,4.02,15.63,1.49,6.75,2.71,13.55,3.38,20.43-1.52-1.68-2.09-5.05-2.62-7.31-2.21-9.42-3.25-19.15-5.69-28.53-.06-.39.88-.25.91-.22ZM416.49,165.61c9.17-16.39,8.86-36.66-3.46-51.32-2.28,3.17-4.12,6.65-5.33,10.38-2.42,7.47-2.6,13.42-1.25,21.16,1.25,7.14,5.03,14.56,10.04,19.78ZM413.72,123.99l.92,4.4c-.27,10.3,1.77,21.26,1.39,31.44-.02.56.35,1.72-.46,1.61l-1.86-9.01v-28.44ZM413.03,264.56c.92.01,2.03-8.66,2.1-9.91.78-14.07-4.64-24.99-15.06-34-.69-.6-5.76-4.72-6.23-4.17-1.91,11.36-.81,22.23,4.84,32.38,3.53,6.33,9.15,10.81,14.34,15.7ZM398,226.41l.91-.22c4.79,10.99,10.44,21.96,12.95,33.75-1.29-1.1-2.17-3.23-2.85-4.77-4.09-9.27-6.8-19.5-11.01-28.76ZM84.47,165.6c10.01-13.36,13.53-31.51,5.34-46.71-3.17-5.88-3.15-4.83-6.16.33-7.6,13.07-8.74,26.56-2.96,40.69.31.75,2.81,6.4,3.78,5.69ZM85.41,128.85l.92-3.93c-.44,12.16,1.3,24.68-1.85,36.53-.8.11-.44-1.05-.46-1.61-.38-10.08,1.54-20.81,1.39-30.98ZM108.52,179.02c-19.9,4.58-30.14,23.05-30.05,42.54,1.1-.05,2.03-1.41,2.48-1.67,3.94-2.37,7.33-3.66,11.15-6.66,10.78-8.5,15.21-20.77,16.42-34.21ZM85.78,211.07l-5.24,6.32c5.26-10.52,11.83-20.73,20.11-29.12l-14.88,22.8ZM105.75,216.48c-.37-.35-4.68,3.2-5.3,3.71-13.98,11.4-18.36,26.89-13.65,44.38,15.64-11.13,22.98-29.04,18.95-48.09ZM96.88,234.66l4.24-8.47-12.49,34.21c-.06.05-.97.17-.91-.22,2.53-8.7,5.58-17.21,9.16-25.52ZM127.48,143.41c-19.37-.13-35.42,13.15-40.69,31.44,18.62-1.06,35.84-13,40.69-31.44ZM113.28,153.02c1.21-.81,2.56-1.99,4.03-2.21-.48.87-1.35,1.63-2.09,2.3-5.36,4.83-12.27,10.42-18.03,14.8-2,1.52-4.3,3.43-6.69,4.17,6.5-7.26,14.68-13.63,22.79-19.06ZM417.04,199.97c-4.53-10.69-14.14-18.59-25.51-20.95.85,7.8,2.85,16.24,6.69,23.13,4.69,8.4,14.59,15.05,23.36,18.49-.75-7-1.77-14.12-4.54-20.66ZM418.53,216.53c-2-2.32-3.73-4.92-5.65-7.31l-14.88-22.34c.9-1,14.97,18.9,15.91,20.39.58.91,6.24,9.72,5.82,10.13-.77.74-.99-.61-1.2-.86ZM379.03,156.14c7.42,11.1,20.7,17.31,33.77,18.71-4.8-18.23-21.09-31.7-40.23-31.44,2.25,4.2,3.79,8.74,6.46,12.72ZM385.03,151.52c8.63,6.18,17.43,12.39,24.52,20.34-9.6-5.27-17.04-13.83-25.88-20.13l1.37-.21ZM350.61,114.75c-2.58.14-5.46,1-8.1.92,9.03,16.42,30.45,23.77,48.09,18.02-9.94-12.06-24-19.82-39.99-18.95ZM385.29,132.77l-32.14-12.94c11.25,2.65,22.23,6.48,32.36,12.03l-.22.91ZM149.91,114.75c-13.9-.87-28.34,5.24-37.46,15.71-.37.43-2.87,3.4-2.53,3.7,15.33,3.85,33.51-.49,43.91-12.73.54-.63,4.2-5.34,3.71-5.76-2.55.25-5.17-.77-7.63-.92ZM114.08,132.77c9.71-6.8,21.9-10.11,33.29-12.94l-33.29,12.94ZM117.94,115.13c5.17-9.86,5.91-20.5,4-31.37l-7.15,5.1c-12.16,10.89-14.63,25.81-9.95,41.14,5.12-4.38,9.92-8.81,13.1-14.87ZM113.86,101.35l3.91-8.34c-1.97,7.39-4.34,14.78-6.92,21.97-1.11,3.1-2.16,6.99-4.17,9.47,1-8.01,4.49-15.55,7.18-23.11ZM393.83,128.85c.46.36.59.89,1.39.69,4.12-12.19,3.17-26.01-5.31-36.07-.95-1.13-10.78-10.83-11.79-9.7.08,4.59-1.17,9.05-.94,13.66.55,11.23,7.77,24.58,16.66,31.43ZM384.21,95.93c3.96,9.68,7.83,19.54,9.62,29.91l-4.16-9.93-7.39-23.36,1.93,3.38ZM356.07,106.5c4.3,2.03,8.98,3.57,13.72,4.08-1.51-4.8-2.61-9.72-5.01-14.18-5.37-9.97-17.76-18.15-29.21-18.18,3.15,12.25,8.68,22.7,20.49,28.29ZM347.62,88.13c4.06,2.96,7.83,7.06,11.27,10.7,2.28,2.41,4.58,4.82,6.74,7.37l-.68.68-19.2-19.41c.91-.2,1.24.21,1.87.67ZM164.48,78.21c-17.69.85-31.33,15.15-33.75,32.36,5.66-.86,11.72-2.82,16.61-5.81,9.46-5.81,14.49-16.07,17.15-26.55ZM137.44,105.04c-.48.43-3.58,3.09-3.94,2.76,4.9-5.74,10.23-12.17,15.94-17.12.46-.4,3.12-2.66,3.48-2.3.2.87-.49,1.1-.92,1.62-3.74,4.49-10.18,11.16-14.55,15.04Z"/>
  <path class="cls-6" d="M246.32,265.49c-.87.2-1.1-.49-1.62-.92-3.7-3.05-6.96-7.05-10.91-9.9l-12.45-7.66c7.61.97,15.85,7.42,21.05,12.94.62.66,4.44,5.02,3.92,5.55Z"/>
  <path class="cls-6" d="M277.77,247c-4.27,3.18-9.13,5.32-13.36,8.6-3.56,2.76-6.74,7.05-9.99,9.43-.62.45-1.22,1.04-2.07.93-.38-.36,1.27-2.37,1.61-2.78,4.07-4.97,11.18-10.67,16.87-13.65,2.14-1.12,4.48-2.53,6.95-2.53Z"/>
  <g>
    <text class="cls-5" transform="translate(129.34 197.91)"><tspan x="0" y="0">روافد المعرفة</tspan></text>
    <text class="cls-4" transform="translate(151.58 346.47)"><tspan x="0" y="0">كلية العلوم - جامعة الزيتونة</tspan></text>
    <text class="cls-1" transform="translate(124.11 314.99)"><tspan x="0" y="0">Rwafed Almarefa</tspan></text>
  </g>
</svg>