<?xml version="1.0" encoding="UTF-8"?>
<svg id="Layer_1" data-name="Layer 1" xmlns="http://www.w3.org/2000/svg" viewBox="0 0 512 512">
  <defs>
    <style>
      .cls-1 {
        fill: #469cf0;
      }
    </style>
  </defs>
  <path class="cls-1" d="M223.34,223.67c0,1.6-1.3,2.9-2.9,2.9s-2.9-1.3-2.9-2.9,1.3-2.9,2.9-2.9,2.9,1.3,2.9,2.9"/>
  <path class="cls-1" d="M303.6,222.78c-9.2-1.66-18.48-2.77-27.81-3.32l-7.13-.58c-12.36-1.01-25.03-1.75-37.52-2h-1.45c-3.3-3.62-8.21-5.34-13.04-4.55-4.84.78-8.95,3.95-10.94,8.44-4.49,1.84-7.13,3.75-8.19,6.01-.36.8-.6,1.64-.71,2.51-1.25-4.45-1.31-9.15-.15-13.62s3.49-8.55,6.74-11.83l28.87-29.1c.58-.53.93-1.29.94-2.08.01-.8-.29-1.56-.86-2.11-.56-.56-1.33-.87-2.12-.84-.79.02-1.54.37-2.07.96l-28.87,29.09c-5.68,5.74-8.98,13.41-9.23,21.48-.25,8.07,2.58,15.93,7.91,22,.1.12.23.22.35.31,1.91,5.6,7.23,13.45,22.12,13.45,4.41.03,8.76,1.01,12.75,2.9h-37.38c-6.93,0-13.56-2.75-18.46-7.64-4.89-4.9-7.64-11.53-7.64-18.46s2.75-13.55,7.64-18.45l40.58-40.58c1.13-1.13,1.13-2.97,0-4.1-1.13-1.13-2.97-1.13-4.1,0l-40.58,40.58c-5.98,5.98-9.34,14.09-9.34,22.55s3.36,16.57,9.34,22.55c5.98,5.98,14.09,9.34,22.56,9.34h46.38c.18.01.35.01.52,0l2.9,2.16c5.64,4.09,10.93,7.99,16.87,7.99,5.59.18,11.08-1.56,15.56-4.91,5.6-.58,11.2-1.19,16.8-1.81l2.42-.26c2.9-.32,12.38-.49,14.29,10.39,1.45,8.26-2.9,18.61-12.56,20.96-8.56,2.09-19.32,1.26-28.8.52-2.02-.16-4.01-.3-5.91-.44-4.35-.28-13.55-5.27-20.99-9.26-9.15-4.93-14.94-7.95-18.49-7.95-4.23-.02-8.26,1.82-11.02,5.03-2.76,3.22-3.97,7.47-3.3,11.65l3.13.81,1.45.35h.17l1.57.38h.2c6.73,1.67,15.95,3.52,22.29,3.52,1.59,0,2.9,1.3,2.9,2.9s-1.3,2.9-2.9,2.9c-7.25,0-17.4-2.09-24.44-3.78l-.73-.17-.93-.22-.49-.17-.84-.22-3.52-.93c-2.59,2.79-3.97,6.49-3.83,10.29.13,3.8,1.77,7.4,4.54,10l3.81-.93,1.17-.28.62-.15,1.45-.33.77-.17c10.15-2.33,26.09-5.73,34.06-5.73,1.6,0,2.9,1.3,2.9,2.9s-1.3,2.9-2.9,2.9c-7.74,0-24.64,3.68-34.32,5.94l-1.14.26-.62.14-1.22.29h-.19l-3.03.74v1.26h0c0,3.84,1.53,7.53,4.24,10.25,2.72,2.72,6.4,4.25,10.25,4.25,3.37,0,9.04-2.72,18.83-7.48,8.85-4.34,19.84-9.72,25.21-9.97,4.35-.2,8.8-.1,13.47,0,9.22.22,18.75.45,27.76-1.86,26.74-6.82,43.68-34.52,37.77-61.76-4.81-21.22-22.56-38.51-44.36-42.93h0ZM329.14,304.12c-5.7,0-12.11-1.45-16.47-6.59,1.27-1.75,2.31-3.64,3.1-5.65,5.1,9.07,18.62,6.25,22.78,5.13-1.12,2.34-2.42,4.58-3.91,6.71-1.82.26-3.67.4-5.5.4M341.55,264.83c.2.74.4,1.45.56,2.2.29,1.36.52,2.73.7,4.09-1.27-.67-4.59-1.45-10.52,2.73-3.17,2.26-5.29,4.03-6.99,5.45-2.9,2.37-4.71,3.91-7.73,4.35h0c.11-1.79.01-3.58-.28-5.35,0-.16,0-.3-.1-.45,1.17-.26,2.15-1.08,4.35-2.9,1.68-1.45,3.99-3.32,7.34-5.71,5.38-3.91,9.59-4.71,12.68-4.39v-.02ZM281.87,225.69c5.42,17.16,5.9,30.18,1.45,38.76l-6.14.67c-.45.05-.88.2-1.26.45h-.58c.66-.62,1.26-1.31,1.78-2.04,5.07-7.15,4.55-20.39-1.45-38.35l6.2.52ZM218.98,217.87c2.3,0,4.52.92,6.15,2.55,1.63,1.63,2.55,3.84,2.55,6.15s-.92,4.52-2.55,6.15c-1.63,1.63-3.84,2.54-6.15,2.54s-4.52-.91-6.15-2.54c-1.63-1.64-2.55-3.84-2.55-6.15s.92-4.52,2.55-6.15c1.63-1.63,3.84-2.55,6.15-2.55M265.69,269.84h-.19.19ZM299.21,263.02c1.8-3.17,5.96-11.6,3.93-19.75-1.64-6.57-.16-11.15,2.08-14.07,2.09.55,4.15,1.24,6.16,2.06-1.55,1.02-4.35,3.83-2.62,10.59,2.19,8.7-1.08,17.39-3.45,22.04-1.97-.62-4.03-.93-6.11-.93v.06ZM310.3,266.33c2.66-1.31,7.92-6.15,10.31-14.5.75-3.37,2.98-6.23,6.07-7.77.82-.38,1.69-.65,2.58-.81,1.83,1.89,3.51,3.92,5.03,6.07-1.68-.6-3.51-.6-5.19,0-1.53.87-2.59,2.38-2.9,4.1-2.32,8.1-7.25,14.32-11.8,17.22h0c-1.1-1.67-2.49-3.14-4.1-4.32M307.4,302.65c.63,8.29,12.3,11.49,16.1,12.32-2.16,1.55-4.45,2.9-6.85,4.04-5.7-2.07-13.05-6.15-14.7-13.65,1.94-.63,3.77-1.55,5.45-2.71"/>
  <path class="cls-1" d="M202.09,367.17l-22.22,26.33-8.7-7.34,2.35-14.04c.39-2.33.76-4.43,1.24-6.49-2.51,3.2-5,6.23-7.84,9.59l-3.62,4.29-8.13-6.87,22.22-26.32,8.69,7.33-2.46,13.95c-.37,2.09-.99,4.62-1.63,7.11,2.67-3.38,5.32-6.53,8.35-10.11l3.61-4.29,8.14,6.87Z"/>
  <path class="cls-1" d="M213.29,404.4l-11.47-4.65-2.95,3.66-10.13-4.11,23.73-27.53,12.37,5.01-1.51,36.55-10.48-4.25.44-4.68ZM214.05,396.1l.78-8.24c.19-1.75.35-3.56.59-5.3l-3.27,4.21-5.18,6.46,7.08,2.87Z"/>
  <polygon class="cls-1" points="260.43 392.71 250.97 391.56 247.94 416.43 237.09 415.11 240.12 390.24 230.65 389.09 231.79 379.77 261.56 383.39 260.43 392.71"/>
  <rect class="cls-1" x="265.48" y="381.92" width="10.93" height="34.43" transform="translate(-33.29 24.75) rotate(-4.93)"/>
  <path class="cls-1" d="M283,398.86c-3.5-10.45,1.4-19.44,11.57-22.85,10.19-3.41,19.51.81,23.01,11.26,3.52,10.51-1.38,19.49-11.56,22.9-10.22,3.42-19.5-.81-23.02-11.31M306.84,390.87c-1.95-5.82-5.48-7.35-9.33-6.06-3.85,1.29-5.74,4.63-3.79,10.45,1.97,5.87,5.49,7.4,9.34,6.1,3.86-1.29,5.75-4.63,3.78-10.5"/>
  <path class="cls-1" d="M338.84,350.39l20.86,27.46-9.07,6.89-13.2-5.37c-2.2-.89-4.16-1.71-6.07-2.63,2.58,3.15,4.98,6.25,7.65,9.76l3.4,4.47-8.49,6.45-20.85-27.47,9.06-6.88,13.09,5.45c1.96.82,4.3,1.97,6.58,3.15-2.72-3.35-5.21-6.62-8.05-10.36l-3.39-4.47,8.48-6.45Z"/>
  <path class="cls-1" d="M168.35,147.34l9.31-5.44c1.82,2.64,3.92,2.3,6.55.77,2.72-1.58,3.5-2.94,2.69-4.32-.75-1.3-2.15-1.38-5.63.04l-3.88,1.6c-5.83,2.4-11.38,1.72-14.7-3.97-2.74-4.68-3.23-11.17,6.97-17.13,7.77-4.54,14.24-4.4,18.81,2.18l-8.73,5.1c-1.26-1.67-2.83-2.16-5.67-.5-2.59,1.52-3.16,2.85-2.48,4.02.69,1.17,2.03,1.16,3.98.37l3.88-1.6c8.05-3.3,13.05-2.41,16.15,2.89,3.73,6.39,1.52,13.24-7.43,18.46-9.11,5.32-15.9,3.57-19.83-2.48"/>
  <polygon class="cls-1" points="224.94 97.89 234.68 130.94 224.19 134.03 220.61 121.87 211.09 124.68 214.68 136.84 204.19 139.93 194.45 106.88 204.94 103.79 208.36 115.39 217.87 112.59 214.45 100.99 224.94 97.89"/>
  <path class="cls-1" d="M270.11,129.1l-11.17.46c-.48-.9-.71-1.96-.82-3.45l-.29-3.42c-.28-3.28-1.34-4.25-4.57-4.12l-3.77.16.46,11.21-10.92.46-1.43-34.42,16.97-.7c10.34-.43,13.44,4.19,13.66,9.55.17,4.11-1.45,6.94-4.83,8.43,3.24,1.08,4.69,3.39,5.15,7.34l.59,5.06c.22,1.78.4,2.6.97,3.45M257.13,107.02c-.1-2.37-1.44-3.38-3.91-3.28l-4.35.18.28,6.87,4.35-.18c2.46-.1,3.73-1.22,3.62-3.59"/>
  <rect class="cls-1" x="264.02" y="108.34" width="34.43" height="10.93" transform="translate(131.67 377.77) rotate(-82.5)"/>
  <path class="cls-1" d="M339.07,112.41l-11.62,32.42-10.02-3.59,3.3-9.2c1.58-4.42,3.02-8.27,4.67-12.3-.77,1.27-1.59,2.56-2.59,4.06l-10.25,15.7-8.38-3.01,1.96-18.67c.19-1.68.35-3.12.53-4.49-1.25,4.08-2.56,7.87-4.12,12.19l-3.29,9.2-10.02-3.59,11.62-32.42,15.84,5.68-1.86,13.21c-.18,1.37-.41,2.73-.61,4.15.69-1.24,1.38-2.43,2.11-3.61l6.87-11.41,15.84,5.68Z"/>
  <path class="cls-1" d="M368.42,146.83c-4.3,6.09-11.17,7.17-18.12,2.25l-4.78-3.38-5.7,8.07-8.93-6.31,19.88-28.15,13.72,9.69c6.95,4.91,8.23,11.75,3.93,17.83M359.25,140.35c1.26-1.78.76-3.5-1.14-4.84l-3.59-2.54-3.8,5.38,3.6,2.54c1.9,1.34,3.69,1.24,4.94-.54"/>
  <polygon class="cls-1" points="74.07 245.38 74.07 247.33 83.26 247.33 83.26 252.52 74.07 252.52 74.07 254.38 84.01 254.38 84.01 259.77 67.79 259.77 67.79 239.99 84.01 239.99 84.01 245.38 74.07 245.38"/>
  <path class="cls-1" d="M86.59,253.27h6.19c.14,1.83,1.27,2.28,3.03,2.28s2.58-.45,2.58-1.36c0-.86-.67-1.3-2.8-1.61l-2.39-.33c-3.58-.5-6.14-2.44-6.14-6.22,0-3.11,1.64-6.47,8.41-6.47,5.17,0,8.33,1.95,8.7,6.52h-5.81c-.14-1.19-.78-1.88-2.66-1.88-1.72,0-2.39.5-2.39,1.27s.67,1.16,1.86,1.33l2.39.34c4.95.69,7.17,2.58,7.17,6.11,0,4.25-3.08,7-9.03,7s-8.92-2.83-9.11-6.97"/>
  <polygon class="cls-1" points="123.56 245.38 118.08 245.38 118.08 259.77 111.81 259.77 111.81 245.38 106.34 245.38 106.34 239.99 123.56 239.99 123.56 245.38"/>
  <path class="cls-1" d="M145.52,249.88c0,6.56-3.28,9.89-9.78,9.89h-9.25v-19.77h9.34c6.44,0,9.69,3.33,9.69,9.89M139.02,249.88c0-3.41-1-4.67-3.58-4.67h-2.66v9.33h2.66c2.59,0,3.58-1.25,3.58-4.66"/>
  <path class="cls-1" d="M383.19,254.68v5.08h-17.33v-2.14c0-4.11,1.94-6.11,6.17-7.69l2.06-.78c1.97-.75,2.58-1.33,2.58-2.42,0-1.27-.92-1.91-2.5-1.91-1.66,0-2.39.75-2.5,2.44h-5.86c.27-4.97,3.39-7.72,8.88-7.72s8.39,2.94,8.39,6.67-2.5,5.39-5.44,6.47l-2.83,1.05c-.69.25-1.36.52-1.8.94h10.19Z"/>
  <path class="cls-1" d="M385.77,249.88c0-6.56,3.03-10.33,9.25-10.33s9.25,3.78,9.25,10.33-3.03,10.33-9.25,10.33-9.25-3.78-9.25-10.33M397.77,249.88c0-4.05-1.02-5.33-2.75-5.33s-2.75,1.28-2.75,5.33,1.02,5.33,2.75,5.33,2.75-1.28,2.75-5.33"/>
  <path class="cls-1" d="M423.87,254.68v5.08h-17.33v-2.14c0-4.11,1.95-6.11,6.17-7.69l2.06-.78c1.97-.75,2.58-1.33,2.58-2.42,0-1.27-.92-1.91-2.5-1.91-1.66,0-2.39.75-2.5,2.44h-5.86c.27-4.97,3.39-7.72,8.88-7.72s8.39,2.94,8.39,6.67-2.5,5.39-5.44,6.47l-2.83,1.05c-.69.25-1.36.52-1.8.94h10.19Z"/>
  <path class="cls-1" d="M444.21,253.91c0,3.56-3.19,6.3-8.75,6.3s-8.72-2.75-8.97-7.78h6.17c.11,1.95.89,2.81,2.64,2.81,1.61,0,2.42-.61,2.42-1.75s-.83-1.75-2.39-1.75h-1.4v-4.16h1.4c1.55,0,2.39-.47,2.39-1.58,0-1.05-.81-1.56-2.14-1.56-1.53,0-2.19.67-2.28,1.97h-6.14c.25-4.55,3.14-6.86,8.52-6.86s8.02,2.13,8.02,5.41c0,2-1.27,3.5-3.36,4.2,2.5.67,3.86,2.39,3.86,4.75"/>
</svg>