<?xml version="1.0" encoding="UTF-8"?>
<svg id="Layer_1" data-name="Layer 1" xmlns="http://www.w3.org/2000/svg" viewBox="0 0 500 500">
  <defs>
    <style>
      .cls-1 {
        fill-rule: evenodd;
      }

      .cls-1, .cls-2 {
        fill: #fff;
      }
    </style>
  </defs>
  <g>
    <path class="cls-1" d="M281.26,85.28c.79-.92,2.82-3.14,3.92-3.25-.27.79-1.6,2.17-2.1,2.72-6.48,6.82-10.45,15.8-12.88,24.89-3.82,14.34-7.3,31.64-17.77,43.58-.67.76-2.12,1.97-2.31,3.19,4.98-.52,13.83-5.56,17.53-8.87,8.27-7.4,13.93-15.92,17.92-26.92,5.8-16,6.49-40.31,24.47-47.51l-1.64-.61h-11.14l-1.53.37c-9.34,1.27-14.6,1.54-23.74,6.47-10.63,5.74-17.41,16.96-19.24,29.16-2.11,14.03,1.64,18.67-3.3,37.77-.41,1.6-1.75,5.24-1.89,6.22,1.06-.17,2.07-1.47,2.82-2.29,6.19-6.78,10.42-15.83,13.79-24.84,5.47-14.6,6.36-27.59,17.08-40.08h0Z"/>
    <path class="cls-1" d="M167.66,181.83c-2.87,1.01-4.86,11.99-5.2,15.34-.49,4.75,8.5,18.1,12.63,22.84,3.5,4.01,10.11,9.29,15.74,10.26,6.66,1.15,11.82-.57,15.43-4.12,3.43-3.37,6.1-8.95,4.57-15.76-.73-3.27-1.53-4.51-2.91-7.26-1.19-2.37-2.26-4.61-3.58-6.86-4.65-7.94-7.2-11.39-12.13-18.73-1.24-1.84-3.04-4.56-3.15-7.24-.12-2.78,1.96-5.29,3.78-6.23,1.51-.78,6.44-1.83,8.43-1.93,19.25-.97,28.56,8.3,42.69,8.2,5.57-.04,10.07-2.52,14.59-5.75l18.21-12.53c5.46-3.21,10.01-4,16.62-4.01-1.25-2.84-13.27-1.93-15.87-1.52-11.36,1.79-23.75,18.55-40.29,14.78-2.47-.56-4.52-1.47-6.91-2.17-13.94-4.05-37.6-9-48.51,3.47-6.62,7.57.2,16.53,4.65,22.94l7.71,10.98c4.58,7.34,2.92,4.13,6.41,12.6.47,1.15,1.17,2.2,1.31,3.49,1.11,10.43-8.74,8.13-13.53,5.16-3.32-2.06-7.43-6.17-9.6-9.33-8.11-11.86-10.16-25.05-11.09-26.63h0Z"/>
    <path class="cls-1" d="M317.4,233.63c-1.45.34-5.47,2.33-6.43,3.09-2.51,1.98-5.67,26.55-4.23,33.6.51,2.49,1.96,5.49,4.89,4.63,4.12-1.21,9.01-8.21,10.43-9.02-.65,5.61-12.49,23.81-16.98,28.35-.48.49-.91.79-1.42,1.25-.62.56-.83.81-1.55,1.41-20.16,16.62-38.19-.26-49.27,2.54l-15.93,6.47c-8.83,3.29-17.84,4.9-27.4,6.06-2.29.28-9.44-.13-10.49.25,2.3,2.18,26.3,4.29,32.81,2.85,2.17-.48,4.2-.54,6.31-1.03,2.78-.64,13.09-4.85,13.34-4.88,6.41-.84,3.98-.7,9.76.08,4.16.57,8.41,1.28,12.57,2.38,11.43,3.03,25.74-2.28,33.8-9.4,6.49-5.74,8.45-9.52,12.89-17.08,8.02-13.66,13.26-28.4,15.79-44.41.42-2.66,1.7-11.41,1.37-13.56-.81-.11-9.08,2.83-9.17,2.88-1.29.73-1.15,3.49-1.33,4.98-.84,6.69-3.62,19.79-6.44,24.83-2.51,4.49-10.73,11.43-7.96-5.73,1-6.18,4.47-18.64,4.66-20.53h0Z"/>
    <path class="cls-1" d="M161.52,223.21c.23.61,1.33,11.92,1.54,13.71.45,3.95,1.36,8.7,2.28,12.6,1.85,7.88,3.92,16.19,6.72,23.39,3.94,10.13,9.2,20.8,15.33,29.58.96,1.37,1.98,3.46,3.82,3.34,1.57-.1,4.65-.73,6.18-1.13.16-2.7-13.98-27.16-13.55-29.59,1.09-.7,9.48-1.87,11.29-1.54,1.33,2.23,9.32,26.72,10.47,28.76,1.48.03,7.17-2.02,8.26-2.7-.24-1.83-4.67-11.3-5.73-13.94-2.31-5.74-8.26-23.92-9.52-29.87-1.84-8.69-1.73-8.35-2.43-17.01-1.97-.51-3.57-.53-5.65-1.1-1.51-.41-3.54-1.12-5.04-1.46.67,4.23,2.16,9.86,3.23,14.14.63,2.52,3.36,12.12,3.17,14.12-.7.38-10.57,1.98-11.53,1.93-1.51-1.88-3.57-10.03-4.41-13.14-1.31-4.85-2.04-10.11-2.09-15.49-.02-1.95.77-7.17.25-8.12-.13-.23-4-3.66-4.46-4.12-2.81-2.81-3.83-3.73-6.06-6.98-1.23-1.79-1.02-1.83-2.07-1.99v6.59Z"/>
    <path class="cls-1" d="M300.9,161.32c.72,1.18.38.18,1.89,1.72,8.08,8.22,19.38,26.5,11,37.56-1.73,2.28-5.85,5.35-9.37,4.27-3.83-1.18-5.7-4-7.06-7.44-4.6-11.66-3.18-14.38-4.97-24.39-2.15-1.07-6.91-2.8-9.83-2.75l1.96,10.89c1.22,7.41,1.26,14.45,4.51,21.19,5.04,10.45,15.01,13.72,24.87,8.25,3.94-2.19,7.22-6.6,8.01-11.34.2-1.21.53-4.74.98-5.44.65.73,4.09,7.77,4.47,8.81,1.31,3.58,2.81,12.51,1.86,17.07-.29,1.4-.8,2.2-.92,3.81,1.97-.12,8.71-2.03,9.98-2.85l.2-6.25c-.13-15.76-6.13-28.9-13-39.56-3.43-5.31-7.66-9.78-11.77-14.33-8.24-9.14-6.52-7.74-11.4-1.45-.65.84-1.08,1.29-1.4,2.23h0Z"/>
    <path class="cls-1" d="M269.4,171.83c-1.03-2.53-2.91-1.15-6.59-.14-8.82,2.4-7.8-.16-8.35,9.45-.57,9.86-4.9,27.1-7.52,37.25-.53,2.07-2.01,5.15-1.81,7.13,2.5-.22,7.3-1.98,9.84-2.74,4.76-1.41,4.01-.34,4.72-8.04.36-3.87,1.09-7.83,1.46-11.41.28-2.67-.31-3.91,2.15-4.43,1.24-.27,4.4-.93,5.51-.85.74,1.1,1.64,3.97,2.21,5.42.78,1.98,1.5,3.78,2.31,5.74.41.99.65,2,1.02,2.85l3.52,8.34c1.84-.01,7.1-2.29,8.38-3.25l-16.85-45.31ZM261.62,193.32c-.22-1.6-.13-6.52.04-8.19.15-1.43-.24-6.99,2.17-5.53,1.05.63,3.5,11.72,3.57,12.96-1.9.45-3.59,1.06-5.78.76Z"/>
    <path class="cls-1" d="M262.57,245.24c1.54-2.19,4.35-6.64,4.74-9.82.64-5.2-.25-8.64-5.82-8.43-7.48.29-10.21,10.65-11.46,18l-10.26-5.26c-9.11-5.03-20-10.04-30.8-6.29-1.07.37-4.31,1.91-5.04,2.9.55.38,4.08-.13,7.01.01,6.69.33,12.36,1.68,18.32,4.57,5.1,2.47,9.14,5.85,14.55,8.47,1.65.8,4.2,1.12,5.51,2.14.54,1.47-.23,11.79-.21,14.5.04,6.63.77,14.35,2.31,20.58.74,2.96.88,2.87,2.26,5.15,2.83,4.67,6.06,2.93,9.91.37-1.11-1.09-2.2-.07-3.8-3.34-2.35-4.79-2.67-14.03-2.67-19.46,0-4.38-.28-10.4.18-14.6.63-5.86.63-2.9,5.27-9.51ZM256.71,242.7c.08-3.53,2.8-13.5,6.08-12.2.66,2.81-.99,5.11-2.07,6.83-.87,1.37-2.72,4.8-4.01,5.38Z"/>
    <path class="cls-1" d="M302.04,278.16c-1.44-5.95,2.23-16.47.31-22.56-.84-2.66-4.65-5.41-9.24.88-1.18,1.62-1.99,3.62-3.25,5.04-.4-.69-.09-1.79.06-2.61,1.4-8.01-.65-3.41,5.15-11.54,1.17-1.64,1.55-2.16,2.58-4.27,2.02-4.17,2.39-5.55,2.57-10.98.08-2.18-1.74-9.08-5.45-7.87-2.3.76-4.67,4.38-5.44,7.92l-2.39,11.06c-1.09,4.85-.78,5.15-3.41,9.98l-5.06,8.7c2.17-.34,4.58-3.15,6.71-4.05,0,4.67-2.91,32.09-2.03,33.65.3.29,1.44.16,1.83.11.51-.07,1.76-.29,2.15-.49,1.26-.66,1.22-2.32,1.22-4.08,0-3.5.4-6.52,1.05-9.79.45-2.25,3.51-13.96,6.28-15.13.03,2.15-.69,3.81-1.16,5.69-4.99,19.65,14.45,29.18,17.55,11.35-3.34.41-8.33,5.94-10.01-1.03ZM294.53,228.31c2.51,2.17.31,10.81-1.87,12.23-.03-2.27.95-10.92,1.87-12.23Z"/>
    <path class="cls-1" d="M222.03,187.4c.97,3.64,2.9,15.29,3.8,19.86l1.16,10.47c.2,3.97-.38,7.73-.52,11.35,1.24.22,7.5-.51,9.13-.98,1.29-.38.51.24,1.09-.73.85-1.48-.71-6.85-.96-8.99-.67-5.62-1.57-13.79-1.71-19.26-.09-3.62-1.08-5.62-.19-9.8,3-.55,10.2.93,12.17-.02.58-1.2-.64-10.4-1.32-11.9-6.23-.8-13.1-1.04-19.3-1.77-2.91-.34-17.77-2.18-19.46-2.08-.09,1.56.85,7.94,1.24,9.95.28,1.49.41,1.7,1.98,1.89,2.91.36,11.07.88,12.88,2.01h0Z"/>
    <path class="cls-1" d="M246.56,287.67c-2.05-4.59-.87-20.16-.47-24.93.4-4.7-.47-9.53-4.55-10.13-1.83-.27-3.94,1.14-5.33,1.89-2.82,1.53-2.47,1.26-4.21,3.48-8.29,10.57-8.93,34.43-.43,32.87,1.72-.32,3.52-1.82,4.49-2.9.83-.92,2.73-3.55,3.47-4.15,3.36,7.95,2.53,7.37,7.95,6.59.05-1.44-.46-1.69-.93-2.72ZM238.97,272.02c-.36,2.17-.66,4.21-1.77,5.69-3.26,4.36-11.39,3.43-2.34-14.71.94-1.88,1.32-3.65,3.59-3.6,1.87,3.4,1.22,8.42.52,12.62Z"/>
    <path class="cls-1" d="M271.84,228.34c-.68,1.97-1.02,7.7-1.41,10.32-1.25,8.6-1.35,10.96-3.27,19.95-.62,2.9-1.69,6.94-1.84,9.82-.15,2.97-.31,8.8.25,11.45.58,2.72,1.79,6.33,3.12,8.48,4.29,6.98,11.84-3.19,12.58-5.71-2.13-.32-7.12,4.91-8.19-3.85-.54-4.43,1.83-14.11,2.51-19.34.33-2.55.19-4.27,1.84-5.57,1.51-1.19,3.42-1.5,4.35-3.03.69-1.13,1.18-4.77.98-6.35-1.81-.12-3.54,1.34-4.55.81l3.13-18.08c-2.61-.08-6.95.61-9.51,1.1h0Z"/>
    <path class="cls-1" d="M216.94,284.78c-1.55-4.18,4.32-4.62,6.82-13.98,1.22-4.58.61-10.91-1.39-14.72-6.93-13.22-12.44,2.24-13.62,10.14-1.11,7.42-2.14,23.72,6.34,26.76,2.09.75,8.42,2.69,9.52-.61.34-1,.54-2.81.65-3.84-2.53.1-6.33,1.64-8.33-3.76ZM215.03,274.26c.04-3.92,1.07-16.42,2.9-18.68,3.78,6.93.06,17.74-2.9,18.68Z"/>
    <path class="cls-1" d="M218.95,97.7l4.2,5.46c10.46,15.62,18.12,48.5,19.06,49.76.03-4.92-1.88-13.36-2.77-18.17-1.8-9.78-7.06-31.79-14.19-38.23-2.96-2.67-3.63-1.19-5.06-.11-.99.75-.64.28-1.24,1.3h0Z"/>
  </g>
  <g>
    <g>
      <path class="cls-2" d="M91.57,416.42h-1.67c-1.45,0-2.63.44-3.55,1.32-.92.88-1.38,2.29-1.38,4.22s.46,3.34,1.38,4.22c.92.88,2.1,1.32,3.55,1.32h1.67c1.45,0,2.63-.44,3.55-1.32.92-.88,1.38-2.29,1.38-4.22s-.46-3.34-1.38-4.22c-.92-.88-2.1-1.32-3.55-1.32Z"/>
      <path class="cls-2" d="M78.36,416.42h-1.67c-1.45,0-2.63.44-3.55,1.32-.92.88-1.38,2.29-1.38,4.22s.46,3.34,1.38,4.22c.92.88,2.1,1.32,3.55,1.32h1.67c1.45,0,2.63-.44,3.55-1.32.92-.88,1.38-2.29,1.38-4.22s-.46-3.34-1.38-4.22c-.92-.88-2.1-1.32-3.55-1.32Z"/>
      <path class="cls-2" d="M236.35,356.9c-3.29-3.56-8.22-5.34-14.8-5.34-2.84,0-5.5.34-7.98,1.03-2.48.69-4.84,1.78-7.06,3.27-2.23,1.49-4.36,3.42-6.39,5.79-2.03,2.37-4.03,5.24-5.98,8.6l-3.68,6.29c-1.34-.88-2.01-2.51-2.01-4.88v-5.21h-9.19v5.21c0,3.86-2.23,5.79-6.69,5.79h-5.02c-2.12,0-3.61-.3-4.47-.91-.86-.61-1.32-1.68-1.38-3.23h5.85v-12.41h-1.67c-2.51,0-5.04-.17-7.61-.5-2.56-.33-4.96-.8-7.19-1.41l-16.13-4.14c-1.34-.33-2.45-.61-3.34-.83-.89-.22-1.66-.39-2.3-.5-.64-.11-1.2-.19-1.67-.25-.47-.05-.93-.08-1.38-.08-3.51,0-6.12.91-7.82,2.73-1.7,1.82-2.55,4.69-2.55,8.6v6.37h9.61v-6.2l12.62,3.06,13.37,2.81v.41l-3.09,1.49c-2.4,1.16-4.65,2.07-6.77,2.73-2.12.66-4.29,1.16-6.52,1.49-2.23.33-4.58.54-7.06.62-2.48.08-5.28.12-8.4.12h-5.77c-1.12,0-2.27-.03-3.47-.08-1.2-.05-2.51-.15-3.93-.29-1.42-.14-2.97-.32-4.64-.54-1.67-.22-3.57-.5-5.68-.83l-9.95-1.49v12.41l19.73,3.06c-1.23,2.1-3.41,3.72-6.56,4.88-3.15,1.16-7.12,1.74-11.91,1.74h-6.69c-5.29,0-9.42-.95-12.37-2.85-2.95-1.9-4.43-4.59-4.43-8.07,0-1.76.32-3.86.96-6.29.64-2.43,1.52-4.83,2.63-7.2l-8.02-2.32c-1.23,2.92-2.19,5.94-2.88,9.06-.7,3.12-1.04,5.91-1.04,8.4,0,3.58.64,6.77,1.92,9.55,1.28,2.78,3.15,5.16,5.6,7.11,2.45,1.96,5.45,3.45,8.99,4.47,3.54,1.02,7.54,1.53,12,1.53,4.9,0,9.28-.57,13.12-1.7,3.85-1.13,7.11-2.76,9.78-4.88,2.68-2.12,4.72-4.72,6.14-7.78.79-1.7,1.35-3.54,1.7-5.5h4.78c2.68,0,5.24-.12,7.69-.37,2.45-.25,4.99-.77,7.61-1.57,2.62-.8,5.39-1.93,8.32-3.39,2.93-1.46,6.23-3.43,9.91-5.91l.33-.25c.56,3.92,1.99,6.8,4.3,8.65,2.31,1.85,5.56,2.8,9.74,2.85,3.62,0,6.38-.9,8.28-2.69,1.89-1.79,3.23-4.62,4.01-8.48h.5c.78,3.86,2.33,6.69,4.64,8.48,2.31,1.79,5.7,2.69,10.16,2.69h23.91c7.69,0,13.32-1.46,16.89-4.38,3.57-2.92,5.35-7.5,5.35-13.73s-1.64-11.29-4.93-14.85ZM232.25,374.23c-.45.83-1.21,1.48-2.3,1.94-1.09.47-2.51.8-4.26.99-1.76.19-3.97.29-6.65.29h-20.98l-.25-.5,3.59-5.38c1.06-1.6,2.17-2.9,3.34-3.89,1.17-.99,2.48-1.76,3.93-2.32,1.45-.55,3.12-.92,5.02-1.12,1.89-.19,4.1-.29,6.6-.29h2.51c3.62,0,6.21.58,7.77,1.74,1.56,1.16,2.34,2.92,2.34,5.29,0,1.32-.22,2.4-.67,3.23Z"/>
    </g>
    <g>
      <path class="cls-2" d="M286.31,369.43l9.11-4.55c2.34-1.16,4.08-2.37,5.22-3.64,1.14-1.27,1.71-2.9,1.71-4.88s-.56-3.27-1.67-4.01c-1.12-.74-2.7-1.12-4.76-1.12h-6.52l-.17-.66,10.28-5.71-3.01-4.96-5.52,3.14c-2.4,1.38-4.24,2.68-5.52,3.89-1.28,1.21-1.92,2.79-1.92,4.72,0,2.21.54,3.72,1.63,4.55,1.09.83,2.63,1.24,4.64,1.24h6.69l.17.58-13.12,6.12,2.76,5.29Z"/>
      <path class="cls-2" d="M343.56,396.56h-1.67c-1.45,0-2.63.44-3.55,1.32-.92.88-1.38,2.29-1.38,4.22s.46,3.34,1.38,4.22c.92.88,2.1,1.32,3.55,1.32h1.67c1.45,0,2.63-.44,3.55-1.32.92-.88,1.38-2.29,1.38-4.22s-.46-3.34-1.38-4.22c-.92-.88-2.1-1.32-3.55-1.32Z"/>
      <path class="cls-2" d="M356.77,396.56h-1.67c-1.45,0-2.63.44-3.55,1.32-.92.88-1.38,2.29-1.38,4.22s.46,3.34,1.38,4.22c.92.88,2.1,1.32,3.55,1.32h1.67c1.45,0,2.63-.44,3.55-1.32.92-.88,1.38-2.29,1.38-4.22s-.46-3.34-1.38-4.22c-.92-.88-2.1-1.32-3.55-1.32Z"/>
      <path class="cls-2" d="M412.78,346.6h1.67c1.45,0,2.63-.44,3.55-1.32.92-.88,1.38-2.29,1.38-4.22s-.46-3.34-1.38-4.22c-.92-.88-2.1-1.32-3.55-1.32h-1.67c-1.45,0-2.63.44-3.55,1.32-.92.88-1.38,2.29-1.38,4.22s.46,3.34,1.38,4.22c.92.88,2.1,1.32,3.55,1.32Z"/>
      <path class="cls-2" d="M442.7,360.91c-2.51,0-5.04-.17-7.61-.5-2.56-.33-4.96-.8-7.19-1.41l-16.13-4.14c-1.34-.33-2.45-.61-3.34-.83-.89-.22-1.66-.39-2.3-.5-.64-.11-1.2-.19-1.67-.25-.47-.05-.93-.08-1.38-.08-3.51,0-6.12.91-7.82,2.73-1.7,1.82-2.55,4.69-2.55,8.6v6.37h9.61v-6.2l12.62,3.06,13.37,2.81v.41l-3.09,1.49c-2.4,1.16-4.65,2.07-6.77,2.73-2.12.66-4.29,1.16-6.52,1.49-2.23.33-4.58.54-7.06.62-2.48.08-5.28.12-8.4.12h-8.69c-3.9,0-5.85-1.93-5.85-5.79v-43.02h-10.03v43.02c0,3.86-2.23,5.79-6.69,5.79h-5.43c-3.9,0-5.85-1.93-5.85-5.79v-11.83h-9.19v11.83c0,3.86-2.23,5.79-6.69,5.79h-5.02c-4.46,0-6.69-1.93-6.69-5.79v-43.02h-10.03v43.02c0,1.16-.28,2.11-.84,2.85-.56.74-1.55,1.34-2.97,1.78-1.42.44-3.34.74-5.77.91-2.42.17-5.5.25-9.24.25h-11.7c-3.62,0-6.66-.15-9.11-.45-2.45-.3-4.43-.79-5.94-1.45-1.5-.66-2.59-1.53-3.26-2.61-.67-1.08-1-2.41-1-4.01,0-1.38.26-2.94.79-4.67.53-1.74,1.27-3.54,2.22-5.42l-8.02-2.32c-1.06,2.59-1.88,5.21-2.47,7.86-.58,2.65-.88,5.08-.88,7.28,0,3.59.57,6.59,1.71,9.02,1.14,2.43,2.99,4.4,5.56,5.91,2.56,1.52,5.92,2.61,10.07,3.27,4.15.66,9.26.99,15.34.99,4.4,0,8.15-.21,11.24-.62,3.09-.41,5.67-1.1,7.73-2.07,2.06-.96,3.65-2.22,4.76-3.76,1.11-1.54,1.89-3.45,2.34-5.71h.5c.84,3.86,2.52,6.69,5.06,8.48,2.54,1.79,6.06,2.69,10.57,2.69h0c3.62,0,6.38-.9,8.28-2.69,1.89-1.79,3.23-4.62,4.01-8.48h.5c.78,3.86,2.33,6.69,4.64,8.48,2.31,1.79,5.7,2.69,10.16,2.69,3.51,0,6.19-.9,8.02-2.69,1.84-1.79,3.12-4.62,3.85-8.48h.5c.78,3.86,2.37,6.69,4.76,8.48,2.4,1.79,5.88,2.69,10.45,2.69h8.28c2.67,0,5.24-.12,7.69-.37,2.45-.25,4.99-.77,7.61-1.57,2.62-.8,5.39-1.93,8.32-3.39,2.93-1.46,6.23-3.43,9.91-5.91l7.86-5.29h6.52v-12.41h-1.67Z"/>
    </g>
  </g>
</svg>