<?xml version="1.0" encoding="UTF-8"?>
<svg id="Layer_1" data-name="Layer 1" xmlns="http://www.w3.org/2000/svg" viewBox="0 0 500 500">
  <defs>
    <style>
      .cls-1 {
        fill: #122e43;
      }

      .cls-2 {
        fill: #e8b98b;
      }
    </style>
  </defs>
  <polygon class="cls-1" points="60.89 327.04 79.72 327.04 79.72 286.65 96.3 286.65 96.3 270.71 44.31 270.71 44.31 286.65 60.89 286.65 60.89 327.04"/>
  <path class="cls-1" d="M276.07,327.04h17.54v-27.92l12.96,20.04h.32l12.96-20.04v27.92h18.75v-56.33h-19.63l-12.07,19.8-12.07-19.8h-19.63v54.22l-22.85-54.62h-18.67l-22.74,54.35-18.54-29.49,19.63-24.46h-21.89l-16.01,21.08v-21.08h-18.83v54.22l-22.85-54.62h-18.67l-23.74,56.73h20.12l2.9-7.56h19.72l2.98,7.56h38.39v-11.99l4.83-5.87,11.02,17.86h40.08l2.9-7.56h19.72l2.98,7.56h20.44ZM117.78,306.12l5.15-13.68,5.15,13.68h-10.3ZM237.69,306.12l5.15-13.68,5.15,13.68h-10.3Z"/>
  <path class="cls-1" d="M374.41,328.25c17.38,0,30.82-13.04,30.82-29.37v-.16c0-16.42-13.28-29.21-30.66-29.21s-30.82,13.04-30.82,29.37v.16c0,16.42,13.28,29.21,30.66,29.21ZM362.74,298.72c0-6.6,4.51-12.55,11.67-12.55s11.83,6.04,11.83,12.71v.16c0,6.6-4.51,12.55-11.67,12.55s-11.83-6.04-11.83-12.71v-.16Z"/>
  <polygon class="cls-1" points="429.21 310.95 429.21 270.71 410.38 270.71 410.38 327.04 455.69 327.04 455.69 310.95 429.21 310.95"/>
  <path class="cls-1" d="M247.02,372.03c-1.15-2.52-2.77-4.49-4.85-5.92s-4.58-2.15-7.48-2.15c-1.87,0-3.59.32-5.17.94-1.58.63-3.06,1.54-4.43,2.73-1.37,1.19-2.67,2.65-3.91,4.36-1.24,1.71-2.46,3.66-3.68,5.83-.78,1.35-1.43,2.34-1.95,2.99-.52.65-1,1.07-1.43,1.27-.43.2-.91.29-1.43.29h-120.73v-37.94h-10.48v41.78c0,2.17-.33,3.97-.98,5.4s-1.53,2.57-2.64,3.42c-1.11.85-2.34,1.44-3.71,1.79-1.37.35-2.79.52-4.26.52-2.3,0-4.31-.35-6.02-1.04-1.71-.69-3.04-1.75-3.97-3.16-.93-1.41-1.4-3.16-1.4-5.24,0-1.13.14-2.42.42-3.87.28-1.45.7-3.07,1.27-4.85l-8.66-2.73c-1.04,2.73-1.81,5.27-2.31,7.62-.5,2.34-.75,4.53-.75,6.57s.35,3.93,1.04,5.92c.69,2,1.82,3.83,3.38,5.5,1.56,1.67,3.64,3,6.25,4,2.6,1,5.81,1.5,9.63,1.5,5.08,0,9.33-.86,12.76-2.57,3.43-1.71,6.02-4.16,7.78-7.32.86-1.54,1.5-3.24,1.94-5.08h121.76c1.68-.02,3.1-.15,4.26-.39,1.24-.26,2.31-.72,3.22-1.37.7-.5,1.37-1.14,1.99-1.9.99.9,2.07,1.68,3.25,2.32,1.63.89,3.37,1.54,5.24,1.95,1.86.41,3.76.61,5.69.59,1.93-.02,3.83-.26,5.69-.72,1.86-.46,3.6-1.12,5.21-1.99,1-3.69,1.44-7.16,1.33-10.41-.11-3.25-.74-6.14-1.89-8.66ZM234.59,383.38c-1.54-.37-2.93-.83-4.17-1.4-1.1-.5-2.07-1.03-2.93-1.58.64-1.11,1.21-2.02,1.73-2.75,1-1.41,1.86-2.35,2.57-2.83.72-.48,1.33-.72,1.86-.72.87,0,1.65.29,2.34.88.69.59,1.29,1.37,1.79,2.34.5.98.9,2.04,1.2,3.19.3,1.15.48,2.31.52,3.48-1.74-.04-3.37-.25-4.91-.62Z"/>
  <polygon class="cls-1" points="442.74 350.64 436.84 344.63 430.4 351.59 437.23 358.49 442.79 352.54 448.69 358.49 455.19 351.59 448.36 344.63 442.74 350.64"/>
  <path class="cls-1" d="M447.25,362.07l-9.37,9.57c1.52,1.91,2.78,3.8,3.77,5.66,1,1.87,1.67,3.56,2.02,5.08h-11.46c-1.91,0-3.7-.2-5.37-.59-.63-.15-1.23-.35-1.81-.62-.08-.86-.19-1.71-.34-2.54-.76-4.14-2.5-7.67-5.21-10.58-2.3-2.46-5.41-4.38-9.32-5.75l14.03-11.63-6.9-8.2-18.22,15.16v11.85c3.12.48,5.8,1.36,8.04,2.64,2.23,1.28,4.05,2.81,5.43,4.59,1.39,1.78,2.34,3.67,2.86,5.66h-142.8c-1.04,0-1.88-.09-2.51-.26-.63-.17-1.12-.47-1.46-.88-.35-.41-.59-.95-.72-1.63-.13-.67-.2-1.49-.2-2.44v-32.74h-10.48v36.51c0,2.08.25,3.86.75,5.34.5,1.48,1.26,2.68,2.28,3.61,1.02.93,2.31,1.62,3.87,2.05,1.56.43,3.43.65,5.6.65h154.64c.1-.56.19-1.12.28-1.67.07.03.14.07.21.1,2.36,1.04,4.81,1.56,7.32,1.56h17.51c1.6-4.64,2.4-8.8,2.38-12.46-.02-3.67-.51-6.97-1.46-9.93-.95-2.95-2.08-5.66-3.38-8.14Z"/>
  <polygon class="cls-2" points="235.2 190.45 239.65 186.78 249.92 178.32 260.18 186.76 264.63 190.43 268.11 193.3 325.3 240.41 325.3 192.18 289.3 164.1 286.7 162.07 264.13 144.47 263.22 143.76 249.91 133.4 213.1 162.05 213.13 162.09 210.53 164.11 174.54 192.18 174.54 240.41 231.73 193.3 235.2 190.45"/>
  <rect class="cls-2" x="174.54" y="92.44" width="150.76" height="36.38"/>
  <rect class="cls-2" x="230.92" y="200.27" width="14.67" height="14.67"/>
  <rect class="cls-2" x="254.26" y="200.27" width="14.67" height="14.67"/>
  <rect class="cls-2" x="230.92" y="223.6" width="14.67" height="14.67"/>
  <rect class="cls-2" x="254.26" y="223.6" width="14.67" height="14.67"/>
</svg>