<?xml version="1.0" encoding="UTF-8"?>
<svg id="Layer_1" data-name="Layer 1" xmlns="http://www.w3.org/2000/svg" viewBox="0 0 500 500">
  <defs>
    <style>
      .cls-1 {
        fill: #00a6e6;
      }

      .cls-2 {
        fill: #05baee;
      }

      .cls-3 {
        fill: #522582;
      }
    </style>
  </defs>
  <path class="cls-3" d="M344.86,96.77c-.33-.39-.59-.65-.72-.78-.2-.13-.46-.26-.72-.39.85-.13,1.57-.46,2.03-.98.52-.59.78-1.24.78-1.96,0-.59-.13-1.05-.39-1.51-.26-.46-.59-.78-.98-1.04-.39-.2-.98-.33-1.7-.4-.2,0-1.31-.06-3.33-.06h-2.16v10.53h2.16v-4.32h.59c.59,0,1.05.2,1.44.46.39.33.92,1.05,1.51,2.16l.85,1.7h2.68l-1.24-2.09c-.46-.79-.72-1.18-.79-1.31M343.03,94.02c-.33.13-1.11.2-2.35.2h-.85v-2.88h.85c1.24,0,2.03.07,2.29.13.33.13.59.26.72.52.2.2.26.46.26.78,0,.26-.07.52-.26.79-.13.2-.39.39-.65.46Z"/>
  <path class="cls-3" d="M350.82,89.9c-.92-1.64-2.16-2.81-3.73-3.66-1.57-.85-3.21-1.31-4.91-1.31s-3.34.46-4.91,1.31c-1.57.85-2.81,2.03-3.67,3.66-.92,1.57-1.37,3.27-1.37,4.97s.46,3.4,1.31,4.97c.91,1.57,2.09,2.81,3.66,3.66,1.57.92,3.27,1.31,4.97,1.31s3.4-.39,4.97-1.31c1.57-.85,2.75-2.09,3.67-3.66.85-1.57,1.31-3.2,1.31-4.97s-.46-3.4-1.31-4.97M349.11,98.86c-.72,1.24-1.7,2.22-2.94,2.94-1.24.72-2.62,1.11-3.99,1.11s-2.68-.39-3.99-1.11c-1.24-.72-2.23-1.7-2.95-2.94-.72-1.24-1.04-2.55-1.04-3.99s.39-2.75,1.11-3.99c.72-1.31,1.7-2.29,2.94-2.94,1.24-.72,2.55-1.05,3.93-1.05s2.68.33,3.92,1.05c1.31.65,2.29,1.64,3.01,2.94.72,1.24,1.05,2.62,1.05,3.99s-.33,2.75-1.05,3.99Z"/>
  <path class="cls-2" d="M271.03,124.49s-.02-.07-.04-.11c0,.01-.04.04-.04.04l-10.66-10.71c-2.99-2.94-6.54-4.43-10.72-4.43h-101.7v26.24c0,9.97,8.14,18.13,18.11,18.13h26.94c10.02,0,18.11,8.14,18.11,18.11v94.26c0,9.97,8.16,18.13,18.18,18.13h30.33v-112.39c0-9.97-8.16-18.11-18.18-18.11h.75l28.92-29.16Z"/>
  <path class="cls-3" d="M304.59,166.86h-30.33v99.15c0,9.97,8.16,18.12,18.13,18.12h30.33v-99.15c0-10.02-8.15-18.12-18.12-18.12"/>
  <path class="cls-3" d="M304.58,109.28h-12.26c-.51,0-1.03.03-1.52.08-.41.03-.82.08-1.24.18-.23.02-.44.05-.67.13-.26.03-.52.1-.77.18-.23.05-.49.13-.72.23-.15.05-.28.08-.44.15-.26.08-.54.2-.8.33-.34.13-.67.31-1,.49-.36.2-.7.41-1.03.62-.46.28-.9.62-1.34,1-.18.15-.36.31-.54.49l-40.15,40.48h80.61v-26.24c0-9.97-8.17-18.13-18.13-18.13"/>
  <path class="cls-1" d="M299.13,311.46h0c-3.8,0-6.88,3.08-6.88,6.88s3.08,6.88,6.88,6.88,6.88-3.08,6.88-6.88-3.08-6.88-6.88-6.88"/>
  <path class="cls-1" d="M193.77,387.29c-.63,0-1.15.21-1.57.64-.43.42-.64.97-.64,1.66,0,.74.22,1.3.65,1.69.43.38.96.57,1.56.57s1.13-.19,1.56-.57c.44-.38.65-.94.65-1.69,0-.68-.21-1.23-.63-1.66-.42-.42-.95-.64-1.59-.64"/>
  <path class="cls-1" d="M187.61,387.29c-.63,0-1.15.21-1.57.64-.43.42-.64.97-.64,1.66,0,.74.22,1.3.65,1.69.43.38.95.57,1.56.57s1.13-.19,1.56-.57c.44-.38.65-.94.65-1.69,0-.68-.21-1.23-.64-1.66-.43-.42-.95-.64-1.57-.64"/>
  <path class="cls-1" d="M246.34,376.11c.63,0,1.17-.2,1.63-.6.46-.4.7-1,.7-1.78,0-.7-.22-1.27-.67-1.7-.44-.44-1-.65-1.66-.65s-1.22.22-1.66.65c-.44.44-.67,1-.67,1.7,0,.78.23,1.38.7,1.78.47.4,1.01.6,1.63.6"/>
  <path class="cls-1" d="M252.72,380.09h-13.25v-8.63h-3.97v8.63h-78.8v-8.08c0-.08-.01-.15-.05-.22-.09-.21-.29-.35-.53-.35h-18.91c-.15,0-.3.06-.41.17l-2.56,2.56c-.07.07-.12.17-.15.27-.01.04-.02.09-.02.14v9.38c0,.32.25.57.57.57h1.31s13.53,0,13.53,0h0s3.22,0,3.22,0v3.1h-18.4c-.32,0-.57.26-.57.57v2.83c0,.32.26.58.57.58h21.82c.32,0,.57-.26.57-.58v-2.83s-.01-.07-.02-.1v-3.57h97.1l2.93-2.91v-10.17h-3.98v8.63ZM138.61,375.89h13.51c.31,0,.57.26.57.58v3.19c-.07.24-.29.41-.55.41h-14.1v-2.86h.02v-.89c.07-.25.29-.43.55-.43Z"/>
  <path class="cls-1" d="M127.79,371.49h-18.91c-.15,0-.3.06-.4.17l-2.56,2.56c-.08.08-.13.17-.15.26-.02.05-.02.1-.02.15v5.06c-.06.21-.22.36-.42.41-.04.01-.08.02-.13.02h-3.72s-.03,0-.05,0h-.38c-.11.02-.22.08-.3.16l-2.56,2.56c-.07.07-.12.17-.15.26,0,.02,0,.04,0,.07v8.03c0,.32.26.57.57.57h2.83c.32,0,.57-.26.57-.57v-6.62h23.24c.16,0,.3-.06.4-.17l2.57-2.56c.07-.08.12-.17.15-.26.01-.04.02-.09.02-.14v-9.39c0-.31-.26-.57-.58-.57M124.37,379.72c-.07.23-.3.41-.55.41h-13.5s-.1,0-.15-.02c-.25-.06-.43-.28-.43-.55v-3.18c.07-.25.28-.43.55-.43h13.51c.32,0,.57.26.57.58v3.19Z"/>
  <polygon class="cls-3" points="95.12 320.91 106.71 320.91 106.71 355.75 118.01 355.75 118.01 320.91 129.6 320.91 129.6 312.08 95.12 312.08 95.12 320.91"/>
  <rect class="cls-3" x="137.78" y="312.09" width="11.3" height="43.66"/>
  <polygon class="cls-3" points="157.26 320.91 168.85 320.91 168.85 355.75 180.15 355.75 180.15 320.91 191.74 320.91 191.74 312.08 157.26 312.08 157.26 320.91"/>
  <path class="cls-3" d="M211.09,312.09l-15.53,43.66h11.36l2.65-8.59h14.3l2.71,8.59h11.71l-15.65-43.66h-11.53ZM212.1,338.98l4.53-14.71,4.65,14.71h-9.18Z"/>
  <polygon class="cls-3" points="281.41 355.75 281.41 312.09 270.94 312.09 270.94 336.5 255.76 312.09 245.93 312.09 245.93 355.75 256.4 355.75 256.4 331.27 271.58 355.75 281.41 355.75"/>
  <rect class="cls-3" x="293.48" y="329.53" width="11.3" height="26.21"/>
  <path class="cls-3" d="M321.77,353.01c1.61,1.28,3.46,2.2,5.56,2.76,2.1.57,4.24.85,6.44.85s4.27-.27,6.33-.79c2.06-.53,3.89-1.41,5.5-2.65,1.61-1.24,2.91-2.86,3.91-4.85,1-2,1.5-4.49,1.5-7.47v-28.77h-10.94v28.77c0,2.24-.48,3.97-1.44,5.21-.96,1.24-2.54,1.85-4.74,1.85-2.04,0-3.58-.67-4.62-2-1.04-1.33-1.56-3.14-1.56-5.41v-28.42h-11.3v28.36c0,2.98.49,5.5,1.47,7.56.98,2.06,2.27,3.73,3.88,5"/>
  <polygon class="cls-3" points="373.08 333.92 379.91 349.98 386.85 349.98 394.09 333.45 394.09 355.75 404.56 355.75 404.56 312.09 394.44 312.09 383.5 337.86 372.79 312.09 362.49 312.09 362.49 355.75 373.08 355.75 373.08 333.92"/>
  <path class="cls-3" d="M401.92,384.38l2.56-2.56c.11-.11.17-.25.17-.4v-9.38c0-.32-.25-.57-.57-.57h-2.83c-.32,0-.57.26-.57.57v7.49c0,.32-.26.57-.57.57h-13.51c-.32,0-.57-.26-.57-.57v-7.49c0-.32-.26-.57-.57-.57h-2.83c-.32,0-.57.26-.57.57v7.49c0,.32-.26.57-.57.57h-12.75c-.32,0-.57-.26-.57-.57v-7.49c0-.32-.26-.57-.57-.57h-2.83c-.32,0-.57.26-.57.57v7.49c0,.32-.26.57-.57.57h-96.98c-.32,0-.57-.26-.57-.57v-13.1c0-.32-.26-.57-.57-.57h-5.95c-.32,0-.57.26-.57.57v2.39c0,.32.26.57.57.57h1.97c.32,0,.57.26.57.57v14.01c0,.32.26.57.57.57h138.86c.15,0,.3-.06.4-.17"/>
  <path class="cls-3" d="M328.32,372.18c-.42.41-.64.96-.64,1.64,0,.74.22,1.31.65,1.7.44.39.95.59,1.56.59s1.13-.2,1.56-.59c.43-.39.65-.96.65-1.7,0-.68-.21-1.23-.62-1.64-.42-.41-.95-.62-1.59-.62s-1.15.21-1.57.62"/>
  <path class="cls-3" d="M322.16,372.18c-.42.41-.64.96-.64,1.64,0,.74.22,1.31.65,1.7.44.39.96.59,1.56.59s1.13-.2,1.56-.59c.43-.39.65-.96.65-1.7,0-.68-.21-1.23-.64-1.64-.43-.41-.95-.62-1.58-.62s-1.15.21-1.57.62"/>
  <path class="cls-3" d="M372.27,386.14c-.63,0-1.15.21-1.57.64-.43.42-.64.97-.64,1.66,0,.74.22,1.3.65,1.69.43.38.96.57,1.56.57s1.13-.19,1.56-.57c.44-.38.65-.94.65-1.69,0-.68-.21-1.23-.64-1.66-.42-.42-.95-.64-1.57-.64"/>
  <path class="cls-3" d="M378.42,386.14c-.63,0-1.15.21-1.57.64-.43.42-.64.97-.64,1.66,0,.74.22,1.3.65,1.69.43.38.96.57,1.56.57s1.13-.19,1.56-.57c.44-.38.65-.94.65-1.69,0-.68-.21-1.23-.63-1.66-.42-.42-.95-.64-1.59-.64"/>
  <path class="cls-3" d="M388.79,372.18c-.43.41-.64.96-.64,1.64,0,.74.22,1.31.65,1.7.44.39.96.59,1.56.59s1.13-.2,1.56-.59c.43-.39.65-.96.65-1.7,0-.68-.21-1.23-.64-1.64-.43-.41-.95-.62-1.58-.62s-1.15.21-1.57.62"/>
  <path class="cls-3" d="M394.94,372.18c-.42.41-.64.96-.64,1.64,0,.74.22,1.31.65,1.7.44.39.96.59,1.56.59s1.13-.2,1.56-.59c.43-.39.65-.96.65-1.7,0-.68-.21-1.23-.62-1.64-.42-.41-.95-.62-1.59-.62s-1.15.21-1.57.62"/>
  <polygon class="cls-3" points="106.67 407.54 101.51 399.7 98.52 399.7 98.52 414.77 101.74 414.77 101.74 405.47 105.72 411.54 107.6 411.54 111.58 405.49 111.58 414.77 114.8 414.77 114.8 399.7 111.81 399.7 106.67 407.54"/>
  <path class="cls-3" d="M176.18,401.79c-.65-.73-1.49-1.31-2.53-1.74-1.04-.43-2.2-.64-3.49-.64s-2.45.21-3.49.64c-1.03.43-1.88,1.01-2.53,1.74-.65.73-1.15,1.56-1.48,2.5-.34.93-.51,1.92-.51,2.95s.17,2.02.51,2.95c.34.93.83,1.76,1.48,2.49.65.73,1.5,1.31,2.53,1.74,1.03.43,2.19.64,3.49.64s2.45-.21,3.49-.64c1.03-.43,1.87-1.01,2.53-1.74.65-.73,1.15-1.56,1.49-2.49.34-.93.5-1.92.5-2.95s-.17-2.01-.5-2.95c-.34-.93-.83-1.76-1.49-2.5M173.63,410.7c-.82.92-1.97,1.38-3.46,1.38s-2.67-.46-3.49-1.38c-.82-.92-1.23-2.07-1.23-3.46s.41-2.55,1.23-3.46c.82-.92,1.98-1.38,3.49-1.38s2.65.46,3.46,1.38c.82.92,1.23,2.07,1.23,3.46s-.41,2.55-1.23,3.46Z"/>
  <path class="cls-3" d="M235.03,406.81c1.52-.52,2.28-1.61,2.28-3.29,0-1.26-.45-2.21-1.37-2.85-.91-.64-2.19-.96-3.84-.96h-6.58v15.06h6.48c.73,0,1.42-.07,2.06-.19.64-.13,1.26-.34,1.87-.62.61-.29,1.1-.72,1.45-1.3.36-.58.54-1.28.54-2.1,0-1.03-.27-1.85-.82-2.46-.54-.61-1.23-1.04-2.06-1.28M228.75,402.35h3.08c1.52,0,2.28.57,2.28,1.72,0,.56-.2.99-.58,1.28-.39.29-.9.44-1.53.44h-3.25v-3.44ZM233.96,411.73c-.49.27-1.16.41-2,.41h-3.23v-3.87h3.4c1.71,0,2.56.65,2.56,1.94,0,.75-.24,1.26-.73,1.53Z"/>
  <rect class="cls-3" x="285.25" y="399.7" width="3.23" height="15.06"/>
  <polygon class="cls-3" points="339.9 399.71 336.68 399.71 336.68 414.77 347.28 414.77 347.28 411.86 339.9 411.86 339.9 399.71"/>
  <polygon class="cls-3" points="397.37 411.93 397.37 408.57 404.11 408.57 404.11 405.75 397.37 405.75 397.37 402.55 404.75 402.55 404.75 399.71 394.14 399.71 394.14 414.77 404.88 414.77 404.88 411.93 397.37 411.93"/>
</svg>